<?xml version="1.0" standalone="no"?>
<!DOCTYPE svg PUBLIC "-//W3C//DTD SVG 1.1//EN" "http://www.w3.org/Graphics/SVG/1.1/DTD/svg11.dtd" >
<svg>
<metadata>
Created by FontForge 20090914 at Wed Dec  7 18:07:25 2016
 By www-data
Alba &#194;&#169;2001, Font&#226;&#128;&#162;a&#226;&#128;&#162;licious Fonts.
</metadata>
<defs>
<font id="Alba" horiz-adv-x="565" >
  <font-face 
    font-family="Alba"
    font-weight="400"
    font-stretch="normal"
    units-per-em="1000"
    panose-1="0 0 4 0 0 0 0 0 0 0"
    ascent="800"
    descent="-200"
    x-height="500"
    cap-height="705"
    bbox="-139.002 -541.999 1348 1040.17"
    underline-thickness="20"
    underline-position="-123"
    unicode-range="U+0020-U+F002"
  />
<missing-glyph horiz-adv-x="500" 
d="M63 0v1030h375v-1030h-375zM125 63h250v905h-250v-905z" />
    <glyph glyph-name=".notdef" horiz-adv-x="500" 
d="M63 0v1030h375v-1030h-375zM125 63h250v905h-250v-905z" />
    <glyph glyph-name="space" unicode=" " horiz-adv-x="303" 
 />
    <glyph glyph-name="exclam" unicode="!" horiz-adv-x="190" 
d="M53 638c0 19.333 6.33301 35.333 19 48s28.667 19 48 19c20 0 36.333 -6.16699 49 -18.5s19 -28.5 19 -48.5v-357c0 -20 -6.33301 -36.333 -19 -49s-29 -19 -49 -19s-36.167 6.33301 -48.5 19s-18.5 29 -18.5 49v357zM121 0c23.333 0 43 8 59 24s24 35.667 24 59
c0 22.667 -8.16699 42 -24.5 58s-35.833 24 -58.5 24s-42.167 -8 -58.5 -24s-24.5 -35.333 -24.5 -58c0 -23.333 8 -43 24 -59s35.667 -24 59 -24z" />
    <glyph glyph-name="quotedbl" unicode="&#x22;" horiz-adv-x="415" 
d="M204 622c0 22.667 -8.16699 42.167 -24.5 58.5s-35.833 24.5 -58.5 24.5s-42.167 -8.16699 -58.5 -24.5s-24.5 -35.833 -24.5 -58.5v-123c0 -22.667 8.16699 -42 24.5 -58s35.833 -24 58.5 -24s42.167 8 58.5 24s24.5 35.333 24.5 58v123zM414 622c0 23.333 -8 43 -24 59
s-35.667 24 -59 24c-22.667 0 -42 -8.16699 -58 -24.5s-24 -35.833 -24 -58.5v-123c0 -22.667 8 -42 24 -58s35.333 -24 58 -24c23.333 0 43 7.83301 59 23.5s24 35.167 24 58.5v123z" />
    <glyph glyph-name="numbersign" unicode="#" horiz-adv-x="539" 
d="M327 433v61h-61v-61h61zM327 289v9h-61v-9c0 -20 -6.16699 -36.333 -18.5 -49s-28.5 -19 -48.5 -19s-36.333 6.33301 -49 19s-19 29 -19 49v9h-9c-20 0 -36.167 6.33301 -48.5 19s-18.5 29 -18.5 49s6.16699 36.167 18.5 48.5s28.5 18.5 48.5 18.5h9v61h-9
c-20 0 -36.167 6.16699 -48.5 18.5s-18.5 28.5 -18.5 48.5s6.16699 36.333 18.5 49s28.5 19 48.5 19h9v9c0 20 6.33301 36.167 19 48.5s29 18.5 49 18.5s36.167 -6.16699 48.5 -18.5s18.5 -28.5 18.5 -48.5v-9h61v9c0 20 6.16699 36.167 18.5 48.5s28.5 18.5 48.5 18.5
s36.333 -6.16699 49 -18.5s19 -28.5 19 -48.5v-9h9c20 0 36.167 -6.33301 48.5 -19s18.5 -29 18.5 -49s-6.16699 -36.167 -18.5 -48.5s-28.5 -18.5 -48.5 -18.5h-9v-61h9c20 0 36.167 -6.16699 48.5 -18.5s18.5 -28.5 18.5 -48.5c0 -45.333 -22.333 -68 -67 -68h-9v-9
c0 -20 -6.33301 -36.333 -19 -49s-29 -19 -49 -19s-36.167 6.33301 -48.5 19s-18.5 29 -18.5 49z" />
    <glyph glyph-name="dollar" unicode="$" horiz-adv-x="446" 
d="M318 404l-0.998047 -116.001c-0.666992 -54.667 -19.834 -101 -57.501 -139s-83.834 -57 -138.501 -57c-20 0 -36.167 6.16699 -48.5 18.5s-18.5 28.5 -18.5 48.5s6.16699 36.333 18.5 49s28.5 19 48.5 19c17.333 0 31.833 5.83301 43.5 17.5s17.5 26.167 17.5 43.5v20
c0.666992 26.667 1 40.334 1 41.001v55c0 55.333 18.833 101.833 56.5 139.5s84.167 56.5 139.5 56.5c20 0 36.333 -6.16699 49 -18.5s19 -28.5 19 -48.5c0 -19.333 -6 -35 -18 -47s-27.833 -18.833 -47.5 -20.5s-35.167 -8.16699 -46.5 -19.5s-17 -25.333 -17 -42z
M240.002 -17.001c-14.667 0 -27.167 5 -37.5 15s-15.5 22.333 -15.5 37s5.16699 27.167 15.5 37.5s22.833 15.5 37.5 15.5s27.167 -5.16699 37.5 -15.5s15.5 -22.833 15.5 -37.5s-5.16699 -27 -15.5 -37s-22.833 -15 -37.5 -15zM240.002 598.999
c-14.667 0 -27.167 5.16699 -37.5 15.5s-15.5 22.833 -15.5 37.5s5.16699 27.167 15.5 37.5s22.833 15.5 37.5 15.5s27.167 -5.16699 37.5 -15.5s15.5 -22.833 15.5 -37.5s-5.16699 -27.167 -15.5 -37.5s-22.833 -15.5 -37.5 -15.5z" />
    <glyph glyph-name="percent" unicode="%" horiz-adv-x="715" 
d="M579 685l-269.001 -753c-10.667 -30 -31 -45 -61 -45c-18.667 0 -35.167 6.16699 -49.5 18.5s-21.5 27.833 -21.5 46.5c0 8 1.66699 16.667 5 26l268 752c10.667 30.667 31.334 46 62.001 46c18.667 0 35 -6.33301 49 -19s21 -28.334 21 -47.001
c0 -9.33301 -1.33301 -17.666 -4 -24.999zM586.999 296c-35.333 0 -65.5 -12.5 -90.5 -37.5s-37.5 -55.167 -37.5 -90.5s12.5 -65.5 37.5 -90.5s55.167 -37.5 90.5 -37.5s65.5 12.5 90.5 37.5s37.5 55.167 37.5 90.5s-12.5 65.5 -37.5 90.5s-55.167 37.5 -90.5 37.5z
M586.999 228c16.667 0 30.834 -5.83301 42.501 -17.5s17.5 -25.834 17.5 -42.501s-5.83301 -30.834 -17.5 -42.501s-25.834 -17.5 -42.501 -17.5s-30.834 5.83301 -42.501 17.5s-17.5 25.834 -17.5 42.501s5.83301 30.834 17.5 42.501s25.834 17.5 42.501 17.5zM181.999 701
c-35.333 0 -65.5 -12.5 -90.5 -37.5s-37.5 -55.167 -37.5 -90.5s12.5 -65.5 37.5 -90.5s55.167 -37.5 90.5 -37.5s65.5 12.5 90.5 37.5s37.5 55.167 37.5 90.5s-12.5 65.5 -37.5 90.5s-55.167 37.5 -90.5 37.5zM181.999 633c16.667 0 30.834 -5.83301 42.501 -17.5
s17.5 -25.834 17.5 -42.501s-5.83301 -30.834 -17.5 -42.501s-25.834 -17.5 -42.501 -17.5s-30.834 5.83301 -42.501 17.5s-17.5 25.834 -17.5 42.501s5.83301 30.834 17.5 42.501s25.834 17.5 42.501 17.5z" />
    <glyph glyph-name="ampersand" unicode="&#x26;" horiz-adv-x="813" 
d="M182 200c-35.333 0 -65.499 12.501 -90.499 37.501s-37.5 55.167 -37.5 90.5s12.5 65.5 37.5 90.5s55.167 37.5 90.5 37.5s65.5 -12.5 90.5 -37.5s37.5 -55.167 37.5 -90.5v-94c0 -22 -11.333 -33 -34 -33s-34 11 -34 33v94c0 16.667 -5.83301 30.834 -17.5 42.501
s-25.834 17.5 -42.501 17.5s-30.834 -5.83301 -42.501 -17.5s-17.5 -25.834 -17.5 -42.501s5.83301 -30.834 17.5 -42.501s25.834 -17.5 42.501 -17.5c22.667 0 34 -11.333 34 -34s-11.333 -34 -34 -34zM395.001 347.001v-113c0 -22.667 -11.333 -34 -34 -34
s-34 11.333 -34 34v113c0 30 10.5 55.5 31.5 76.5s46.5 31.5 76.5 31.5s55.5 -10.5 76.5 -31.5s31.5 -46.5 31.5 -76.5v-113c0 -22.667 -11.333 -34 -34 -34s-34 11.333 -34 34v113c0 11.333 -3.83301 21 -11.5 29s-17.167 12 -28.5 12s-20.833 -4 -28.5 -12
s-11.5 -17.667 -11.5 -29zM685.001 388.001c-16.667 0 -30.835 -5.83203 -42.502 -17.499s-17.5 -25.834 -17.5 -42.501s5.83301 -30.834 17.5 -42.501s25.834 -17.5 42.501 -17.5s30.834 5.83301 42.501 17.5s17.5 25.834 17.5 42.501v195c0 22.667 11.333 34 34 34
s34 -11.333 34 -34v-195c0 -35.333 -12.5 -65.5 -37.5 -90.5s-55.167 -37.5 -90.5 -37.5s-65.5 12.5 -90.5 37.5s-37.5 55.167 -37.5 90.5s12.5 65.5 37.5 90.5s55.167 37.5 90.5 37.5c22.667 0 34 -11.333 34 -34s-11.333 -34 -34 -34z" />
    <glyph glyph-name="quotesingle" unicode="'" horiz-adv-x="190" 
d="M204 622c0 22.667 -8.16699 42.167 -24.5 58.5s-35.833 24.5 -58.5 24.5s-42.167 -8.16699 -58.5 -24.5s-24.5 -35.833 -24.5 -58.5v-123c0 -22.667 8.16699 -42 24.5 -58s35.833 -24 58.5 -24s42.167 8 58.5 24s24.5 35.333 24.5 58v123z" />
    <glyph glyph-name="parenleft" unicode="(" horiz-adv-x="479" 
d="M412 -81c20 0 36.333 6.16699 49 18.5s19 28.5 19 48.5s-6.33301 36.333 -19 49s-29 19 -49 19c-62.667 0 -115.5 21.5 -158.5 64.5s-64.5 95.833 -64.5 158.5v140c0 62.667 21.5 115.5 64.5 158.5s95.833 64.5 158.5 64.5c20 0 36.333 6.33301 49 19s19 29 19 49
s-6.33301 36.167 -19 48.5s-29 18.5 -49 18.5c-100 0 -184.667 -34.667 -254 -104s-104 -154 -104 -254v-140c0 -100 34.667 -184.667 104 -254s154 -104 254 -104z" />
    <glyph glyph-name="parenright" unicode=")" horiz-adv-x="479" 
d="M121 -81c-20 0 -36.333 6.16699 -49 18.5s-19 28.5 -19 48.5s6.33301 36.333 19 49s29 19 49 19c62.667 0 115.5 21.5 158.5 64.5s64.5 95.833 64.5 158.5v140c0 62.667 -21.5 115.5 -64.5 158.5s-95.833 64.5 -158.5 64.5c-20 0 -36.333 6.33301 -49 19s-19 29 -19 49
s6.33301 36.167 19 48.5s29 18.5 49 18.5c100 0 184.667 -34.667 254 -104s104 -154 104 -254v-140c0 -100 -34.667 -184.667 -104 -254s-154 -104 -254 -104z" />
    <glyph glyph-name="asterisk" unicode="*" horiz-adv-x="427" 
d="M241 111c-56 -22 -89.667 -33 -101 -33c-16 0 -24 15.667 -24 47c0 10 1 35 3 75c-42.667 52 -64 83.333 -64 94c0 9.33301 9 17.666 27 24.999c10 4 38 12 84 24l45 68c10.667 14.667 20.667 22 30 22c8.66699 0 18.667 -7.33301 30 -22c2 -2 17 -24.667 45 -68
c46 -12 74 -20 84 -24c18 -7.33301 27 -15.666 27 -24.999c0 -10.667 -21.333 -42 -64 -94c2 -40 3 -65 3 -75c0 -31.333 -8 -47 -24 -47c-11.333 0 -45 11 -101 33z" />
    <glyph glyph-name="plus" unicode="+" horiz-adv-x="439" 
d="M179 129v57h-57c-20 0 -36.167 6.33301 -48.5 19s-18.5 29 -18.5 49s6.16699 36.167 18.5 48.5s28.5 18.5 48.5 18.5h57v57c0 44.667 22.667 67 68 67c20 0 36.167 -6.16699 48.5 -18.5s18.5 -28.5 18.5 -48.5v-57h57c20 0 36.167 -6.16699 48.5 -18.5
s18.5 -28.5 18.5 -48.5c0 -45.333 -22.333 -68 -67 -68h-57v-57c0 -20 -6.16699 -36.167 -18.5 -48.5s-28.5 -18.5 -48.5 -18.5s-36.333 6.16699 -49 18.5s-19 28.5 -19 48.5z" />
    <glyph glyph-name="comma" unicode="," horiz-adv-x="190" 
d="M204 83c0 22.667 -8.16699 42 -24.5 58s-35.833 24 -58.5 24s-42.167 -8 -58.5 -24s-24.5 -35.333 -24.5 -58v-123c0 -22.667 8.16699 -42.167 24.5 -58.5s35.833 -24.5 58.5 -24.5s42.167 8.16699 58.5 24.5s24.5 35.833 24.5 58.5v123z" />
    <glyph glyph-name="hyphen" unicode="-" horiz-adv-x="190" 
d="M121 227c22.667 0 42.167 8.16699 58.5 24.5s24.5 35.833 24.5 58.5s-8.16699 42.167 -24.5 58.5s-35.833 24.5 -58.5 24.5s-42.167 -8.16699 -58.5 -24.5s-24.5 -35.833 -24.5 -58.5s8.16699 -42.167 24.5 -58.5s35.833 -24.5 58.5 -24.5z" />
    <glyph glyph-name="hyphen" unicode="&#x2010;" horiz-adv-x="190" 
d="M121 227c22.667 0 42.167 8.16699 58.5 24.5s24.5 35.833 24.5 58.5s-8.16699 42.167 -24.5 58.5s-35.833 24.5 -58.5 24.5s-42.167 -8.16699 -58.5 -24.5s-24.5 -35.833 -24.5 -58.5s8.16699 -42.167 24.5 -58.5s35.833 -24.5 58.5 -24.5z" />
    <glyph glyph-name="period" unicode="." horiz-adv-x="190" 
d="M121 0c23.333 0 43 8 59 24s24 35.667 24 59c0 22.667 -8.16699 42 -24.5 58s-35.833 24 -58.5 24s-42.167 -8 -58.5 -24s-24.5 -35.333 -24.5 -58c0 -23.333 8 -43 24 -59s35.667 -24 59 -24z" />
    <glyph glyph-name="slash" unicode="/" horiz-adv-x="361" 
d="M398 685l-269 -753.002c-10.667 -30 -31 -45 -61 -45c-18.667 0 -35 6.16699 -49 18.5s-21 27.833 -21 46.5c0 10 1.33301 18.667 4 26l269 752c10.667 30.667 31 46 61 46c19.333 0 35.833 -6.16699 49.5 -18.5s20.5 -28.166 20.5 -47.499
c0 -9.33301 -1.33301 -17.666 -4 -24.999z" />
    <glyph glyph-name="zero" unicode="0" horiz-adv-x="769" 
d="M412 705c100 0 184.667 -34.667 254 -104s104 -154 104 -254s-34.667 -184.667 -104 -254s-154 -104 -254 -104s-184.667 34.667 -254 104s-104 154 -104 254s34.667 184.667 104 254s154 104 254 104zM412 570c-63.333 0 -116.333 -21.333 -159 -64
s-64 -95.667 -64 -159c0 -62.667 21.5 -115.5 64.5 -158.5s95.833 -64.5 158.5 -64.5s115.5 21.5 158.5 64.5s64.5 95.833 64.5 158.5s-21.5 115.5 -64.5 158.5s-95.833 64.5 -158.5 64.5z" />
    <glyph glyph-name="one" unicode="1" horiz-adv-x="189" 
d="M189 638v-580c0 -20 -6.33301 -36.167 -19 -48.5s-29 -18.5 -49 -18.5s-36.167 6.16699 -48.5 18.5s-18.5 28.5 -18.5 48.5v580c0 20 6.16699 36.167 18.5 48.5s28.5 18.5 48.5 18.5s36.333 -6.16699 49 -18.5s19 -28.5 19 -48.5z" />
    <glyph glyph-name="two" unicode="2" 
d="M333 126l163.997 0.000976562c20 0 36.333 -6.33301 49 -19s19 -29 19 -49s-6.33301 -36.167 -19 -48.5s-29 -18.5 -49 -18.5h-376c-51.333 0 -77 19.333 -77 58c0 26 14 48.333 42 67c38.667 25.333 82.334 55.666 131.001 90.999c54 38.667 97.333 73.667 130 105
c55.333 52.667 83 98.667 83 138c0 33.333 -11.833 61.666 -35.5 84.999s-52.167 35 -85.5 35s-61.666 -11.667 -84.999 -35s-35 -51.666 -35 -84.999c0 -20 -6.33301 -36.333 -19 -49s-29 -19 -49 -19s-36.167 6.33301 -48.5 19s-18.5 29 -18.5 49
c0 72 24.5 132.5 73.5 181.5s109.5 73.5 181.5 73.5s132.667 -24.5 182 -73.5s74 -109.5 74 -181.5c0 -64 -26 -126 -78 -186c-29.333 -34 -80.666 -80 -153.999 -138z" />
    <glyph glyph-name="three" unicode="3" horiz-adv-x="480" 
d="M54 494c0 59.333 20.334 109.331 61.001 149.998s90.667 61 150 61s109.5 -20.333 150.5 -61s61.5 -90.667 61.5 -150c0 -57.333 -19.667 -106.333 -59 -147c39.333 -40 59 -88.333 59 -145c0 -59.333 -20.5 -109.333 -61.5 -150s-91.167 -61 -150.5 -61h-144
c-20 0 -36.333 6.16699 -49 18.5s-19 28.5 -19 48.5s6.33301 36.333 19 49s29 19 49 19h144c21.333 0 39.5 7.33301 54.5 22s22.5 32.667 22.5 54c0 22 -8.33301 40.333 -25 55s-36.334 23.334 -59.001 26.001c-18.667 2 -34.5 9.16699 -47.5 21.5s-19.5 27.5 -19.5 45.5
c0 20 7 36 21 48s31.667 18.333 53 19s39.5 8.33398 54.5 23.001s22.5 32.667 22.5 54s-7.5 39.333 -22.5 54s-33.167 22 -54.5 22c-20.667 0 -38.5 -7.5 -53.5 -22.5s-22.5 -32.5 -22.5 -52.5s-6.16699 -36.5 -18.5 -49.5s-28.5 -19.5 -48.5 -19.5s-36.333 6.33301 -49 19
s-19 29 -19 49z" />
    <glyph glyph-name="four" unicode="4" horiz-adv-x="486" 
d="M350 196l-80.002 0.00195312c-61.333 0 -112.666 20.667 -153.999 62s-62 92.666 -62 153.999v224c0 20 6.16699 36.333 18.5 49s28.5 19 48.5 19s36.333 -6.33301 49 -19s19 -29 19 -49v-224c0 -22.667 7.83301 -41.834 23.5 -57.501s34.834 -23.5 57.501 -23.5h80v307
c0 19.333 6.5 35.333 19.5 48s29.167 19 48.5 19c20 0 36.167 -6.16699 48.5 -18.5s18.5 -28.5 18.5 -48.5v-580c0 -20 -6.16699 -36.167 -18.5 -48.5s-28.5 -18.5 -48.5 -18.5c-19.333 0 -35.5 6.33301 -48.5 19s-19.5 28.667 -19.5 48v138z" />
    <glyph glyph-name="five" unicode="5" horiz-adv-x="497" 
d="M418 570h-229v-68h52c72 0 132.667 -24.667 182 -74s74 -110 74 -182c0 -71.333 -24.833 -131.666 -74.5 -180.999s-110.167 -74 -181.5 -74h-120c-20 0 -36.167 6.16699 -48.5 18.5s-18.5 28.5 -18.5 48.5s6.16699 36.333 18.5 49s28.5 19 48.5 19h120
c33.333 0 61.833 11.667 85.5 35s35.5 51.666 35.5 84.999s-11.833 61.833 -35.5 85.5s-52.167 35.5 -85.5 35.5h-120c-18 0 -33.667 6.66699 -47 20s-20 29 -20 47v204c0 18 6.66699 33.667 20 47s29 20 47 20h297c20 0 36.167 -6.16699 48.5 -18.5s18.5 -28.5 18.5 -48.5
c0 -45.333 -22.333 -68 -67 -68z" />
    <glyph glyph-name="six" unicode="6" horiz-adv-x="566" 
d="M565 245c0 -72 -24.6689 -132.665 -74.002 -181.998s-110 -74 -182 -74s-132.5 24.667 -181.5 74s-73.5 110 -73.5 182v205c0 72 24.5 132.5 73.5 181.5s109.5 73.5 181.5 73.5c72.667 0 134.334 -26 185.001 -78c13.333 -14 20 -29.667 20 -47
c0 -18.667 -7 -34.834 -21 -48.501s-30.333 -20.5 -49 -20.5c-18 0 -34 7.33301 -48 22c-23.333 24.667 -52.333 37 -87 37c-29.333 0 -55.166 -9.33301 -77.499 -28s-35.833 -42.334 -40.5 -71.001c36.667 19.333 76 29 118 29c72 0 132.667 -24.5 182 -73.5
s74 -109.5 74 -181.5zM429.998 245.002c0 33.333 -11.833 61.666 -35.5 84.999s-52.167 35 -85.5 35s-61.666 -11.667 -84.999 -35s-35 -51.666 -35 -84.999s11.667 -61.833 35 -85.5s51.666 -35.5 84.999 -35.5s61.833 11.833 85.5 35.5s35.5 52.167 35.5 85.5z" />
    <glyph glyph-name="seven" unicode="7" horiz-adv-x="505" 
d="M121 705l318.001 0.000976562c44 0 66 -20.667 66 -62c0 -34 -18.667 -105 -56 -213l-136 -393c-10.667 -31.333 -31.334 -47 -62.001 -47c-19.333 0 -35.833 6.16699 -49.5 18.5s-20.5 28.166 -20.5 47.499c0 7.33301 1.33301 15 4 23l161 491h-225
c-20 0 -36.167 6.33301 -48.5 19s-18.5 29 -18.5 49s6.16699 36.167 18.5 48.5s28.5 18.5 48.5 18.5z" />
    <glyph glyph-name="eight" unicode="8" horiz-adv-x="501" 
d="M277 571c-18.667 0 -34.333 -6.50098 -47 -19.501s-19 -28.833 -19 -47.5c0 -18 6.5 -33.5 19.5 -46.5s28.5 -19.5 46.5 -19.5c18.667 0 34.5 6.33301 47.5 19s19.5 28.334 19.5 47.001s-6.5 34.5 -19.5 47.5s-28.833 19.5 -47.5 19.5zM432.001 374.999
c45.333 -44 67.999 -97.667 67.999 -161c0 -62.667 -21.5 -115.5 -64.5 -158.5s-95.833 -64.5 -158.5 -64.5s-115.5 21.5 -158.5 64.5s-64.5 95.833 -64.5 158.5c0 63.333 22.667 117 68 161c-30.667 37.333 -46 80.333 -46 129c0 56.667 19.333 104.5 58 143.5
s86.334 58.5 143.001 58.5c57.333 0 105.333 -19.333 144 -58s58 -86.667 58 -144c0 -48.667 -15.667 -91.667 -47 -129zM277 302.999c-24.667 0 -45.5 -8.66699 -62.5 -26s-25.5 -38.333 -25.5 -63c0 -24 8.66699 -44.667 26 -62s38 -26 62 -26
c24.667 0 45.5 8.5 62.5 25.5s25.5 37.833 25.5 62.5s-8.5 45.667 -25.5 63s-37.833 26 -62.5 26z" />
    <glyph glyph-name="nine" unicode="9" 
d="M309 194c-72 0 -132.499 24.665 -181.499 73.998s-73.5 110 -73.5 182s24.5 132.5 73.5 181.5s109.5 73.5 181.5 73.5s132.667 -24.5 182 -73.5s74 -109.5 74 -181.5v-205c0 -72 -24.667 -132.667 -74 -182s-110 -74 -182 -74c-72.667 0 -134 26.333 -184 79
c-13.333 14 -20 29.333 -20 46c0 18.667 6.83301 34.834 20.5 48.501s29.834 20.5 48.501 20.5c18 0 34 -7.33301 48 -22c24 -24.667 53 -37 87 -37c29.333 0 55.166 9.33301 77.499 28s36.166 42.334 41.499 71.001c-37.333 -19.333 -77 -29 -119 -29zM309.001 328.998
c33.333 0 61.833 11.833 85.5 35.5s35.5 52.167 35.5 85.5s-11.833 61.666 -35.5 84.999s-52.167 35 -85.5 35s-61.666 -11.667 -84.999 -35s-35 -51.666 -35 -84.999s11.667 -61.833 35 -85.5s51.666 -35.5 84.999 -35.5z" />
    <glyph glyph-name="colon" unicode=":" horiz-adv-x="190" 
d="M121 227c22.667 0 42.167 8.16699 58.5 24.5s24.5 35.833 24.5 58.5s-8.16699 42.167 -24.5 58.5s-35.833 24.5 -58.5 24.5s-42.167 -8.16699 -58.5 -24.5s-24.5 -35.833 -24.5 -58.5s8.16699 -42.167 24.5 -58.5s35.833 -24.5 58.5 -24.5zM121 0c23.333 0 43 8 59 24
s24 35.667 24 59c0 22.667 -8.16699 42 -24.5 58s-35.833 24 -58.5 24s-42.167 -8 -58.5 -24s-24.5 -35.333 -24.5 -58c0 -23.333 8 -43 24 -59s35.667 -24 59 -24z" />
    <glyph glyph-name="semicolon" unicode=";" horiz-adv-x="190" 
d="M121 227c22.667 0 42.167 8.16699 58.5 24.5s24.5 35.833 24.5 58.5s-8.16699 42.167 -24.5 58.5s-35.833 24.5 -58.5 24.5s-42.167 -8.16699 -58.5 -24.5s-24.5 -35.833 -24.5 -58.5s8.16699 -42.167 24.5 -58.5s35.833 -24.5 58.5 -24.5zM204 83
c0 22.667 -8.16699 42 -24.5 58s-35.833 24 -58.5 24s-42.167 -8 -58.5 -24s-24.5 -35.333 -24.5 -58v-123c0 -22.667 8.16699 -42.167 24.5 -58.5s35.833 -24.5 58.5 -24.5s42.167 8.16699 58.5 24.5s24.5 35.833 24.5 58.5v123z" />
    <glyph glyph-name="less" unicode="&#x3c;" horiz-adv-x="290" 
d="M173 399l-88 -88.998c-19.333 -19.333 -29 -38 -29 -56c0 -14.667 9.66699 -33.334 29 -56.001c4 -4.66699 33.333 -34.334 88 -89.001c14 -14 30 -21 48 -21s34 7 48 21s21 30 21 48c0 17.333 -7 33 -21 47l-50 50l50 50c14 14 21 29.667 21 47c0 18 -7 34 -21 48
s-30 21 -48 21s-34 -7 -48 -21z" />
    <glyph glyph-name="equal" unicode="=" horiz-adv-x="439" 
d="M122 419h249c20 0 36.167 -6.33301 48.5 -19s18.5 -29 18.5 -49s-6.16699 -36.167 -18.5 -48.5s-28.5 -18.5 -48.5 -18.5h-249c-20 0 -36.167 6.16699 -48.5 18.5s-18.5 28.5 -18.5 48.5s6.16699 36.333 18.5 49s28.5 19 48.5 19zM122 223h249
c20 0 36.167 -6.16699 48.5 -18.5s18.5 -28.5 18.5 -48.5c0 -45.333 -22.333 -68 -67 -68h-249c-20 0 -36.167 6.33301 -48.5 19s-18.5 29 -18.5 49s6.16699 36.167 18.5 48.5s28.5 18.5 48.5 18.5z" />
    <glyph glyph-name="greater" unicode="&#x3e;" horiz-adv-x="290" 
d="M172 399l88 -88.998c19.333 -19.333 29 -38 29 -56c0 -14.667 -9.66699 -33.334 -29 -56.001c-4 -4.66699 -33.333 -34.334 -88 -89.001c-14 -14 -30 -21 -48 -21s-34 7 -48 21s-21 30 -21 48c0 17.333 7 33 21 47l50 50l-50 50c-14 14 -21 29.667 -21 47
c0 18 7 34 21 48s30 21 48 21s34 -7 48 -21z" />
    <glyph glyph-name="question" unicode="?" horiz-adv-x="500" 
d="M54 450c0 72 24.499 132.5 73.499 181.5s109.5 73.5 181.5 73.5s132.667 -24.5 182 -73.5s74 -109.5 74 -181.5s-24.667 -132.667 -74 -182s-110 -74 -182 -74h-79c-20 0 -36.167 6.16699 -48.5 18.5s-18.5 28.5 -18.5 48.5s6.16699 36.333 18.5 49s28.5 19 48.5 19h79
c33.333 0 61.833 11.833 85.5 35.5s35.5 52.167 35.5 85.5s-11.833 61.666 -35.5 84.999s-52.167 35 -85.5 35s-61.666 -11.667 -84.999 -35s-35 -51.666 -35 -84.999c0 -20 -6.33301 -36.333 -19 -49s-29 -19 -49 -19s-36.167 6.33301 -48.5 19s-18.5 29 -18.5 49z
M239.999 161c-22.667 0 -42.167 -8 -58.5 -24s-24.5 -35.333 -24.5 -58c0 -23.333 8 -43 24 -59s35.667 -24 59 -24s43 8 59 24s24 35.667 24 59c0 22.667 -8.16699 42 -24.5 58s-35.833 24 -58.5 24z" />
    <glyph glyph-name="at" unicode="@" horiz-adv-x="769" 
d="M412 705c100 0 184.667 -34.667 254 -104s104 -154 104 -254s-34.667 -184.667 -104 -254s-154 -104 -254 -104s-184.667 34.667 -254 104s-104 154 -104 254s34.667 184.667 104 254s154 104 254 104zM412 163c-51.333 0 -94.833 17.833 -130.5 53.5
s-53.5 79.167 -53.5 130.5s17.833 94.833 53.5 130.5s79.167 53.5 130.5 53.5s94.833 -17.833 130.5 -53.5s53.5 -79.167 53.5 -130.5v-126c26 38 39 80 39 126c0 62.667 -21.5 115.5 -64.5 158.5s-95.833 64.5 -158.5 64.5c-63.333 0 -116.333 -21.333 -159 -64
s-64 -95.667 -64 -159c0 -62.667 21.5 -115.5 64.5 -158.5s95.833 -64.5 158.5 -64.5c30 0 59 5.66699 87 17v206c0 24 -8.5 44.5 -25.5 61.5s-37.5 25.5 -61.5 25.5s-44.5 -8.5 -61.5 -25.5s-25.5 -37.5 -25.5 -61.5s8.5 -44.5 25.5 -61.5s37.5 -25.5 61.5 -25.5
c32.667 0 49 -16.333 49 -49c0 -14 -4.66699 -25.5 -14 -34.5s-21 -13.5 -35 -13.5z" />
    <glyph glyph-name="A" unicode="A" 
d="M650 -229h-5.00098c-60.667 0 -111.667 20.833 -153 62.5s-62 92.834 -62 153.501v237c-38 -20 -78.333 -30 -121 -30c-20 0 -36.167 6.33301 -48.5 19s-18.5 29 -18.5 49s6.16699 36.167 18.5 48.5s28.5 18.5 48.5 18.5c33.333 0 61.833 11.833 85.5 35.5
s35.5 52.167 35.5 85.5s-11.833 61.666 -35.5 84.999s-52.167 35 -85.5 35s-61.666 -11.667 -84.999 -35s-35 -51.666 -35 -84.999v-392c0 -20 -6.33301 -36.167 -19 -48.5s-29 -18.5 -49 -18.5s-36.167 6.16699 -48.5 18.5s-18.5 28.5 -18.5 48.5v392
c0 72 24.5 132.5 73.5 181.5s109.5 73.5 181.5 73.5s132.667 -24.5 182 -73.5s74 -109.5 74 -181.5v-463c0 -22.667 7.66699 -41.834 23 -57.501s34.333 -23.5 57 -23.5h5c20 0 36.167 -6.33301 48.5 -19s18.5 -29 18.5 -49c0 -19.333 -6.33301 -35.333 -19 -48
s-28.667 -19 -48 -19z" />
    <glyph glyph-name="B" unicode="B" horiz-adv-x="477" 
d="M54 58l0.000976562 435.998c0 59.333 20.333 109.333 61 150s90.667 61 150 61s109.5 -20.333 150.5 -61s61.5 -90.667 61.5 -150c0 -57.333 -19.667 -106.333 -59 -147c39.333 -40 59 -88.333 59 -145c0 -59.333 -20.5 -109.333 -61.5 -150s-91.167 -61 -150.5 -61
c-19.333 0 -35.333 6.33301 -48 19s-19 28.667 -19 48c0 20 6.33301 36.333 19 49s29.167 19 49.5 19s38 7.5 53 22.5s22.5 32.833 22.5 53.5c0 22 -8.33301 40.333 -25 55s-36.334 23.334 -59.001 26.001c-18.667 2 -34.5 9.16699 -47.5 21.5s-19.5 27.5 -19.5 45.5
c0 20 7 36 21 48s31.667 18.333 53 19s39.5 8.33398 54.5 23.001s22.5 32.667 22.5 54s-7.5 39.333 -22.5 54s-33.167 22 -54.5 22c-20.667 0 -38.5 -7.5 -53.5 -22.5s-22.5 -32.833 -22.5 -53.5v-436c0 -20 -6.16699 -36.167 -18.5 -48.5s-28.5 -18.5 -48.5 -18.5
s-36.333 6.16699 -49 18.5s-19 28.5 -19 48.5z" />
    <glyph glyph-name="C" unicode="C" horiz-adv-x="479" 
d="M412 -11c-100 0 -184.667 34.667 -254 104s-104 154 -104 254s34.667 184.667 104 254s154 104 254 104c20 0 36.333 -6.16699 49 -18.5s19 -28.5 19 -48.5s-6.33301 -36.333 -19 -49s-29 -19 -49 -19c-62.667 0 -115.5 -21.5 -158.5 -64.5s-64.5 -95.833 -64.5 -158.5
s21.5 -115.5 64.5 -158.5s95.833 -64.5 158.5 -64.5c20 0 36.333 -6.33301 49 -19s19 -29 19 -49s-6.33301 -36.167 -19 -48.5s-29 -18.5 -49 -18.5z" />
    <glyph glyph-name="D" unicode="D" horiz-adv-x="629" 
d="M270 124c62.667 0 115.5 21.5 158.5 64.5s64.5 95.833 64.5 158.5c0 63.333 -21.333 116.333 -64 159s-95.667 64 -159 64h-81v-512c0 -20 -6.33301 -36.167 -19 -48.5s-29 -18.5 -49 -18.5s-36.167 6.16699 -48.5 18.5s-18.5 28.5 -18.5 48.5v580
c0 18 6.66699 33.667 20 47s29 20 47 20h149c100.667 0 185.5 -34.5 254.5 -103.5s103.5 -153.833 103.5 -254.5s-34.5 -185.5 -103.5 -254.5s-153.833 -103.5 -254.5 -103.5c-20 0 -36.167 6.16699 -48.5 18.5s-18.5 28.5 -18.5 48.5s6.16699 36.333 18.5 49
s28.5 19 48.5 19z" />
    <glyph glyph-name="E" unicode="E" horiz-adv-x="476" 
d="M412 -11c-100 0 -184.667 34.667 -254 104s-104 154 -104 254s34.667 184.667 104 254s154 104 254 104c20 0 36.333 -6.16699 49 -18.5s19 -28.5 19 -48.5s-6.33301 -36.333 -19 -49s-29 -19 -49 -19c-48 0 -91.333 -13.833 -130 -41.5s-65.667 -64.167 -81 -109.5h211
c20 0 36.333 -6.16699 49 -18.5s19 -28.5 19 -48.5s-6.33301 -36.333 -19 -49s-29 -19 -49 -19h-214c14 -47.333 40.833 -85.833 80.5 -115.5s84.167 -44.5 133.5 -44.5c20 0 36.333 -6.33301 49 -19s19 -29 19 -49s-6.33301 -36.167 -19 -48.5s-29 -18.5 -49 -18.5z" />
    <glyph glyph-name="F" unicode="F" horiz-adv-x="432" 
d="M363 259l-173.998 0.00195312v-201c0 -20 -6.33301 -36.167 -19 -48.5s-29 -18.5 -49 -18.5s-36.167 6.16699 -48.5 18.5s-18.5 28.5 -18.5 48.5v431c0 61.333 20.667 112.666 62 153.999s92.666 62 153.999 62h93c20 0 36.333 -6.16699 49 -18.5s19 -28.5 19 -48.5
s-6.33301 -36.333 -19 -49s-29 -19 -49 -19h-93c-22.667 0 -41.834 -7.83301 -57.501 -23.5s-23.5 -34.834 -23.5 -57.501v-95h174c20 0 36.333 -6.16699 49 -18.5s19 -28.5 19 -48.5s-6.33301 -36.333 -19 -49s-29 -19 -49 -19z" />
    <glyph glyph-name="G" unicode="G" horiz-adv-x="766" 
d="M489 415h214c18 0 33.667 -6.83301 47 -20.5s20 -29.5 20 -47.5c0 -100 -34.667 -184.667 -104 -254s-154 -104 -254 -104s-184.667 34.667 -254 104s-104 154 -104 254s34.667 184.667 104 254s154 104 254 104c106 0 195 -40 267 -120c12.667 -14 19 -28.667 19 -44
c0 -18.667 -7 -34.834 -21 -48.501s-30.333 -20.5 -49 -20.5c-18 0 -34.333 8 -49 24c-44 49.333 -99.667 74 -167 74c-63.333 0 -116.333 -21.333 -159 -64s-64 -95.667 -64 -159c0 -62.667 21.5 -115.5 64.5 -158.5s95.833 -64.5 158.5 -64.5
c49.333 0 93.5 14.333 132.5 43s65.833 66.334 80.5 113.001h-136c-20 0 -36.167 6.33301 -48.5 19s-18.5 29 -18.5 49s6.16699 36.167 18.5 48.5s28.5 18.5 48.5 18.5z" />
    <glyph glyph-name="H" unicode="H" horiz-adv-x="597" 
d="M685 -229h-6c-60.667 0 -111.834 20.833 -153.501 62.5s-62.5 92.834 -62.5 153.501v322h-274v-251c0 -20 -6.33301 -36.167 -19 -48.5s-29 -18.5 -49 -18.5s-36.167 6.16699 -48.5 18.5s-18.5 28.5 -18.5 48.5v580c0 20 6.16699 36.167 18.5 48.5s28.5 18.5 48.5 18.5
s36.333 -6.16699 49 -18.5s19 -28.5 19 -48.5v-194h274v194c0 20 6.16699 36.167 18.5 48.5s28.5 18.5 48.5 18.5s36.333 -6.16699 49 -18.5s19 -28.5 19 -48.5v-651c0 -22.667 7.83301 -41.834 23.5 -57.501s34.834 -23.5 57.501 -23.5h6c20 0 36.333 -6.33301 49 -19
s19 -29 19 -49s-6.33301 -36.167 -19 -48.5s-29 -18.5 -49 -18.5z" />
    <glyph glyph-name="I" unicode="I" horiz-adv-x="189" 
d="M189 638v-580c0 -20 -6.33301 -36.167 -19 -48.5s-29 -18.5 -49 -18.5s-36.167 6.16699 -48.5 18.5s-18.5 28.5 -18.5 48.5v580c0 20 6.16699 36.167 18.5 48.5s28.5 18.5 48.5 18.5s36.333 -6.16699 49 -18.5s19 -28.5 19 -48.5z" />
    <glyph glyph-name="J" unicode="J" horiz-adv-x="494" 
d="M495 638v-428c0 -62 -21.333 -114.333 -64 -157s-95 -64 -157 -64s-114.167 21.333 -156.5 64s-63.5 95 -63.5 157c0 20 6.33301 36.167 19 48.5s29 18.5 49 18.5s36.167 -6.16699 48.5 -18.5s18.5 -28.5 18.5 -48.5c0 -24 8.16699 -44.333 24.5 -61s36.5 -25 60.5 -25
s44.333 8.33301 61 25s25 37 25 61v428c0 20 6.16699 36.167 18.5 48.5s28.5 18.5 48.5 18.5s36.333 -6.16699 49 -18.5s19 -28.5 19 -48.5z" />
    <glyph glyph-name="K" unicode="K" horiz-adv-x="514" 
d="M599 -229l-4.00195 0.000976562c-61.333 0 -112.666 20.667 -153.999 62s-62 92.666 -62 153.999v221c0 22 -8 40.833 -24 56.5s-35 23.5 -57 23.5h-109v-230c0 -20 -6.33301 -36.167 -19 -48.5s-29 -18.5 -49 -18.5s-36.167 6.16699 -48.5 18.5s-18.5 28.5 -18.5 48.5
v578c0 20 6.16699 36.333 18.5 49s28.5 19 48.5 19s36.333 -6.33301 49 -19s19 -29 19 -49v-212l51 -1c21.333 2 38.833 10.833 52.5 26.5s20.5 34.167 20.5 55.5c0 19.333 6.33301 35.333 19 48s28.667 19 48 19c20 0 36.333 -6.33301 49 -19s19 -29 19 -49
c0 -41.333 -11 -79.666 -33 -114.999c66 -42.667 99 -103 99 -181v-221c0 -22.667 7.83301 -41.834 23.5 -57.501s34.834 -23.5 57.501 -23.5h4c44.667 0 67 -22.667 67 -68c0 -20 -6.16699 -36.167 -18.5 -48.5s-28.5 -18.5 -48.5 -18.5z" />
    <glyph glyph-name="L" unicode="L" horiz-adv-x="381" 
d="M314 -9l-44.002 0.00195312c-61.333 0 -112.666 20.667 -153.999 62s-62 92.666 -62 153.999v431c0 20 6.16699 36.167 18.5 48.5s28.5 18.5 48.5 18.5s36.333 -6.16699 49 -18.5s19 -28.5 19 -48.5v-431c0 -22.667 7.83301 -41.834 23.5 -57.501
s34.834 -23.5 57.501 -23.5h44c20 0 36.167 -6.33301 48.5 -19s18.5 -29 18.5 -49s-6.16699 -36.167 -18.5 -48.5s-28.5 -18.5 -48.5 -18.5z" />
    <glyph glyph-name="M" unicode="M" horiz-adv-x="766" 
d="M630 489c0 22 -7.83398 41.001 -23.501 57.001s-34.5 24 -56.5 24c-26.667 0 -48 -10.667 -64 -32v-480c0 -20 -6.33301 -36.167 -19 -48.5s-29 -18.5 -49 -18.5s-36.167 6.16699 -48.5 18.5s-18.5 28.5 -18.5 48.5v431c0 22 -8 41 -24 57s-35 24 -57 24
c-22.667 0 -41.834 -7.83301 -57.501 -23.5s-23.5 -34.834 -23.5 -57.501v-431c0 -20 -6.16699 -36.167 -18.5 -48.5s-28.5 -18.5 -48.5 -18.5s-36.333 6.16699 -49 18.5s-19 28.5 -19 48.5v431c0 60.667 20.833 111.834 62.5 153.501s92.834 62.5 153.501 62.5
c52.667 0 99.334 -17.333 140.001 -52c40 34.667 86.667 52 140 52c60.667 0 111.667 -20.833 153 -62.5s62 -92.834 62 -153.501v-502c0 -22.667 7.83301 -41.834 23.5 -57.501s34.834 -23.5 57.501 -23.5h4c20 0 36.333 -6.33301 49 -19s19 -29 19 -49
s-6.33301 -36.167 -19 -48.5s-29 -18.5 -49 -18.5h-4c-60.667 0 -111.834 20.833 -153.501 62.5s-62.5 92.834 -62.5 153.501v502z" />
    <glyph glyph-name="N" unicode="N" horiz-adv-x="486" 
d="M571 -229l-4.00195 0.00292969c-61.333 0 -112.666 20.667 -153.999 62s-62 92.666 -62 153.999v58l-1 444c0 22 -7.83301 41 -23.5 57s-34.5 24 -56.5 24c-22.667 0 -41.834 -7.83301 -57.501 -23.5s-23.5 -34.834 -23.5 -57.501v-431c0 -20 -6.33301 -36.167 -19 -48.5
s-29 -18.5 -49 -18.5s-36.167 6.16699 -48.5 18.5s-18.5 28.5 -18.5 48.5v431c0 60.667 20.833 111.834 62.5 153.501s92.834 62.5 153.501 62.5c56.667 0 106.667 -19.833 150 -59.5s65 -87.834 65 -144.501l1 -514c0 -22.667 7.83301 -41.834 23.5 -57.501
s34.834 -23.5 57.501 -23.5h4c20 0 36.333 -6.33301 49 -19s19 -29 19 -49s-6.33301 -36.167 -19 -48.5s-29 -18.5 -49 -18.5z" />
    <glyph glyph-name="O" unicode="O" horiz-adv-x="769" 
d="M412 705c100 0 184.667 -34.667 254 -104s104 -154 104 -254s-34.667 -184.667 -104 -254s-154 -104 -254 -104s-184.667 34.667 -254 104s-104 154 -104 254s34.667 184.667 104 254s154 104 254 104zM412 570c-63.333 0 -116.333 -21.333 -159 -64
s-64 -95.667 -64 -159c0 -62.667 21.5 -115.5 64.5 -158.5s95.833 -64.5 158.5 -64.5s115.5 21.5 158.5 64.5s64.5 95.833 64.5 158.5s-21.5 115.5 -64.5 158.5s-95.833 64.5 -158.5 64.5z" />
    <glyph glyph-name="P" unicode="P" 
d="M309 329c33.333 0 61.832 11.833 85.499 35.5s35.5 52.167 35.5 85.5s-11.833 61.666 -35.5 84.999s-52.167 35 -85.5 35s-61.666 -11.667 -84.999 -35s-35 -51.666 -35 -84.999v-392c0 -20 -6.33301 -36.167 -19 -48.5s-29 -18.5 -49 -18.5
c-19.333 0 -35.333 6.33301 -48 19s-19 28.667 -19 48v392c0 72 24.5 132.5 73.5 181.5s109.5 73.5 181.5 73.5s132.667 -24.5 182 -73.5s74 -109.5 74 -181.5s-24.667 -132.667 -74 -182s-110 -74 -182 -74c-20 0 -36.167 6.33301 -48.5 19s-18.5 29 -18.5 49
s6.16699 36.167 18.5 48.5s28.5 18.5 48.5 18.5z" />
    <glyph glyph-name="Q" unicode="Q" horiz-adv-x="768" 
d="M486 -174c0 -19.333 -6.49902 -35.3311 -19.499 -47.998s-29.167 -19 -48.5 -19s-35.333 6.33301 -48 19s-19 28.667 -19 48l-1 368c0 22 -7.5 41 -22.5 57s-33.167 24 -54.5 24s-38.5 6.16699 -51.5 18.5s-19.5 28.833 -19.5 49.5c0 20 6.33301 36.167 19 48.5
s29 18.5 49 18.5c60.667 0 111.667 -20.833 153 -62.5s62 -92.834 62 -153.501v-58c45.333 15.333 81.666 42.333 108.999 81s41 82 41 130c0 62.667 -21.5 115.5 -64.5 158.5s-95.833 64.5 -158.5 64.5c-63.333 0 -116.333 -21.333 -159 -64s-64 -95.667 -64 -159
c0 -70 27 -127.333 81 -172c17.333 -14 26 -31 26 -51c0 -18.667 -6.83301 -35 -20.5 -49s-29.834 -21 -48.501 -21c-14.667 0 -29 5.66699 -43 17c-86.667 71.333 -130 163.333 -130 276c0 100 34.667 184.667 104 254s154 104 254 104s184.667 -34.667 254 -104
s104 -154 104 -254c0 -85.333 -26.667 -160.833 -80 -226.5s-121.666 -106.834 -204.999 -123.501z" />
    <glyph glyph-name="R" unicode="R" 
d="M377 203c0.666992 -21.333 8.66602 -39.499 23.999 -54.499s33.5 -22.5 54.5 -22.5s37.833 -6.16699 50.5 -18.5s19 -28.833 19 -49.5c0 -20 -6.33301 -36.167 -19 -48.5s-29 -18.5 -49 -18.5c-61.333 0 -112.5 20.667 -153.5 62s-61.5 92.666 -61.5 153.999v55
c0 18 6.66699 33.667 20 47s29 20 47 20c33.333 0 61.833 11.833 85.5 35.5s35.5 52.167 35.5 85.5s-11.833 61.666 -35.5 84.999s-52.167 35 -85.5 35s-61.666 -11.667 -84.999 -35s-35 -51.666 -35 -84.999v-392c0 -20 -6.33301 -36.167 -19 -48.5s-29 -18.5 -49 -18.5
c-19.333 0 -35.333 6.33301 -48 19s-19 28.667 -19 48v392c0 72 24.5 132.5 73.5 181.5s109.5 73.5 181.5 73.5s132.667 -24.5 182 -73.5s74 -109.5 74 -181.5c0 -58 -17.333 -109.667 -52 -155s-80 -76 -136 -92z" />
    <glyph glyph-name="S" unicode="S" horiz-adv-x="444" 
d="M334 553c-12 -12 -18 -26.666 -18 -43.999l1 -323c0 -54.667 -19 -101 -57 -139s-84.333 -57 -139 -57c-20 0 -36.167 6.16699 -48.5 18.5s-18.5 28.5 -18.5 48.5s6.16699 36.333 18.5 49s28.5 19 48.5 19c17.333 0 31.833 5.83301 43.5 17.5s17.5 26.167 17.5 43.5
l-1 323c0 55.333 19 101.833 57 139.5s84.333 56.5 139 56.5c20 0 36.333 -6.16699 49 -18.5s19 -28.5 19 -48.5s-5.83301 -35.833 -17.5 -47.5s-27.667 -18.334 -48 -20.001s-35.5 -7.5 -45.5 -17.5z" />
    <glyph glyph-name="T" unicode="T" horiz-adv-x="507" 
d="M346 58c0 -20 -6.16699 -36.167 -18.5 -48.5s-28.5 -18.5 -48.5 -18.5s-36.333 6.16699 -49 18.5s-19 28.5 -19 48.5v512h-88c-20 0 -36.333 6.33301 -49 19s-19 29 -19 49s6.33301 36.167 19 48.5s29 18.5 49 18.5h316c20 0 36.333 -6.16699 49 -18.5s19 -28.5 19 -48.5
s-6.33301 -36.333 -19 -49s-29 -19 -49 -19h-93v-512z" />
    <glyph glyph-name="U" unicode="U" horiz-adv-x="486" 
d="M189 638l-0.00195312 -430.998c0 -22.667 7.83301 -41.834 23.5 -57.501s34.834 -23.5 57.501 -23.5s41.667 7.83301 57 23.5s23 34.834 23 57.501v432c0 19.333 6.5 35.5 19.5 48.5s29.167 19.5 48.5 19.5c20 0 36.167 -6.33301 48.5 -19s18.5 -29 18.5 -49v-432
c0 -60.667 -20.667 -111.834 -62 -153.501s-92.333 -62.5 -153 -62.5c-61.333 0 -112.666 20.667 -153.999 62s-62 92.666 -62 153.999v431c0 20 6.16699 36.167 18.5 48.5s28.5 18.5 48.5 18.5s36.333 -6.16699 49 -18.5s19 -28.5 19 -48.5z" />
    <glyph glyph-name="V" unicode="V" horiz-adv-x="501" 
d="M142 660l136.996 -396l137 396c10.667 30.667 31.334 46 62.001 46c18.667 0 35 -6.33301 49 -19s21 -28.334 21 -47.001c0 -6.66699 -1.66699 -14.667 -5 -24l-200 -580c-13.333 -38 -34.666 -57 -63.999 -57s-50.666 19 -63.999 57l-201 580c-2.66699 8 -4 16 -4 24
c0 18.667 7 34.334 21 47.001s30.333 19 49 19c30.667 0 51.334 -15.333 62.001 -46z" />
    <glyph glyph-name="W" unicode="W" horiz-adv-x="764" 
d="M332 155c-16 -19.333 -36.6641 -29.0029 -61.9971 -29.0029c-22.667 0 -41.834 7.83301 -57.501 23.5s-23.5 34.834 -23.5 57.501v431c0 20 -6.16699 36.167 -18.5 48.5s-28.5 18.5 -48.5 18.5s-36.333 -6.16699 -49 -18.5s-19 -28.5 -19 -48.5v-431
c0 -61.333 20.667 -112.666 62 -153.999s92.666 -62 153.999 -62c52.667 0 99 17 139 51c40 -34 86.333 -51 139 -51c60.667 0 111.834 20.833 153.501 62.5s62.5 92.834 62.5 153.501v431c0 20 -6.33301 36.167 -19 48.5s-29 18.5 -49 18.5s-36.167 -6.16699 -48.5 -18.5
s-18.5 -28.5 -18.5 -48.5v-431c0 -22.667 -7.83301 -41.834 -23.5 -57.501s-34.834 -23.5 -57.501 -23.5s-41.834 7.83301 -57.501 23.5s-23.5 34.834 -23.5 57.501v431c0 20 -6.16699 36.167 -18.5 48.5s-28.5 18.5 -48.5 18.5s-36.333 -6.16699 -49 -18.5
s-19 -28.5 -19 -48.5v-483z" />
    <glyph glyph-name="X" unicode="X" horiz-adv-x="486" 
d="M485 58c0 -20 -6.16699 -36.166 -18.5 -48.499s-28.5 -18.5 -48.5 -18.5c-19.333 0 -35.5 6.33301 -48.5 19s-19.5 28.667 -19.5 48v136c0 22 -7.83301 41 -23.5 57s-34.5 24 -56.5 24c-22.667 0 -41.834 -7.83301 -57.501 -23.5s-23.5 -34.834 -23.5 -57.501v-136
c0 -20 -6.33301 -36.167 -19 -48.5s-29 -18.5 -49 -18.5s-36.167 6.16699 -48.5 18.5s-18.5 28.5 -18.5 48.5v136c0 59.333 20.667 110 62 152c-41.333 42 -62 92.333 -62 151v141c0 20 6.16699 36.167 18.5 48.5s28.5 18.5 48.5 18.5s36.333 -6.16699 49 -18.5
s19 -28.5 19 -48.5v-141c0 -22.667 7.83301 -41.667 23.5 -57s34.834 -23 57.501 -23c22 0 40.833 7.83301 56.5 23.5s23.5 34.5 23.5 56.5v141c0 19.333 6.5 35.333 19.5 48s29.167 19 48.5 19c20 0 36.167 -6.16699 48.5 -18.5s18.5 -28.5 18.5 -48.5v-141
c0 -58.667 -20.667 -109 -62 -151c41.333 -42 62 -92.667 62 -152v-136z" />
    <glyph glyph-name="Y" unicode="Y" horiz-adv-x="486" 
d="M485 207c0 -60.667 -20.6709 -111.831 -62.0039 -153.498s-92.333 -62.5 -153 -62.5c-61.333 0 -112.666 20.667 -153.999 62s-62 92.666 -62 153.999v10c0 20 6.16699 36.167 18.5 48.5s28.5 18.5 48.5 18.5s36.333 -6.16699 49 -18.5s19 -28.5 19 -48.5v-10
c0 -22.667 7.83301 -41.834 23.5 -57.501s34.834 -23.5 57.501 -23.5s41.667 7.83301 57 23.5s23 34.834 23 57.501v96c-25.333 -10.667 -52 -16 -80 -16c-61.333 0 -112.666 20.667 -153.999 62s-62 92.666 -62 153.999v135c0 20 6.16699 36.167 18.5 48.5
s28.5 18.5 48.5 18.5s36.333 -6.16699 49 -18.5s19 -28.5 19 -48.5v-135c0 -22.667 7.83301 -41.834 23.5 -57.501s34.834 -23.5 57.501 -23.5s41.667 7.83301 57 23.5s23 34.834 23 57.501v0v135c0 19.333 6.5 35.333 19.5 48s29.167 19 48.5 19
c20 0 36.167 -6.16699 48.5 -18.5s18.5 -28.5 18.5 -48.5v-431z" />
    <glyph glyph-name="Z" unicode="Z" horiz-adv-x="479" 
d="M121 705l286 -0.000976562c48 0 72 -19 72 -57c0 -13.333 -4.66699 -28 -14 -44l-281 -478h227c20 0 36.167 -6.33301 48.5 -19s18.5 -29 18.5 -49s-6.16699 -36.167 -18.5 -48.5s-28.5 -18.5 -48.5 -18.5h-345c-19.333 0 -36 4.83301 -50 14.5s-21 23.834 -21 42.501
c0 15.333 4.33301 30.333 13 45l281 477h-168c-20 0 -36.167 6.33301 -48.5 19s-18.5 29 -18.5 49s6.16699 36.167 18.5 48.5s28.5 18.5 48.5 18.5z" />
    <glyph glyph-name="bracketleft" unicode="[" horiz-adv-x="381" 
d="M314 -209h-44c-60.667 0 -111.834 20.833 -153.501 62.5s-62.5 92.834 -62.5 153.501v595c0 60.667 20.833 111.834 62.5 153.501s92.834 62.5 153.501 62.5h44c20 0 36.167 -6.33301 48.5 -19s18.5 -29 18.5 -49s-6.16699 -36.167 -18.5 -48.5s-28.5 -18.5 -48.5 -18.5
h-44c-22.667 0 -41.834 -7.83301 -57.501 -23.5s-23.5 -34.834 -23.5 -57.501v-595c0 -22.667 7.83301 -41.834 23.5 -57.501s34.834 -23.5 57.501 -23.5h44c20 0 36.167 -6.33301 48.5 -19s18.5 -29 18.5 -49s-6.16699 -36.167 -18.5 -48.5s-28.5 -18.5 -48.5 -18.5z" />
    <glyph glyph-name="backslash" unicode="\" horiz-adv-x="361" 
d="M2 685l269 -753.002c10.667 -30 31 -45 61 -45c18.667 0 35 6.16699 49 18.5s21 27.833 21 46.5c0 10 -1.33301 18.667 -4 26l-269 752c-10.667 30.667 -31 46 -61 46c-19.333 0 -35.833 -6.16699 -49.5 -18.5s-20.5 -28.166 -20.5 -47.499
c0 -9.33301 1.33301 -17.666 4 -24.999z" />
    <glyph glyph-name="bracketright" unicode="]" horiz-adv-x="381" 
d="M121 -209h44c60.667 0 111.834 20.833 153.501 62.5s62.5 92.834 62.5 153.501v595c0 60 -21 111 -63 153s-93 63 -153 63h-44c-20 0 -36.333 -6.33301 -49 -19s-19 -29 -19 -49s6.33301 -36.167 19 -48.5s29 -18.5 49 -18.5h44c22 0 41 -8 57 -24s24 -35 24 -57v-595
c0 -22.667 -7.83301 -41.834 -23.5 -57.501s-34.834 -23.5 -57.501 -23.5h-44c-20 0 -36.333 -6.33301 -49 -19s-19 -29 -19 -49s6.33301 -36.167 19 -48.5s29 -18.5 49 -18.5z" />
    <glyph glyph-name="asciicircum" unicode="^" horiz-adv-x="389" 
d="M368 581c-50.667 50 -80.667 79.332 -90 87.999c-22 20 -40.667 30 -56 30c-14 0 -32.333 -10 -55 -30c-11.333 -10 -41.333 -39.333 -90 -88c-14 -14 -21 -29.667 -21 -47c0 -18 7 -34 21 -48s30 -21 48 -21c17.333 0 33 7 47 21l50 49l50 -49c14 -14 29.667 -21 47 -21
c18.667 0 35 6.83301 49 20.5s21 29.834 21 48.501c0 17.333 -7 33 -21 47z" />
    <glyph glyph-name="underscore" unicode="_" horiz-adv-x="571" 
d="M500 135c20 0 36.167 -6.16699 48.5 -18.5s18.5 -28.5 18.5 -48.5s-6.16699 -36.333 -18.5 -49s-28.5 -19 -48.5 -19h-375c-20 -0 -36.333 6.33301 -49 19s-19 29 -19 49s6.33301 36.167 19 48.5s29 18.5 49 18.5h375z" />
    <glyph glyph-name="grave" unicode="`" horiz-adv-x="262" 
d="M207 649c-14 34 -39.668 51 -77.001 51c-10.667 0 -21 -2 -31 -6c-34 -14 -51 -39.667 -51 -77c0 -10.667 2 -21 6 -31l47 -114c14 -34 39.333 -51 76 -51c10.667 0 21.334 2.33301 32.001 7c34 14.667 51 40 51 76c0 12 -2 22.667 -6 32z" />
    <glyph glyph-name="a" unicode="a" 
d="M309 -11c-72 0 -132.5 24.667 -181.5 74s-73.5 110 -73.5 182s24.5 132.5 73.5 181.5s109.5 73.5 181.5 73.5s132.667 -24.5 182 -73.5s74 -109.5 74 -181.5v-187c0 -20 -6.33301 -36.167 -19 -48.5s-29 -18.5 -49 -18.5s-36.167 6.16699 -48.5 18.5
s-18.5 28.5 -18.5 48.5v187c0 33.333 -11.833 61.666 -35.5 84.999s-52.167 35 -85.5 35s-61.666 -11.667 -84.999 -35s-35 -51.666 -35 -84.999s11.667 -61.833 35 -85.5s51.666 -35.5 84.999 -35.5c20 0 36.333 -6.16699 49 -18.5s19 -28.5 19 -48.5
s-6.33301 -36.333 -19 -49s-29 -19 -49 -19z" />
    <glyph glyph-name="b" unicode="b" 
d="M309 502c72 0 132.667 -24.667 182 -74s74 -110 74 -182c0 -71.333 -24.833 -131.666 -74.5 -180.999s-110.167 -74 -181.5 -74s-131.666 24.667 -180.999 74s-74 109.666 -74 180.999v392c0 19.333 6.33301 35.333 19 48s28.667 19 48 19c20 0 36.333 -6.16699 49 -18.5
s19 -28.5 19 -48.5v-392c0 -33.333 11.667 -61.666 35 -84.999s51.666 -35 84.999 -35s61.833 11.667 85.5 35s35.5 51.666 35.5 84.999s-11.833 61.833 -35.5 85.5s-52.167 35.5 -85.5 35.5c-20 0 -36.167 6.16699 -48.5 18.5s-18.5 28.5 -18.5 48.5
s6.16699 36.333 18.5 49s28.5 19 48.5 19z" />
    <glyph glyph-name="c" unicode="c" horiz-adv-x="377" 
d="M309 367c-33.333 0 -61.667 -11.833 -85 -35.5s-35 -52.167 -35 -85.5s11.667 -61.666 35 -84.999s51.666 -35 84.999 -35c20 0 36.333 -6.33301 49 -19s19 -29 19 -49s-6.33301 -36.167 -19 -48.5s-29 -18.5 -49 -18.5c-71.333 0 -131.666 24.667 -180.999 74
s-74 109.666 -74 180.999c0 72 24.5 132.667 73.5 182s109.5 74 181.5 74c20 0 36.333 -6.33301 49 -19s19 -29 19 -49s-6.33301 -36.167 -19 -48.5s-29 -18.5 -49 -18.5z" />
    <glyph glyph-name="d" unicode="d" 
d="M309 367c-33.333 0 -61.667 -11.833 -85 -35.5s-35 -52.167 -35 -85.5s11.667 -61.666 35 -84.999s51.666 -35 84.999 -35s61.833 11.667 85.5 35s35.5 51.666 35.5 84.999v392c0 19.333 6.33301 35.333 19 48s28.667 19 48 19c20 0 36.333 -6.16699 49 -18.5
s19 -28.5 19 -48.5v-392c0 -71.333 -24.833 -131.666 -74.5 -180.999s-110.167 -74 -181.5 -74s-131.666 24.667 -180.999 74s-74 109.666 -74 180.999c0 72 24.5 132.667 73.5 182s109.5 74 181.5 74c20 0 36.333 -6.33301 49 -19s19 -29 19 -49
s-6.33301 -36.167 -19 -48.5s-29 -18.5 -49 -18.5z" />
    <glyph glyph-name="e" unicode="e" horiz-adv-x="514" 
d="M485 321l-127.998 -125.002c-14.667 -14 -30.334 -21 -47.001 -21c-18.667 0 -34.834 7 -48.501 21s-20.5 30.333 -20.5 49c0 16.667 7.33301 32.334 22 47.001l72 71c-8.66699 1.33301 -17.334 2 -26.001 2c-33.333 0 -61.666 -11.667 -84.999 -35
s-35 -51.666 -35 -84.999s11.667 -61.833 35 -85.5s51.666 -35.5 84.999 -35.5h89c20 0 36.167 -6.16699 48.5 -18.5s18.5 -28.5 18.5 -48.5s-6.16699 -36.333 -18.5 -49s-28.5 -19 -48.5 -19h-89c-72 0 -132.5 24.667 -181.5 74s-73.5 110 -73.5 182s24.5 132.5 73.5 181.5
s109.5 73.5 181.5 73.5c72.667 0 134.334 -26 185.001 -78c13.333 -14 20 -29.333 20 -46c0 -22 -9.66699 -40.333 -29 -55z" />
    <glyph glyph-name="f" unicode="f" horiz-adv-x="487" 
d="M422 211l-232.998 0.00195312v-153c0 -20 -6.33301 -36.167 -19 -48.5s-29 -18.5 -49 -18.5s-36.167 6.16699 -48.5 18.5s-18.5 28.5 -18.5 48.5v431c0 61.333 20.667 112.666 62 153.999s92.666 62 153.999 62c60.667 0 111.667 -20.833 153 -62.5
s62 -92.834 62 -153.501v-7c0 -20 -6.16699 -36.333 -18.5 -49s-28.5 -19 -48.5 -19c-19.333 0 -35.5 6.5 -48.5 19.5s-19.5 29.167 -19.5 48.5v7c0 22.667 -7.66699 41.834 -23 57.501s-34.333 23.5 -57 23.5s-41.834 -7.83301 -57.501 -23.5s-23.5 -34.834 -23.5 -57.501
v-143h233c20 0 36.167 -6.33301 48.5 -19s18.5 -29 18.5 -49s-6.16699 -36.167 -18.5 -48.5s-28.5 -18.5 -48.5 -18.5z" />
    <glyph glyph-name="g" unicode="g" 
d="M309 -11c-72 0 -132.502 24.667 -181.502 74s-73.5 110 -73.5 182s24.5 132.5 73.5 181.5s109.5 73.5 181.5 73.5s132.5 -24.5 181.5 -73.5s73.5 -109.5 73.5 -181.5v-241c0 -47.333 -16.5 -87.5 -49.5 -120.5s-72.833 -49.5 -119.5 -49.5h-86
c-33.333 0 -61.666 -11.833 -84.999 -35.5s-35 -52.167 -35 -85.5s11.667 -61.666 35 -84.999s51.666 -35 84.999 -35s61.666 11.667 84.999 35s35 51.666 35 84.999c0 19.333 6.5 35.5 19.5 48.5s29.167 19.5 48.5 19.5c20 0 36.167 -6.33301 48.5 -19s18.5 -29 18.5 -49
c0 -71.333 -24.667 -131.666 -74 -180.999s-109.666 -74 -180.999 -74s-131.666 24.667 -180.999 74s-74 109.666 -74 180.999s24.5 131.833 73.5 181.5s109.167 74.5 180.5 74.5h87c9.33301 0 17.333 3.5 24 10.5s10 15.167 10 24.5v241
c0 33.333 -11.667 61.666 -35 84.999s-51.666 35 -84.999 35s-61.666 -11.667 -84.999 -35s-35 -51.666 -35 -84.999s11.667 -61.833 35 -85.5s51.666 -35.5 84.999 -35.5c20 0 36.333 -6.16699 49 -18.5s19 -28.5 19 -48.5s-6.33301 -36.333 -19 -49s-29 -19 -49 -19z" />
    <glyph glyph-name="h" unicode="h" horiz-adv-x="486" 
d="M571 -229h-4.00195c-61.333 0 -112.666 20.833 -153.999 62.5s-62 92.834 -62 153.501l-1 298c0 22 -7.83301 40.833 -23.5 56.5s-34.5 23.5 -56.5 23.5c-22.667 0 -41.834 -7.66699 -57.501 -23s-23.5 -34.333 -23.5 -57v-227c0 -20 -6.33301 -36.167 -19 -48.5
s-29 -18.5 -49 -18.5s-36.167 6.16699 -48.5 18.5s-18.5 28.5 -18.5 48.5v580c0 20 6.16699 36.167 18.5 48.5s28.5 18.5 48.5 18.5s36.333 -6.16699 49 -18.5s19 -28.5 19 -48.5v-153c25.333 10 52.333 15 81 15c60.667 0 111.834 -20.667 153.501 -62
s62.5 -92.333 62.5 -153v-298c0 -22.667 7.83301 -41.834 23.5 -57.501s34.834 -23.5 57.501 -23.5h4c20 0 36.167 -6.33301 48.5 -19s18.5 -29 18.5 -49s-6.16699 -36.167 -18.5 -48.5s-28.5 -18.5 -48.5 -18.5z" />
    <glyph glyph-name="i" unicode="i" horiz-adv-x="190" 
d="M189 58c0 -20 -6.33301 -36.167 -19 -48.5s-29 -18.5 -49 -18.5s-36.167 6.16699 -48.5 18.5s-18.5 28.5 -18.5 48.5v375c0 20 6.16699 36.167 18.5 48.5s28.5 18.5 48.5 18.5c45.333 0 68 -22.333 68 -67v-375zM121 714c-22.667 0 -42.167 -8.16699 -58.5 -24.5
s-24.5 -35.833 -24.5 -58.5s8.16699 -42.167 24.5 -58.5s35.833 -24.5 58.5 -24.5s42.167 8.16699 58.5 24.5s24.5 35.833 24.5 58.5s-8.16699 42.167 -24.5 58.5s-35.833 24.5 -58.5 24.5z" />
    <glyph glyph-name="j" unicode="j" horiz-adv-x="189" 
d="M121 714c-22.667 0 -42.167 -8.16699 -58.5 -24.5s-24.5 -35.833 -24.5 -58.5s8.16699 -42.167 24.5 -58.5s35.833 -24.5 58.5 -24.5s42.167 8.16699 58.5 24.5s24.5 35.833 24.5 58.5s-8.16699 42.167 -24.5 58.5s-35.833 24.5 -58.5 24.5zM-31 -229h4
c60.667 0 111.834 20.833 153.501 62.5s62.5 92.834 62.5 153.501v446c0 44.667 -22.667 67 -68 67c-20 0 -36.167 -6.16699 -48.5 -18.5s-18.5 -28.5 -18.5 -48.5v-446c0 -22.667 -7.83301 -41.834 -23.5 -57.501s-34.834 -23.5 -57.501 -23.5h-4
c-20 0 -36.333 -6.33301 -49 -19s-19 -29 -19 -49s6.33301 -36.167 19 -48.5s29 -18.5 49 -18.5z" />
    <glyph glyph-name="k" unicode="k" horiz-adv-x="470" 
d="M555 -229l-3.99902 0.000976562c-60.667 0 -111.834 20.833 -153.501 62.5s-62.5 92.834 -62.5 153.501v118c0 22.667 -7.83301 41.667 -23.5 57s-34.834 23 -57.501 23h-65v-127c0 -20 -6.33301 -36.167 -19 -48.5s-29 -18.5 -49 -18.5s-36.167 6.16699 -48.5 18.5
s-18.5 28.5 -18.5 48.5v578c0 20 6.16699 36.333 18.5 49s28.5 19 48.5 19s36.333 -6.33301 49 -19s19 -29 19 -49v-283l43 -1c22 -0.666992 41 6.83301 57 22.5s24 34.5 24 56.5c0 46 22.333 69 67 69c20 0 36.333 -6.16699 49 -18.5s19 -28.5 19 -48.5
c0 -60.667 -22 -112.334 -66 -155.001c58.667 -43.333 88 -101 88 -173v-118c0 -22.667 7.83301 -41.834 23.5 -57.501s34.834 -23.5 57.501 -23.5h4c20 0 36.333 -6.33301 49 -19s19 -29 19 -49s-6.33301 -36.167 -19 -48.5s-29 -18.5 -49 -18.5z" />
    <glyph glyph-name="l" unicode="l" horiz-adv-x="189" 
d="M189 636v-578c0 -20 -6.33301 -36.167 -19 -48.5s-29 -18.5 -49 -18.5s-36.167 6.16699 -48.5 18.5s-18.5 28.5 -18.5 48.5v578c0 20 6.16699 36.167 18.5 48.5s28.5 18.5 48.5 18.5c45.333 0 68 -22.333 68 -67z" />
    <glyph glyph-name="m" unicode="m" horiz-adv-x="766" 
d="M630 285c0 22 -7.83398 40.833 -23.501 56.5s-34.5 23.5 -56.5 23.5c-26.667 0 -48 -10.333 -64 -31v-276c0 -20 -6.33301 -36.167 -19 -48.5s-29 -18.5 -49 -18.5s-36.167 6.16699 -48.5 18.5s-18.5 28.5 -18.5 48.5v227c0 22 -8 40.833 -24 56.5s-35 23.5 -57 23.5
c-22.667 0 -41.834 -7.66699 -57.501 -23s-23.5 -34.333 -23.5 -57v-227c0 -20 -6.16699 -36.167 -18.5 -48.5s-28.5 -18.5 -48.5 -18.5s-36.333 6.16699 -49 18.5s-19 28.5 -19 48.5v227c0 60.667 20.833 111.667 62.5 153s92.834 62 153.501 62
c52.667 0 99.334 -17 140.001 -51c40 34 86.667 51 140 51c60.667 0 111.667 -20.667 153 -62s62 -92.333 62 -153v-298c0 -22.667 7.83301 -41.834 23.5 -57.501s34.834 -23.5 57.501 -23.5h4c20 0 36.333 -6.33301 49 -19s19 -29 19 -49s-6.33301 -36.167 -19 -48.5
s-29 -18.5 -49 -18.5h-4c-60.667 0 -111.834 20.833 -153.501 62.5s-62.5 92.834 -62.5 153.501v298z" />
    <glyph glyph-name="n" unicode="n" horiz-adv-x="486" 
d="M571 -229l-4.00293 0.00195312c-61.333 0 -112.666 20.667 -153.999 62s-62 92.666 -62 153.999v47l-1 251c0 22 -7.83301 40.833 -23.5 56.5s-34.5 23.5 -56.5 23.5c-22.667 0 -41.834 -7.66699 -57.501 -23s-23.5 -34.333 -23.5 -57v-227
c0 -20 -6.33301 -36.167 -19 -48.5s-29 -18.5 -49 -18.5s-36.167 6.16699 -48.5 18.5s-18.5 28.5 -18.5 48.5v227c0 60.667 20.833 111.667 62.5 153s92.834 62 153.501 62s111.834 -20.667 153.501 -62s62.5 -92.333 62.5 -153v-298
c0 -22.667 7.83301 -41.834 23.5 -57.501s34.834 -23.5 57.501 -23.5h4c20 0 36.333 -6.33301 49 -19s19 -29 19 -49s-6.33301 -36.167 -19 -48.5s-29 -18.5 -49 -18.5z" />
    <glyph glyph-name="o" unicode="o" horiz-adv-x="566" 
d="M309 500c72 0 132.667 -24.5 182 -73.5s74 -109.5 74 -181.5s-24.667 -132.667 -74 -182s-110 -74 -182 -74s-132.5 24.667 -181.5 74s-73.5 110 -73.5 182s24.5 132.5 73.5 181.5s109.5 73.5 181.5 73.5zM309 365c-33.333 0 -61.666 -11.667 -84.999 -35
s-35 -51.666 -35 -84.999s11.667 -61.833 35 -85.5s51.666 -35.5 84.999 -35.5s61.833 11.833 85.5 35.5s35.5 52.167 35.5 85.5s-11.833 61.666 -35.5 84.999s-52.167 35 -85.5 35z" />
    <glyph glyph-name="p" unicode="p" 
d="M309 124c33.333 0 61.832 11.833 85.499 35.5s35.5 52.167 35.5 85.5s-11.833 61.666 -35.5 84.999s-52.167 35 -85.5 35s-61.666 -11.667 -84.999 -35s-35 -51.666 -35 -84.999v-391c0 -20 -6.33301 -36.333 -19 -49s-29 -19 -49 -19s-36.167 6.33301 -48.5 19
s-18.5 29 -18.5 49v391c0 72 24.5 132.5 73.5 181.5s109.5 73.5 181.5 73.5s132.667 -24.5 182 -73.5s74 -109.5 74 -181.5s-24.667 -132.667 -74 -182s-110 -74 -182 -74c-20 0 -36.167 6.33301 -48.5 19s-18.5 29 -18.5 49s6.16699 36.167 18.5 48.5s28.5 18.5 48.5 18.5z
" />
    <glyph glyph-name="q" unicode="q" 
d="M309 -11c-72 0 -132.5 24.667 -181.5 74s-73.5 110 -73.5 182s24.5 132.5 73.5 181.5s109.5 73.5 181.5 73.5s132.667 -24.5 182 -73.5s74 -109.5 74 -181.5v-391c0 -20 -6.33301 -36.333 -19 -49s-29 -19 -49 -19s-36.167 6.33301 -48.5 19s-18.5 29 -18.5 49v391
c0 33.333 -11.833 61.666 -35.5 84.999s-52.167 35 -85.5 35s-61.666 -11.667 -84.999 -35s-35 -51.666 -35 -84.999s11.667 -61.833 35 -85.5s51.666 -35.5 84.999 -35.5c20 0 36.333 -6.16699 49 -18.5s19 -28.5 19 -48.5s-6.33301 -36.333 -19 -49s-29 -19 -49 -19z" />
    <glyph glyph-name="r" unicode="r" horiz-adv-x="337" 
d="M189 285l-0.000976562 -227c0 -20 -6.33301 -36.167 -19 -48.5s-29 -18.5 -49 -18.5s-36.167 6.16699 -48.5 18.5s-18.5 28.5 -18.5 48.5v227c0 60.667 20.833 111.667 62.5 153s92.834 62 153.501 62c19.333 0 35.333 -6.33301 48 -19s19 -28.667 19 -48
c0 -41.333 -23 -64 -69 -68c-22.667 -2 -41.5 -10.167 -56.5 -24.5s-22.5 -32.833 -22.5 -55.5z" />
    <glyph glyph-name="s" unicode="s" horiz-adv-x="446" 
d="M318 304l-0.998047 -116.001c-0.666992 -54.667 -19.834 -101 -57.501 -139s-83.834 -57 -138.501 -57c-20 0 -36.167 6.16699 -48.5 18.5s-18.5 28.5 -18.5 48.5s6.16699 36.333 18.5 49s28.5 19 48.5 19c17.333 0 31.833 5.83301 43.5 17.5s17.5 26.167 17.5 43.5v20
c0.666992 26.667 1 40.334 1 41.001v55c0 55.333 18.833 101.833 56.5 139.5s84.167 56.5 139.5 56.5c20 0 36.333 -6.16699 49 -18.5s19 -28.5 19 -48.5c0 -19.333 -6 -35 -18 -47s-27.833 -18.833 -47.5 -20.5s-35.167 -8.16699 -46.5 -19.5s-17 -25.333 -17 -42z" />
    <glyph glyph-name="t" unicode="t" horiz-adv-x="486" 
d="M485 207c0 -60.667 -20.6689 -111.832 -62.002 -153.499s-92.333 -62.5 -153 -62.5c-61.333 0 -112.666 20.667 -153.999 62s-62 92.666 -62 153.999v344c0 20 6.16699 36.333 18.5 49s28.5 19 48.5 19s36.333 -6.33301 49 -19s19 -29 19 -49v-53h229
c20 0 36.167 -6.16699 48.5 -18.5s18.5 -28.5 18.5 -48.5c0 -45.333 -22.333 -68 -67 -68h-229v-156c0 -22.667 7.83301 -41.834 23.5 -57.501s34.834 -23.5 57.501 -23.5s41.667 7.83301 57 23.5s23 34.834 23 57.501v9c0 19.333 6.5 35.333 19.5 48s29.167 19 48.5 19
s35.333 -6.33301 48 -19s19 -28.667 19 -48v-9z" />
    <glyph glyph-name="u" unicode="u" horiz-adv-x="486" 
d="M189 431l-0.00195312 -223.998c0 -22.667 7.83301 -41.834 23.5 -57.501s34.834 -23.5 57.501 -23.5s41.667 7.83301 57 23.5s23 34.834 23 57.501v226c0 20 6.33301 36.167 19 48.5s29 18.5 49 18.5s36.167 -6.16699 48.5 -18.5s18.5 -28.5 18.5 -48.5v-226
c0 -60.667 -20.667 -111.834 -62 -153.501s-92.333 -62.5 -153 -62.5c-61.333 0 -112.666 20.667 -153.999 62s-62 92.666 -62 153.999v224c0 20 6.16699 36.333 18.5 49s28.5 19 48.5 19s36.333 -6.33301 49 -19s19 -29 19 -49z" />
    <glyph glyph-name="v" unicode="v" horiz-adv-x="444" 
d="M165 457l82.002 -212l82 212c11.333 29.333 31.666 44 60.999 44c18.667 0 35 -6.33301 49 -19s21 -28.334 21 -47.001c0 -8.66699 -1.66699 -17.334 -5 -26.001l-145 -375c-14 -36 -35 -54 -63 -54s-49 18 -63 54l-145 375c-3.33301 8.66699 -5 17.334 -5 26.001
c0 18.667 7 34.334 21 47.001s30.333 19 49 19c29.333 0 49.666 -14.667 60.999 -44z" />
    <glyph glyph-name="w" unicode="w" horiz-adv-x="766" 
d="M486 159c16 -20.667 37.3311 -30.999 63.998 -30.999c22.667 0 41.667 7.83301 57 23.5s23 34.834 23 57.501v226c0 20 6.33301 36.167 19 48.5s29 18.5 49 18.5s36.167 -6.16699 48.5 -18.5s18.5 -28.5 18.5 -48.5v-226c0 -60.667 -20.667 -111.834 -62 -153.501
s-92.333 -62.5 -153 -62.5c-53.333 0 -100 17 -140 51c-40.667 -34 -87.334 -51 -140.001 -51c-61.333 0 -112.666 20.667 -153.999 62s-62 92.666 -62 153.999v226c0 44.667 22.667 67 68 67c20 0 36.167 -6.16699 48.5 -18.5s18.5 -28.5 18.5 -48.5v-226
c0 -22.667 7.83301 -41.834 23.5 -57.501s34.834 -23.5 57.501 -23.5s41.834 7.83301 57.501 23.5s23.5 34.834 23.5 57.501v226c0 20 6.16699 36.167 18.5 48.5s28.5 18.5 48.5 18.5c45.333 0 68 -22.333 68 -67v-276z" />
    <glyph glyph-name="x" unicode="x" horiz-adv-x="487" 
d="M485 58c0 -20 -6.16699 -36.166 -18.5 -48.499s-28.5 -18.5 -48.5 -18.5c-19.333 0 -35.5 6.33301 -48.5 19s-19.5 28.667 -19.5 48v26c0 22 -7.83301 41 -23.5 57s-34.5 24 -56.5 24c-22.667 0 -41.834 -7.83301 -57.501 -23.5s-23.5 -34.834 -23.5 -57.501v-26
c0 -20 -6.33301 -36.167 -19 -48.5s-29 -18.5 -49 -18.5s-36.167 6.16699 -48.5 18.5s-18.5 28.5 -18.5 48.5v26c0 64.667 24.333 118.667 73 162c-48.667 42.667 -73 96.334 -73 161.001v26c0 20 6.16699 36.167 18.5 48.5s28.5 18.5 48.5 18.5c45.333 0 68 -22.333 68 -67
v-26c0 -22.667 7.83301 -41.667 23.5 -57s34.834 -23 57.501 -23c22 0 40.833 7.83301 56.5 23.5s23.5 34.5 23.5 56.5v26c0 20 6.33301 36.167 19 48.5s29 18.5 49 18.5s36.167 -6.16699 48.5 -18.5s18.5 -28.5 18.5 -48.5v-26c0 -64.667 -24.333 -118.334 -73 -161.001
c48.667 -43.333 73 -97.333 73 -162v-26z" />
    <glyph glyph-name="y" unicode="y" horiz-adv-x="486" 
d="M270 -9c-61.333 0 -112.667 20.6689 -154 62.002s-62 92.666 -62 153.999v226c0 20 6.16699 36.167 18.5 48.5s28.5 18.5 48.5 18.5c45.333 0 68 -22.333 68 -67v-226c0 -22.667 7.83301 -41.834 23.5 -57.501s34.834 -23.5 57.501 -23.5s41.667 7.83301 57 23.5
s23 34.834 23 57.501v226c0 20 6.33301 36.167 19 48.5s29 18.5 49 18.5s36.167 -6.16699 48.5 -18.5s18.5 -28.5 18.5 -48.5v-446c0 -60.667 -20.833 -111.834 -62.5 -153.501s-92.834 -62.5 -153.501 -62.5h-4c-20 0 -36.333 6.16699 -49 18.5s-19 28.5 -19 48.5
s6.33301 36.333 19 49s29 19 49 19h4c22 0 41 8 57 24s24 35 24 57v19c-25.333 -10 -52 -15 -80 -15z" />
    <glyph glyph-name="z" unicode="z" horiz-adv-x="437" 
d="M121 500h278c48 0 72 -14.667 72 -44c0 -34 -30.667 -87.667 -92 -161l-147 -169h136c20 0 36.167 -6.33301 48.5 -19s18.5 -29 18.5 -49c0 -19.333 -6.33301 -35.333 -19 -48s-28.667 -19 -48 -19h-280c-48.667 0 -73 15 -73 45c0 34 30.667 87.333 92 160l148 169h-134
c-19.333 0 -35.333 6.5 -48 19.5s-19 29.167 -19 48.5c0 20 6.16699 36.167 18.5 48.5s28.5 18.5 48.5 18.5z" />
    <glyph glyph-name="braceleft" unicode="{" horiz-adv-x="381" 
d="M314 -209h-44c-60.667 0 -111.834 20.833 -153.501 62.5s-62.5 92.834 -62.5 153.501v595c0 60.667 20.833 111.834 62.5 153.501s92.834 62.5 153.501 62.5h44c20 0 36.167 -6.33301 48.5 -19s18.5 -29 18.5 -49s-6.16699 -36.167 -18.5 -48.5s-28.5 -18.5 -48.5 -18.5
h-44c-22.667 0 -41.834 -7.83301 -57.501 -23.5s-23.5 -34.834 -23.5 -57.501v-595c0 -22.667 7.83301 -41.834 23.5 -57.501s34.834 -23.5 57.501 -23.5h44c20 0 36.167 -6.33301 48.5 -19s18.5 -29 18.5 -49s-6.16699 -36.167 -18.5 -48.5s-28.5 -18.5 -48.5 -18.5z" />
    <glyph glyph-name="bar" unicode="|" horiz-adv-x="189" 
d="M189 738v-780c0 -20 -6.33301 -36.167 -19 -48.5s-29 -18.5 -49 -18.5s-36.167 6.16699 -48.5 18.5s-18.5 28.5 -18.5 48.5v780c0 20 6.16699 36.167 18.5 48.5s28.5 18.5 48.5 18.5s36.333 -6.16699 49 -18.5s19 -28.5 19 -48.5z" />
    <glyph glyph-name="braceright" unicode="}" horiz-adv-x="381" 
d="M121 -209h44c60.667 0 111.834 20.833 153.501 62.5s62.5 92.834 62.5 153.501v595c0 60 -21 111 -63 153s-93 63 -153 63h-44c-20 0 -36.333 -6.33301 -49 -19s-19 -29 -19 -49s6.33301 -36.167 19 -48.5s29 -18.5 49 -18.5h44c22 0 41 -8 57 -24s24 -35 24 -57v-595
c0 -22.667 -7.83301 -41.834 -23.5 -57.501s-34.834 -23.5 -57.501 -23.5h-44c-20 0 -36.333 -6.33301 -49 -19s-19 -29 -19 -49s6.33301 -36.167 19 -48.5s29 -18.5 49 -18.5z" />
    <glyph glyph-name="asciitilde" unicode="~" horiz-adv-x="393" 
d="M67 657c28 31.333 59.001 47.001 93.001 47.001c18 0 41 -6 69 -18l41 -19c2 0 3.33301 0.333008 4 1c14 16 30.333 24 49 24s35 -6.83301 49 -20.5s21 -29.834 21 -48.501c0 -16 -6.33301 -31 -19 -45c-28 -31.333 -58.667 -47 -92 -47c-16 0 -38.5 6.16699 -67.5 18.5
l-43.5 18.5c-1.33301 0 -2.33301 -0.333008 -3 -1c-14.667 -16 -31.334 -24 -50.001 -24c-18 0 -34 7 -48 21s-21 30 -21 48c0 16.667 6 31.667 18 45z" />
    <glyph glyph-name="exclamdown" unicode="&#xa1;" horiz-adv-x="190" 
d="M189 68c0 -20 -6.33301 -36.333 -19 -49s-29 -19 -49 -19s-36.167 6.33301 -48.5 19s-18.5 29 -18.5 49v356c0 20 6.16699 36.333 18.5 49s28.5 19 48.5 19s36.333 -6.33301 49 -19s19 -29 19 -49v-356zM121 705c-23.333 0 -43 -8 -59 -24s-24 -35.667 -24 -59
c0 -22.667 8.16699 -42 24.5 -58s35.833 -24 58.5 -24s42.167 8 58.5 24s24.5 35.333 24.5 58c0 23.333 -8 43 -24 59s-35.667 24 -59 24z" />
    <glyph glyph-name="cent" unicode="&#xa2;" horiz-adv-x="377" 
d="M309 467c-33.333 0 -61.667 -11.833 -85 -35.5s-35 -52.167 -35 -85.5s11.667 -61.666 35 -84.999s51.666 -35 84.999 -35c20 0 36.333 -6.33301 49 -19s19 -29 19 -49s-6.33301 -36.167 -19 -48.5s-29 -18.5 -49 -18.5c-71.333 0 -131.666 24.667 -180.999 74
s-74 109.666 -74 180.999c0 72 24.5 132.667 73.5 182s109.5 74 181.5 74c20 0 36.333 -6.33301 49 -19s19 -29 19 -49s-6.33301 -36.167 -19 -48.5s-29 -18.5 -49 -18.5zM239.999 -17c-14.667 0 -27.167 5 -37.5 15s-15.5 22.333 -15.5 37s5.16699 27.167 15.5 37.5
s22.833 15.5 37.5 15.5s27.167 -5.16699 37.5 -15.5s15.5 -22.833 15.5 -37.5s-5.16699 -27 -15.5 -37s-22.833 -15 -37.5 -15zM239.999 599c-14.667 0 -27.167 5.16699 -37.5 15.5s-15.5 22.833 -15.5 37.5s5.16699 27.167 15.5 37.5s22.833 15.5 37.5 15.5
s27.167 -5.16699 37.5 -15.5s15.5 -22.833 15.5 -37.5s-5.16699 -27.167 -15.5 -37.5s-22.833 -15.5 -37.5 -15.5z" />
    <glyph glyph-name="sterling" unicode="&#xa3;" horiz-adv-x="598" 
d="M347 343h-158v-208h193c22.667 0 41.667 7.83301 57 23.5s23 34.834 23 57.501v44c0 19.333 6.5 35.5 19.5 48.5s29.167 19.5 48.5 19.5c20 0 36.167 -6.33301 48.5 -19s18.5 -29 18.5 -49v-44c0 -60.667 -20.667 -111.834 -62 -153.501s-92.333 -62.5 -153 -62.5h-261
c-44.667 0 -67 24.667 -67 74v415c0 60.667 20.833 111.834 62.5 153.501s92.834 62.5 153.501 62.5h44c20 0 36.167 -6.33301 48.5 -19s18.5 -29 18.5 -49s-6.16699 -36.167 -18.5 -48.5s-28.5 -18.5 -48.5 -18.5h-44c-22.667 0 -41.834 -7.83301 -57.501 -23.5
s-23.5 -34.834 -23.5 -57.501v-11h158c20 0 36.333 -6.16699 49 -18.5s19 -28.5 19 -48.5s-6.33301 -36.333 -19 -49s-29 -19 -49 -19z" />
    <glyph glyph-name="currency" unicode="&#xa4;" horiz-adv-x="551" 
d="M115 319h9.99707c-0.666992 9.33301 -1 18.666 -1 27.999c0 10.667 0.333008 21.667 1 33h-10c-20 0 -36.167 6.16699 -48.5 18.5s-18.5 28.5 -18.5 48.5s6.16699 36.333 18.5 49s28.5 19 48.5 19h50c31.333 58.667 75.333 105 132 139s118.334 51 185.001 51
c20 0 36.333 -6.16699 49 -18.5s19 -28.5 19 -48.5s-6.33301 -36.333 -19 -49s-29 -19 -49 -19c-56 0 -105 -18.333 -147 -55h109c20 0 36.333 -6.33301 49 -19s19 -29 19 -49s-6.33301 -36.167 -19 -48.5s-29 -18.5 -49 -18.5h-183c-1.33301 -11.333 -2 -22.333 -2 -33
c0 -9.33301 0.666992 -18.666 2 -27.999h183c20 0 36.333 -6.16699 49 -18.5s19 -28.5 19 -48.5s-6.33301 -36.333 -19 -49s-29 -19 -49 -19h-114c42.667 -40 93.334 -60 152.001 -60c20 0 36.333 -6.33301 49 -19s19 -29 19 -49s-6.33301 -36.167 -19 -48.5
s-29 -18.5 -49 -18.5c-67.333 0 -129.666 17.5 -186.999 52.5s-101.333 82.5 -132 142.5h-48c-20 0 -36.333 6.33301 -49 19s-19 29 -19 49s6.33301 36.167 19 48.5s29 18.5 49 18.5z" />
    <glyph glyph-name="yen" unicode="&#xa5;" horiz-adv-x="541" 
d="M122 258h108.998v26h-109c-20 0 -36.167 6.33301 -48.5 19s-18.5 29 -18.5 49s6.16699 36.167 18.5 48.5s28.5 18.5 48.5 18.5h29c-46.667 42.667 -70 95.667 -70 159v154c0 20 6.16699 36.167 18.5 48.5s28.5 18.5 48.5 18.5c45.333 0 68 -22.333 68 -67v-154
c0 -22.667 7.83301 -41.834 23.5 -57.501s34.834 -23.5 57.501 -23.5s41.834 7.83301 57.501 23.5s23.5 34.834 23.5 57.501v155c0 20 6.16699 36.333 18.5 49s28.5 19 48.5 19s36.333 -6.33301 49 -19s19 -29 19 -49v-155c0 -63.333 -23.333 -116.333 -70 -159h32
c20 0 36.167 -6.16699 48.5 -18.5s18.5 -28.5 18.5 -48.5c0 -45.333 -22.333 -68 -67 -68h-109v-26h109c20 0 36.167 -6.16699 48.5 -18.5s18.5 -28.5 18.5 -48.5c0 -45.333 -22.333 -68 -67 -68h-109v-65c0 -20 -6.16699 -36.167 -18.5 -48.5s-28.5 -18.5 -48.5 -18.5
s-36.333 6.16699 -49 18.5s-19 28.5 -19 48.5v65h-109c-20 0 -36.167 6.33301 -48.5 19s-18.5 29 -18.5 49s6.16699 36.167 18.5 48.5s28.5 18.5 48.5 18.5z" />
    <glyph glyph-name="section" unicode="&#xa7;" horiz-adv-x="653" 
d="M342 326c0 -60.667 -20.833 -111.834 -62.5 -153.501s-92.834 -62.5 -153.501 -62.5h-7c-20 0 -36.167 6.16699 -48.5 18.5s-18.5 28.5 -18.5 48.5s6.16699 36.333 18.5 49s28.5 19 48.5 19h7c22.667 0 41.834 7.83301 57.501 23.5s23.5 34.834 23.5 57.501v163
c0 60.667 20.833 111.834 62.5 153.501s92.834 62.5 153.501 62.5h5c20 0 36.333 -6.33301 49 -19s19 -29 19 -49s-6.33301 -36.167 -19 -48.5s-29 -18.5 -49 -18.5h-5c-22.667 0 -41.834 -7.83301 -57.501 -23.5s-23.5 -34.834 -23.5 -57.501v-163zM499 207
c0 -60.667 -20.833 -111.834 -62.5 -153.501s-92.834 -62.5 -153.501 -62.5h-7c-20 0 -36.167 6.16699 -48.5 18.5s-18.5 28.5 -18.5 48.5s6.16699 36.333 18.5 49s28.5 19 48.5 19h7c22.667 0 41.834 7.83301 57.501 23.5s23.5 34.834 23.5 57.501v163
c0 60.667 20.833 111.834 62.5 153.501s92.834 62.5 153.501 62.5h5c44.667 0 67 -22.667 67 -68c0 -20 -6.16699 -36.167 -18.5 -48.5s-28.5 -18.5 -48.5 -18.5h-5c-22.667 0 -41.834 -7.83301 -57.501 -23.5s-23.5 -34.834 -23.5 -57.501v-163z" />
    <glyph glyph-name="dieresis" unicode="&#xa8;" horiz-adv-x="413" 
d="M137 705c23.333 0 43 8 59 24s24 35.667 24 59c0 22.667 -8.16699 42 -24.5 58s-35.833 24 -58.5 24s-42.167 -8 -58.5 -24s-24.5 -35.333 -24.5 -58c0 -23.333 8 -43 24 -59s35.667 -24 59 -24zM329 705c23.333 0 42.833 8 58.5 24s23.5 35.667 23.5 59
c0 22.667 -8 42 -24 58s-35.333 24 -58 24c-23.333 0 -43 -7.83301 -59 -23.5s-24 -35.167 -24 -58.5s8 -43 24 -59s35.667 -24 59 -24z" />
    <glyph glyph-name="copyright" unicode="&#xa9;" horiz-adv-x="769" 
d="M412 705c100 0 184.667 -34.667 254 -104s104 -154 104 -254s-34.667 -184.667 -104 -254s-154 -104 -254 -104s-184.667 34.667 -254 104s-104 154 -104 254s34.667 184.667 104 254s154 104 254 104zM412 570c-63.333 0 -116.333 -21.333 -159 -64
s-64 -95.667 -64 -159c0 -62.667 21.5 -115.5 64.5 -158.5s95.833 -64.5 158.5 -64.5s115.5 21.5 158.5 64.5s64.5 95.833 64.5 158.5s-21.5 115.5 -64.5 158.5s-95.833 64.5 -158.5 64.5zM423 168c-50 0 -92.333 17.332 -127 51.999s-52 77 -52 127s17.333 92.333 52 127
s77 52 127 52c22 0 33 -11.333 33 -34c0 -22 -11 -33 -33 -33c-31.333 0 -57.833 -10.833 -79.5 -32.5s-32.5 -48.167 -32.5 -79.5s10.833 -57.666 32.5 -78.999s48.167 -32 79.5 -32c22 0 33 -11.333 33 -34s-11 -34 -33 -34z" />
    <glyph glyph-name="ordfeminine" unicode="&#xaa;" horiz-adv-x="1103" 
d="M1119 520c22 -29.333 32.9971 -58.998 32.9971 -88.998c0 -37.333 -15.333 -70.333 -46 -99c3.33301 -9.33301 5 -18 5 -26c0 -30.667 -22 -49 -66 -55c0.666992 -5.33301 1 -10.666 1 -15.999c0 -48.667 -29 -78.667 -87 -90c-8.66699 -52.667 -39.667 -79 -93 -79
c-30 0 -62.333 7.66699 -97 23v-1c-2.66699 1.33301 -5.66699 3.33301 -9 6l-75 -56c-32 -23.333 -59.667 -35 -83 -35c-52.667 0 -119 39 -199 117v-1c-45.333 -20.667 -87.333 -31 -126 -31c-39.333 0 -74.333 10.667 -105 32c-23.333 16.667 -41.666 37.667 -54.999 63
c-12 21.333 -16.667 35.333 -14 42c-32 17.333 -56.667 37.666 -74 60.999c52 -0.666992 87 11.333 105 36c-43.333 0 -71 31 -83 93c66 35.333 109.667 71.666 131 108.999c-70 -6.66699 -115.667 19.333 -137 78c120.667 23.333 195.334 70.333 224.001 141
c21.333 74.667 59.333 141 114 199c70 74.667 137 88 201 40c18 2.66699 35.667 4 53 4c120.667 0 221.334 -58.333 302.001 -175c33.333 -48.667 61.333 -107 84 -175c5.33301 -20.667 8 -44 8 -70c0 -32.667 -4.66699 -64.334 -14 -95.001
c19.333 -13.333 36.333 -20 51 -20c28.667 0 45.667 23 51 69zM869.997 503.002c-8.66699 36 -22.668 70.999 -42.001 104.999c-46.667 81.333 -116 151.666 -208 210.999c-72.667 2.66699 -124.667 -26 -156 -86c-13.333 -25.333 -22 -55.666 -26 -90.999
c-0.666992 -26.667 -3.33398 -51.334 -8.00098 -74.001c8.66699 1.33301 18.334 2 29.001 2c50 0 83.667 -12.333 101 -37c-3.33301 -2.66699 -9 -4 -17 -4c-14.667 0 -34.667 4.33301 -60 13c-21.333 8.66699 -40 12.667 -56 12c-6 -22 -13 -41.333 -21 -58
c-18.667 -40.667 -40.667 -66 -66 -76c-4 -5.33301 -12.333 -11.666 -25 -18.999c16.667 -80 39 -137.667 67 -173c46 -57.333 79.333 -95.666 100 -114.999c42.667 -39.333 82.667 -59 120 -59s77 19.667 119 59c20.667 19.333 54 58 100 116
c26.667 32.667 42.334 74.667 47.001 126c1.33301 10.667 2 60 2 148zM843.996 536.001c-5.33301 -3.33301 -12.3301 -2.99902 -20.9971 1.00098c-14.667 8.66699 -28.667 13 -42 13c-14.667 0 -32 -3.66699 -52 -11c-24.667 -9.33301 -44.334 -14 -59.001 -14
c-8 0 -13.667 1.66699 -17 5c17.333 24 50.666 36 99.999 36c12 0 23.167 -0.833008 33.5 -2.5s19.166 -3.83398 26.499 -6.50098c18 -6 28.333 -13 31 -21zM821.999 446.002c-8 -8 -16.3311 -12.001 -24.998 -12.001c-8 0 -15.5 3.33301 -22.5 10s-15.833 11.667 -26.5 15
c2.66699 -5.33301 4 -11 4 -17c0 -9.33301 -3.33301 -17.333 -10 -24s-14.667 -10 -24 -10s-17.333 3.33301 -24 10s-10 14.667 -10 24c0 8 2.66699 15 8 21c-15.333 -6 -23 -14 -23 -24c0 -2.66699 0.666992 -5.66699 2 -9l-17 5c3.33301 8 7.66602 14.667 12.999 20
c12 14 27.333 21.333 46 22v-1c1.33301 0.666992 3 1 5 1c23.333 0.666992 42.333 -3 57 -11c4 -2.66699 8.33301 -4 13 -4c9.33301 0 17.333 4.33301 24 13c1.33301 -12 -4.33398 -19.333 -17.001 -22c8.66699 -7.33301 17.667 -9.66602 27 -6.99902zM565.001 434.001
l-17.0029 -5.00098c0.666992 2.66699 1 5.33398 1 8.00098c0 14.667 -10.667 23.334 -32 26.001c4.66699 -6 7 -12.667 7 -20c0 -9.33301 -3.16699 -17.166 -9.5 -23.499s-14.166 -9.5 -23.499 -9.5s-17.166 3.16699 -23.499 9.5s-9.5 14.166 -9.5 23.499
c0 6 1.33301 11.333 4 16c-7.33301 -2.66699 -13 -6.33398 -17 -11.001c-9.33301 -12 -19.333 -18 -30 -18c-6.66699 0 -13 2.33301 -19 7c5.33301 0 12.333 4.33301 21 13c-10.667 2 -16 7 -16 15c0 3.33301 1 6.66602 3 9.99902c12 -9.33301 20.667 -14 26 -14
c0.666992 0 6.5 3 17.5 9s26.167 8.66699 45.5 8c12.667 -1.33301 23.334 -3.66602 32.001 -6.99902c22.667 -8 36 -20.333 40 -37zM691.998 215h-175.999c20 38.667 49.333 58 88 58c39.333 0 68.666 -19.333 87.999 -58zM690.999 205
c-6 -20.667 -16.332 -38.001 -30.999 -52.001c-16.667 -15.333 -35 -23 -55 -23c-20.667 0 -38.834 7.33301 -54.501 22s-26.5 32.334 -32.5 53.001h10c19.333 -15.333 45 -23 77 -23s56 7.66699 72 23h14zM721 441.999c0 3.33301 -1.66699 5 -5 5s-5 -1.66699 -5 -5
s1.66699 -5 5 -5s5 1.66699 5 5zM718 427.999c0 6 -3 9 -9 9c-5.33301 0 -8 -3 -8 -9s2.66699 -9 8 -9c6 0 9 3 9 9zM495 441.999c0 3.33301 -2 5 -6 5c-3.33301 0 -5 -1.66699 -5 -5s1.66699 -5 5 -5c4 0 6 1.66699 6 5zM491 427.999c0 6 -3 9 -9 9c-5.33301 0 -8 -3 -8 -9
s2.66699 -9 8 -9c6 0 9 3 9 9z" />
    <glyph glyph-name="guillemotleft" unicode="&#xab;" horiz-adv-x="507" 
d="M173 399l-88 -88.998c-19.333 -19.333 -29 -38 -29 -56c0 -14.667 9.66699 -33.334 29 -56.001c4 -4.66699 33.333 -34.334 88 -89.001c14 -14 30 -21 48 -21s34 7 48 21s21 30 21 48c0 17.333 -7 33 -21 47l-50 50l50 50c14 14 21 29.667 21 47c0 18 -7 34 -21 48
s-30 21 -48 21s-34 -7 -48 -21zM389 399.002l-89 -88.999c-19.333 -19.333 -29 -38 -29 -56c0 -14.667 9.66699 -33.334 29 -56.001l89 -89c14 -14 29.667 -21 47 -21c18 0 34 7 48 21s21 30 21 48c0 17.333 -7 33 -21 47l-50 50l50 50c14 14 21 29.667 21 47
c0 18 -7 34 -21 48s-30 21 -48 21c-17.333 0 -33 -7 -47 -21z" />
    <glyph glyph-name="logicalnot" unicode="&#xac;" horiz-adv-x="1351" 
d="M682 400c0 -22.667 -7.5 -41.499 -22.5 -56.499s-33.833 -22.5 -56.5 -22.5c-22 0 -40.667 7.66699 -56 23s-23 34 -23 56c0 3.33301 0.333008 7.33301 1 12c-6.66699 -0.666992 -15 0.666016 -25 3.99902s-15 8 -15 14c0 2 1.66699 2.33301 5 1c4 -0.666992 8 -1 12 -1
c9.33301 0 19 2.66699 29 8c-24.667 8.66699 -37 17 -37 25c0 4 1.66699 9 5 15c4 -10 10.333 -15 19 -15c4 0 8.66699 1.33301 14 4c18.667 10 42.667 14.333 72 13c22 -0.666992 40.5 -8.66699 55.5 -24s22.5 -34 22.5 -56zM1309 497.001
c26 -27.333 39.0029 -55.332 39.0029 -83.999c0 -35.333 -18 -67 -54 -95c4 -8.66699 6 -16.667 6 -24c0 -29.333 -26.333 -47 -79 -53c0.666992 -5.33301 1 -10.666 1 -15.999c0 -46 -35 -74.333 -105 -85c-9.33301 -50 -46 -75 -110 -75c-36 0 -74.667 7 -116 21v-1
c-3.33301 2 -7 4 -11 6l-90 -54c-36.667 -21.333 -69.667 -32 -99 -32c-43.333 0 -98.333 20.333 -165 61c-54.667 33.333 -101.667 70 -141 110c-64 -45.333 -120.667 -68 -170 -68c-30.667 0 -56.334 9.33301 -77.001 28c-30.667 16 -46 36.333 -46 61
c0 7.33301 1 13.666 3 18.999c-38.667 16.667 -68.334 36 -89.001 58c62 0 104 11.667 126 35c-52 -0.666992 -85 28.666 -99 87.999c78.667 34 130.667 68.667 156 104c-83.333 -6 -137.666 19 -162.999 75c144 22 233.333 66.667 268 134c28 78 73.333 149.667 136 215
c55.333 57.333 108.666 86 159.999 86c26.667 0 53 -7.66699 79 -23c165.333 -2.66699 302.666 -67 411.999 -193c45.333 -52.667 83.333 -115 114 -187c6 -20 9 -42.333 9 -67c0 -31.333 -5.66699 -61.333 -17 -90c23.333 -13.333 44 -20 62 -20c34 0 54 22 60 66z
M1022 481.002c-11.333 46.667 -28.999 89.666 -52.999 128.999c-58 95.333 -143.333 165.333 -256 210c-128.667 -18.667 -201 -87.667 -217 -207c-16.667 -109.333 -61 -182.333 -133 -219c-6 -2.66699 -16 -6 -30 -10c13.333 -51.333 41.333 -102 84 -152
c36.667 -44.667 80 -83.5 130 -116.5s98 -49.5 144 -49.5c45.333 0 92.666 16.667 141.999 50c33.333 22.667 73.333 57.334 120 104.001c32 32 52.667 72 62 120c4.66699 24.667 7 71.667 7 141zM889.004 528.001c-2 -0.666992 -3.66699 -0.999023 -5 -0.999023
c-4 0 -8 1.33301 -12 4c-13.333 9.33301 -27 14 -41 14c-8.66699 0 -21.334 -1.83301 -38.001 -5.5s-29.667 -5.5 -39 -5.5c-10 0 -16.667 1.66699 -20 5c12.667 14.667 34 22 64 22c26.667 0 49.334 -4.33301 68.001 -13c14 -6.66699 21.667 -13.334 23 -20.001z
M897.004 431.002c3.33301 1.33301 5 0.999023 5 -1.00098c0 -6 -5 -10.667 -15 -14s-18.333 -4.66602 -25 -3.99902v-12c0 -22.667 -7.5 -41.5 -22.5 -56.5s-33.833 -22.5 -56.5 -22.5c-22 0 -40.667 7.66699 -56 23s-23 34 -23 56s7.66699 40.667 23 56s34 23.333 56 24
c29.333 1.33301 53.333 -3 72 -13c5.33301 -2.66699 10 -4 14 -4c8.66699 0 15 5 19 15c4 -6 6 -11 6 -15c0 -14 -12.333 -22.333 -37 -25c10 -5.33301 19.667 -8 29 -8c3.33301 0 7 0.333008 11 1zM669.004 545.001c-4 -4 -12.001 -6.00098 -24.001 -6.00098
c-8 0 -19.5 1.5 -34.5 4.5s-26.5 4.5 -34.5 4.5c-16 0 -31 -5.33301 -45 -16c-6 -4.66699 -11.667 -6 -17 -4c2 10.667 16.333 20.334 43 29.001c17.333 5.33301 35 8 53 8c26.667 0 46.334 -6.66699 59.001 -20zM786.003 207h-188.001c21.333 36.667 52.333 55 93 55
c42.667 0 74.334 -18.333 95.001 -55zM784.002 197c-6 -20 -17.5 -37.001 -34.5 -51.001s-35.833 -21 -56.5 -21c-21.333 0 -40.5 6.83301 -57.5 20.5s-28.833 30.834 -35.5 51.501h11c20.667 -14.667 48 -22 82 -22s59.667 7.33301 77 22h14zM786.002 446.999
c0 9.33301 -4.66699 14 -14 14c-10 0 -15 -4.66699 -15 -14s5 -14 15 -14c9.33301 0 14 4.66699 14 14zM740.002 432.999c0 5.33301 -2.66699 8 -8 8s-8 -2.66699 -8 -8s2.66699 -8 8 -8s8 2.66699 8 8zM783.002 397.999c0 17.333 -8.66699 26 -26 26s-26 -8.66699 -26 -26
s8.66699 -26 26 -26s26 8.66699 26 26zM603.002 446.999c0 9.33301 -4.66699 14 -14 14s-14 -4.66699 -14 -14s4.66699 -14 14 -14s14 4.66699 14 14zM557.002 432.999c0 5.33301 -2.66699 8 -8 8c-4.66699 0 -7 -2.66699 -7 -8s2.33301 -8 7 -8c5.33301 0 8 2.66699 8 8z
M601.002 397.999c0 17.333 -8.66699 26 -26 26s-26 -8.66699 -26 -26s8.66699 -26 26 -26s26 8.66699 26 26z" />
    <glyph glyph-name="registered" unicode="&#xae;" horiz-adv-x="769" 
d="M412 705c100 0 184.667 -34.667 254 -104s104 -154 104 -254s-34.667 -184.667 -104 -254s-154 -104 -254 -104s-184.667 34.667 -254 104s-104 154 -104 254s34.667 184.667 104 254s154 104 254 104zM412 570c-63.333 0 -116.333 -21.333 -159 -64
s-64 -95.667 -64 -159c0 -62.667 21.5 -115.5 64.5 -158.5s95.833 -64.5 158.5 -64.5s115.5 21.5 158.5 64.5s64.5 95.833 64.5 158.5s-21.5 115.5 -64.5 158.5s-95.833 64.5 -158.5 64.5zM443 276c1.33301 -26 14.667 -39 40 -39c22.667 0 34 -11.333 34 -34
s-11.333 -34 -34 -34c-29.333 0 -55 10.667 -77 32s-32.333 46.666 -31 75.999l1 28c0 8.66699 3.33301 16.5 10 23.5s14.334 10.5 23.001 10.5c16.667 0 31 5.83301 43 17.5s18 25.834 18 42.501s-6 30.834 -18 42.501s-26.333 17.5 -43 17.5
s-30.834 -5.83301 -42.501 -17.5s-17.5 -25.834 -17.5 -42.501v-196c0 -22 -11.333 -33 -34 -33c-22 0 -33 11 -33 33v196c0 35.333 12.333 65.5 37 90.5s54.667 37.5 90 37.5s65.5 -12.5 90.5 -37.5s37.5 -55.167 37.5 -90.5c0 -28.667 -8.66699 -54.5 -26 -77.5
s-40 -38.167 -68 -45.5z" />
    <glyph glyph-name="macron" unicode="&#xaf;" horiz-adv-x="571" 
d="M415 840c20 0 36.333 -6.16699 49 -18.5s19 -28.5 19 -48.5s-6.33301 -36.333 -19 -49s-29 -19 -49 -19h-223c-20 0 -36.333 6.33301 -49 19s-19 29 -19 49s6.33301 36.167 19 48.5s29 18.5 49 18.5h223z" />
    <glyph glyph-name="macron" unicode="&#x2c9;" horiz-adv-x="571" 
d="M415 840c20 0 36.333 -6.16699 49 -18.5s19 -28.5 19 -48.5s-6.33301 -36.333 -19 -49s-29 -19 -49 -19h-223c-20 0 -36.333 6.33301 -49 19s-19 29 -19 49s6.33301 36.167 19 48.5s29 18.5 49 18.5h223z" />
    <glyph glyph-name="degree" unicode="&#xb0;" horiz-adv-x="263" 
d="M262 601c0 28.667 -10.167 53.167 -30.5 73.5s-44.833 30.5 -73.5 30.5s-53.167 -10.167 -73.5 -30.5s-30.5 -44.833 -30.5 -73.5s10.167 -53.167 30.5 -73.5s44.833 -30.5 73.5 -30.5s53.167 10.167 73.5 30.5s30.5 44.833 30.5 73.5zM158 572
c-19.333 0 -29 9.66699 -29 29s9.66699 29 29 29s29 -9.66699 29 -29s-9.66699 -29 -29 -29z" />
    <glyph glyph-name="plusminus" unicode="&#xb1;" horiz-adv-x="438" 
d="M122 135h250c20 0 36.167 -6.16699 48.5 -18.5s18.5 -28.5 18.5 -48.5c0 -45.333 -22.333 -68 -67 -68h-250c-20 -0 -36.167 6.33301 -48.5 19s-18.5 29 -18.5 49s6.16699 36.167 18.5 48.5s28.5 18.5 48.5 18.5zM179 229v57h-57c-20 0 -36.167 6.33301 -48.5 19
s-18.5 29 -18.5 49s6.16699 36.167 18.5 48.5s28.5 18.5 48.5 18.5h57v57c0 44.667 22.667 67 68 67c20 0 36.167 -6.16699 48.5 -18.5s18.5 -28.5 18.5 -48.5v-57h57c20 0 36.167 -6.16699 48.5 -18.5s18.5 -28.5 18.5 -48.5c0 -45.333 -22.333 -68 -67 -68h-57v-57
c0 -20 -6.16699 -36.167 -18.5 -48.5s-28.5 -18.5 -48.5 -18.5s-36.333 6.16699 -49 18.5s-19 28.5 -19 48.5z" />
    <glyph glyph-name="acute" unicode="&#xb4;" horiz-adv-x="262" 
d="M101 929c14 34 39.333 51 76 51c11.333 0 22 -2 32 -6c34 -14 51 -39.667 51 -77c0 -10.667 -2 -21 -6 -31l-47 -114c-14 -34 -39.667 -51 -77 -51c-10 0 -20.333 2.33301 -31 7c-34 14.667 -51 40 -51 76c0 12 2 22.667 6 32z" />
    <glyph glyph-name="mu" unicode="&#xb5;" horiz-adv-x="679" 
d="M418 50c-41.333 -39.333 -90.6699 -58.999 -148.003 -58.999c-28.667 0 -55.667 5 -81 15v-169c0 -20 -6.16699 -36.167 -18.5 -48.5s-28.5 -18.5 -48.5 -18.5s-36.333 6.16699 -49 18.5s-19 28.5 -19 48.5v596c0 20 6.16699 36.167 18.5 48.5s28.5 18.5 48.5 18.5
c45.333 0 68 -22.333 68 -67v-226c0 -22.667 7.83301 -41.834 23.5 -57.501s34.834 -23.5 57.501 -23.5s41.667 7.83301 57 23.5s23 34.834 23 57.501v226c0 20 6.33301 36.167 19 48.5s29 18.5 49 18.5s36.167 -6.16699 48.5 -18.5s18.5 -28.5 18.5 -48.5v-226
c0 -22.667 7.83301 -41.834 23.5 -57.501s34.834 -23.5 57.501 -23.5h44c20 0 36.333 -6.33301 49 -19s19 -29 19 -49s-6.33301 -36.167 -19 -48.5s-29 -18.5 -49 -18.5h-44c-57.333 0 -106.666 19.667 -147.999 59z" />
    <glyph glyph-name="mu" unicode="&#x3bc;" horiz-adv-x="679" 
d="M418 50c-41.333 -39.333 -90.6699 -58.999 -148.003 -58.999c-28.667 0 -55.667 5 -81 15v-169c0 -20 -6.16699 -36.167 -18.5 -48.5s-28.5 -18.5 -48.5 -18.5s-36.333 6.16699 -49 18.5s-19 28.5 -19 48.5v596c0 20 6.16699 36.167 18.5 48.5s28.5 18.5 48.5 18.5
c45.333 0 68 -22.333 68 -67v-226c0 -22.667 7.83301 -41.834 23.5 -57.501s34.834 -23.5 57.501 -23.5s41.667 7.83301 57 23.5s23 34.834 23 57.501v226c0 20 6.33301 36.167 19 48.5s29 18.5 49 18.5s36.167 -6.16699 48.5 -18.5s18.5 -28.5 18.5 -48.5v-226
c0 -22.667 7.83301 -41.834 23.5 -57.501s34.834 -23.5 57.501 -23.5h44c20 0 36.333 -6.33301 49 -19s19 -29 19 -49s-6.33301 -36.167 -19 -48.5s-29 -18.5 -49 -18.5h-44c-57.333 0 -106.666 19.667 -147.999 59z" />
    <glyph glyph-name="paragraph" unicode="&#xb6;" horiz-adv-x="693" 
d="M311 570l-1 -0.000976562c-33.333 0 -61.833 -11.667 -85.5 -35s-35.5 -51.666 -35.5 -84.999s11.833 -61.833 35.5 -85.5s52.167 -35.5 85.5 -35.5h1v241zM310 193.999c-72 0 -132.667 24.667 -182 74s-74 110 -74 182s24.667 132.5 74 181.5s110 73.5 182 73.5h319
c19.333 0 35 -6.33301 47 -19s18 -28.667 18 -48v-580c0 -20 -6.33301 -36.167 -19 -48.5s-29 -18.5 -49 -18.5s-36.167 6.16699 -48.5 18.5s-18.5 28.5 -18.5 48.5v512h-113v-512c0 -20 -6.33301 -36.167 -19 -48.5s-29 -18.5 -49 -18.5s-36.167 6.16699 -48.5 18.5
s-18.5 28.5 -18.5 48.5v136h-1z" />
    <glyph glyph-name="periodcentered" unicode="&#xb7;" horiz-adv-x="190" 
d="M121 0c23.333 0 43 8 59 24s24 35.667 24 59c0 22.667 -8.16699 42 -24.5 58s-35.833 24 -58.5 24s-42.167 -8 -58.5 -24s-24.5 -35.333 -24.5 -58c0 -23.333 8 -43 24 -59s35.667 -24 59 -24z" />
    <glyph glyph-name="periodcentered" unicode="&#x2219;" horiz-adv-x="190" 
d="M121 0c23.333 0 43 8 59 24s24 35.667 24 59c0 22.667 -8.16699 42 -24.5 58s-35.833 24 -58.5 24s-42.167 -8 -58.5 -24s-24.5 -35.333 -24.5 -58c0 -23.333 8 -43 24 -59s35.667 -24 59 -24z" />
    <glyph glyph-name="cedilla" unicode="&#xb8;" horiz-adv-x="381" 
d="M54 -337h44c60.667 0 111.834 20.833 153.501 62.5s62.5 92.834 62.5 153.501v121h-135v-121c0 -22.667 -7.83301 -41.834 -23.5 -57.501s-34.834 -23.5 -57.501 -23.5h-44c-20 0 -36.333 -6.33301 -49 -19s-19 -29 -19 -49s6.33301 -36.167 19 -48.5s29 -18.5 49 -18.5z
" />
    <glyph glyph-name="ordmasculine" unicode="&#xba;" horiz-adv-x="1103" 
d="M1119 520c22 -29.333 32.9971 -58.998 32.9971 -88.998c0 -37.333 -15.333 -70.333 -46 -99c3.33301 -9.33301 5 -18 5 -26c0 -30.667 -22 -49 -66 -55c0.666992 -5.33301 1 -10.666 1 -15.999c0 -48.667 -29 -78.667 -87 -90c-8.66699 -52.667 -39.667 -79 -93 -79
c-30 0 -62.333 7.66699 -97 23v-1c-2.66699 1.33301 -5.66699 3.33301 -9 6l-75 -56c-32 -23.333 -59.667 -35 -83 -35c-52.667 0 -119 39 -199 117v-1c-45.333 -20.667 -87.333 -31 -126 -31c-39.333 0 -74.333 10.667 -105 32c-23.333 16.667 -41.666 37.667 -54.999 63
c-12 21.333 -16.667 35.333 -14 42c-32 17.333 -56.667 37.666 -74 60.999c52 -0.666992 87 11.333 105 36c-43.333 0 -71 31 -83 93c66 35.333 109.667 71.666 131 108.999c-70 -6.66699 -115.667 19.333 -137 78c120.667 23.333 195.334 70.333 224.001 141
c21.333 74.667 59.333 141 114 199c70 74.667 137 88 201 40c18 2.66699 35.667 4 53 4c120.667 0 221.334 -58.333 302.001 -175c33.333 -48.667 61.333 -107 84 -175c5.33301 -20.667 8 -44 8 -70c0 -32.667 -4.66699 -64.334 -14 -95.001
c19.333 -13.333 36.333 -20 51 -20c28.667 0 45.667 23 51 69zM869.997 503.002c-8.66699 36 -22.668 70.999 -42.001 104.999c-46.667 81.333 -116 151.666 -208 210.999c-72.667 2.66699 -124.667 -26 -156 -86c-13.333 -25.333 -22 -55.666 -26 -90.999
c-0.666992 -26.667 -3.33398 -51.334 -8.00098 -74.001c8.66699 1.33301 18.334 2 29.001 2c50 0 83.667 -12.333 101 -37c-3.33301 -2.66699 -9 -4 -17 -4c-14.667 0 -34.667 4.33301 -60 13c-21.333 8.66699 -40 12.667 -56 12c-6 -22 -13 -41.333 -21 -58
c-18.667 -40.667 -40.667 -66 -66 -76c-4 -5.33301 -12.333 -11.666 -25 -18.999c16.667 -80 39 -137.667 67 -173c46 -57.333 79.333 -95.666 100 -114.999c42.667 -39.333 82.667 -59 120 -59s77 19.667 119 59c20.667 19.333 54 58 100 116
c26.667 32.667 42.334 74.667 47.001 126c1.33301 10.667 2 60 2 148zM843.996 536.001c-5.33301 -3.33301 -12.3301 -2.99902 -20.9971 1.00098c-14.667 8.66699 -28.667 13 -42 13c-14.667 0 -32 -3.66699 -52 -11c-24.667 -9.33301 -44.334 -14 -59.001 -14
c-8 0 -13.667 1.66699 -17 5c17.333 24 50.666 36 99.999 36c12 0 23.167 -0.833008 33.5 -2.5s19.166 -3.83398 26.499 -6.50098c18 -6 28.333 -13 31 -21zM821.999 446.002c-8 -8 -16.3311 -12.001 -24.998 -12.001c-8 0 -15.5 3.33301 -22.5 10s-15.833 11.667 -26.5 15
c2.66699 -5.33301 4 -11 4 -17c0 -9.33301 -3.33301 -17.333 -10 -24s-14.667 -10 -24 -10s-17.333 3.33301 -24 10s-10 14.667 -10 24c0 8 2.66699 15 8 21c-15.333 -6 -23 -14 -23 -24c0 -2.66699 0.666992 -5.66699 2 -9l-17 5c3.33301 8 7.66602 14.667 12.999 20
c12 14 27.333 21.333 46 22v-1c1.33301 0.666992 3 1 5 1c23.333 0.666992 42.333 -3 57 -11c4 -2.66699 8.33301 -4 13 -4c9.33301 0 17.333 4.33301 24 13c1.33301 -12 -4.33398 -19.333 -17.001 -22c8.66699 -7.33301 17.667 -9.66602 27 -6.99902zM565.001 434.001
l-17.0029 -5.00098c0.666992 2.66699 1 5.33398 1 8.00098c0 14.667 -10.667 23.334 -32 26.001c4.66699 -6 7 -12.667 7 -20c0 -9.33301 -3.16699 -17.166 -9.5 -23.499s-14.166 -9.5 -23.499 -9.5s-17.166 3.16699 -23.499 9.5s-9.5 14.166 -9.5 23.499
c0 6 1.33301 11.333 4 16c-7.33301 -2.66699 -13 -6.33398 -17 -11.001c-9.33301 -12 -19.333 -18 -30 -18c-6.66699 0 -13 2.33301 -19 7c5.33301 0 12.333 4.33301 21 13c-10.667 2 -16 7 -16 15c0 3.33301 1 6.66602 3 9.99902c12 -9.33301 20.667 -14 26 -14
c0.666992 0 6.5 3 17.5 9s26.167 8.66699 45.5 8c12.667 -1.33301 23.334 -3.66602 32.001 -6.99902c22.667 -8 36 -20.333 40 -37zM691.998 215h-175.999c20 38.667 49.333 58 88 58c39.333 0 68.666 -19.333 87.999 -58zM690.999 205
c-6 -20.667 -16.332 -38.001 -30.999 -52.001c-16.667 -15.333 -35 -23 -55 -23c-20.667 0 -38.834 7.33301 -54.501 22s-26.5 32.334 -32.5 53.001h10c19.333 -15.333 45 -23 77 -23s56 7.66699 72 23h14zM721 441.999c0 3.33301 -1.66699 5 -5 5s-5 -1.66699 -5 -5
s1.66699 -5 5 -5s5 1.66699 5 5zM718 427.999c0 6 -3 9 -9 9c-5.33301 0 -8 -3 -8 -9s2.66699 -9 8 -9c6 0 9 3 9 9zM495 441.999c0 3.33301 -2 5 -6 5c-3.33301 0 -5 -1.66699 -5 -5s1.66699 -5 5 -5c4 0 6 1.66699 6 5zM491 427.999c0 6 -3 9 -9 9c-5.33301 0 -8 -3 -8 -9
s2.66699 -9 8 -9c6 0 9 3 9 9z" />
    <glyph glyph-name="guillemotright" unicode="&#xbb;" horiz-adv-x="507" 
d="M384 399l87.999 -89.001c20 -20 30 -38.667 30 -56c0 -14.667 -10 -33.334 -30 -56.001c-5.33301 -6 -34.666 -35.667 -87.999 -89c-14 -14 -29.667 -21 -47 -21c-18.667 0 -34.834 6.83301 -48.501 20.5s-20.5 29.834 -20.5 48.501c0 17.333 7 33 21 47l49 50l-49 50
c-14 14 -21 29.667 -21 47c0 18.667 6.83301 34.834 20.5 48.501s29.834 20.5 48.501 20.5c17.333 0 33 -7 47 -21zM168.999 398.999l87.999 -89.001c20 -20 30 -38.667 30 -56c0 -14.667 -10 -33.334 -30 -56.001c-5.33301 -6 -34.666 -35.667 -87.999 -89
c-14 -14 -29.667 -21 -47 -21c-18.667 0 -35 6.83301 -49 20.5s-21 29.834 -21 48.501c0 17.333 7 33 21 47l50 50l-50 50c-14 14 -21 29.667 -21 47c0 18.667 7 34.834 21 48.501s30.333 20.5 49 20.5c17.333 0 33 -7 47 -21z" />
    <glyph glyph-name="questiondown" unicode="&#xbf;" horiz-adv-x="500" 
d="M565 252c0 -72 -24.6641 -132.665 -73.9971 -181.998s-110 -74 -182 -74s-132.5 24.667 -181.5 74s-73.5 110 -73.5 182c0 71.333 24.667 131.666 74 180.999s109.666 74 180.999 74h79c20 0 36.333 -6.16699 49 -18.5s19 -28.5 19 -48.5s-6.16699 -36.333 -18.5 -49
s-28.5 -19 -48.5 -19h-80c-32.667 0 -60.834 -11.833 -84.501 -35.5s-35.5 -51.834 -35.5 -84.501c0 -33.333 11.667 -61.833 35 -85.5s51.666 -35.5 84.999 -35.5s61.833 11.833 85.5 35.5s35.5 52.167 35.5 85.5c0 19.333 6.33301 35.333 19 48s28.667 19 48 19
c20 0 36.333 -6.16699 49 -18.5s19 -28.5 19 -48.5zM379.003 540.002c23.333 0 42.833 8 58.5 24s23.5 35.667 23.5 59c0 22.667 -8 42 -24 58s-35.333 24 -58 24c-23.333 0 -43 -7.83301 -59 -23.5s-24 -35.167 -24 -58.5s8 -43 24 -59s35.667 -24 59 -24z" />
    <glyph glyph-name="Agrave" unicode="&#xc0;" 
d="M650 -229h-5.00098c-60.667 0 -111.667 20.833 -153 62.5s-62 92.834 -62 153.501v237c-38 -20 -78.333 -30 -121 -30c-20 0 -36.167 6.33301 -48.5 19s-18.5 29 -18.5 49s6.16699 36.167 18.5 48.5s28.5 18.5 48.5 18.5c33.333 0 61.833 11.833 85.5 35.5
s35.5 52.167 35.5 85.5s-11.833 61.666 -35.5 84.999s-52.167 35 -85.5 35s-61.666 -11.667 -84.999 -35s-35 -51.666 -35 -84.999v-392c0 -20 -6.33301 -36.167 -19 -48.5s-29 -18.5 -49 -18.5s-36.167 6.16699 -48.5 18.5s-18.5 28.5 -18.5 48.5v392
c0 72 24.5 132.5 73.5 181.5s109.5 73.5 181.5 73.5s132.667 -24.5 182 -73.5s74 -109.5 74 -181.5v-463c0 -22.667 7.66699 -41.834 23 -57.501s34.333 -23.5 57 -23.5h5c20 0 36.167 -6.33301 48.5 -19s18.5 -29 18.5 -49c0 -19.333 -6.33301 -35.333 -19 -48
s-28.667 -19 -48 -19zM326.999 979c-14 34 -39.668 51 -77.001 51c-10.667 0 -21 -2 -31 -6c-34 -14 -51 -39.667 -51 -77c0 -10.667 2 -21 6 -31l47 -114c14 -34 39.333 -51 76 -51c10.667 0 21.334 2.33301 32.001 7c34 14.667 51 40 51 76c0 12 -2 22.667 -6 32z" />
    <glyph glyph-name="Aacute" unicode="&#xc1;" 
d="M650 -229h-5.00098c-60.667 0 -111.667 20.833 -153 62.5s-62 92.834 -62 153.501v237c-38 -20 -78.333 -30 -121 -30c-20 0 -36.167 6.33301 -48.5 19s-18.5 29 -18.5 49s6.16699 36.167 18.5 48.5s28.5 18.5 48.5 18.5c33.333 0 61.833 11.833 85.5 35.5
s35.5 52.167 35.5 85.5s-11.833 61.666 -35.5 84.999s-52.167 35 -85.5 35s-61.666 -11.667 -84.999 -35s-35 -51.666 -35 -84.999v-392c0 -20 -6.33301 -36.167 -19 -48.5s-29 -18.5 -49 -18.5s-36.167 6.16699 -48.5 18.5s-18.5 28.5 -18.5 48.5v392
c0 72 24.5 132.5 73.5 181.5s109.5 73.5 181.5 73.5s132.667 -24.5 182 -73.5s74 -109.5 74 -181.5v-463c0 -22.667 7.66699 -41.834 23 -57.501s34.333 -23.5 57 -23.5h5c20 0 36.167 -6.33301 48.5 -19s18.5 -29 18.5 -49c0 -19.333 -6.33301 -35.333 -19 -48
s-28.667 -19 -48 -19zM260.999 979c14 34 39.333 51 76 51c11.333 0 22 -2 32 -6c34 -14 51 -39.667 51 -77c0 -10.667 -2 -21 -6 -31l-47 -114c-14 -34 -39.667 -51 -77 -51c-10 0 -20.333 2.33301 -31 7c-34 14.667 -51 40 -51 76c0 12 2 22.667 6 32z" />
    <glyph glyph-name="Acircumflex" unicode="&#xc2;" 
d="M650 -229h-5.00098c-60.667 0 -111.667 20.833 -153 62.5s-62 92.834 -62 153.501v237c-38 -20 -78.333 -30 -121 -30c-20 0 -36.167 6.33301 -48.5 19s-18.5 29 -18.5 49s6.16699 36.167 18.5 48.5s28.5 18.5 48.5 18.5c33.333 0 61.833 11.833 85.5 35.5
s35.5 52.167 35.5 85.5s-11.833 61.666 -35.5 84.999s-52.167 35 -85.5 35s-61.666 -11.667 -84.999 -35s-35 -51.666 -35 -84.999v-392c0 -20 -6.33301 -36.167 -19 -48.5s-29 -18.5 -49 -18.5s-36.167 6.16699 -48.5 18.5s-18.5 28.5 -18.5 48.5v392
c0 72 24.5 132.5 73.5 181.5s109.5 73.5 181.5 73.5s132.667 -24.5 182 -73.5s74 -109.5 74 -181.5v-463c0 -22.667 7.66699 -41.834 23 -57.501s34.333 -23.5 57 -23.5h5c20 0 36.167 -6.33301 48.5 -19s18.5 -29 18.5 -49c0 -19.333 -6.33301 -35.333 -19 -48
s-28.667 -19 -48 -19zM467.999 871c-50.667 50 -80.668 79.333 -90.001 88c-22 20 -40.667 30 -56 30c-14 0 -32.333 -10 -55 -30c-11.333 -10 -41.333 -39.333 -90 -88c-14 -14 -21 -29.667 -21 -47c0 -18.667 6.83301 -34.834 20.5 -48.501s29.834 -20.5 48.501 -20.5
c17.333 0 33 7 47 21l50 49l50 -49c14 -14 29.667 -21 47 -21c18.667 0 35 6.83301 49 20.5s21 29.834 21 48.501c0 17.333 -7 33 -21 47z" />
    <glyph glyph-name="Atilde" unicode="&#xc3;" 
d="M650 -229h-5.00098c-60.667 0 -111.667 20.833 -153 62.5s-62 92.834 -62 153.501v237c-38 -20 -78.333 -30 -121 -30c-20 0 -36.167 6.33301 -48.5 19s-18.5 29 -18.5 49s6.16699 36.167 18.5 48.5s28.5 18.5 48.5 18.5c33.333 0 61.833 11.833 85.5 35.5
s35.5 52.167 35.5 85.5s-11.833 61.666 -35.5 84.999s-52.167 35 -85.5 35s-61.666 -11.667 -84.999 -35s-35 -51.666 -35 -84.999v-392c0 -20 -6.33301 -36.167 -19 -48.5s-29 -18.5 -49 -18.5s-36.167 6.16699 -48.5 18.5s-18.5 28.5 -18.5 48.5v392
c0 72 24.5 132.5 73.5 181.5s109.5 73.5 181.5 73.5s132.667 -24.5 182 -73.5s74 -109.5 74 -181.5v-463c0 -22.667 7.66699 -41.834 23 -57.501s34.333 -23.5 57 -23.5h5c20 0 36.167 -6.33301 48.5 -19s18.5 -29 18.5 -49c0 -19.333 -6.33301 -35.333 -19 -48
s-28.667 -19 -48 -19zM156.999 887c28 31.333 59.001 47.001 93.001 47.001c18 0 41 -6 69 -18l41 -19c2 0 3.33301 0.333008 4 1c14 16 30.333 24 49 24s35 -6.83301 49 -20.5s21 -29.834 21 -48.501c0 -16 -6.33301 -31 -19 -45c-28 -31.333 -58.667 -47 -92 -47
c-16 0 -38.5 6.16699 -67.5 18.5l-43.5 18.5c-1.33301 0 -2.33301 -0.333008 -3 -1c-14.667 -16 -31.334 -24 -50.001 -24c-18 0 -34 7 -48 21s-21 30 -21 48c0 16.667 6 31.667 18 45z" />
    <glyph glyph-name="Adieresis" unicode="&#xc4;" 
d="M650 -229h-5.00098c-60.667 0 -111.667 20.833 -153 62.5s-62 92.834 -62 153.501v237c-38 -20 -78.333 -30 -121 -30c-20 0 -36.167 6.33301 -48.5 19s-18.5 29 -18.5 49s6.16699 36.167 18.5 48.5s28.5 18.5 48.5 18.5c33.333 0 61.833 11.833 85.5 35.5
s35.5 52.167 35.5 85.5s-11.833 61.666 -35.5 84.999s-52.167 35 -85.5 35s-61.666 -11.667 -84.999 -35s-35 -51.666 -35 -84.999v-392c0 -20 -6.33301 -36.167 -19 -48.5s-29 -18.5 -49 -18.5s-36.167 6.16699 -48.5 18.5s-18.5 28.5 -18.5 48.5v392
c0 72 24.5 132.5 73.5 181.5s109.5 73.5 181.5 73.5s132.667 -24.5 182 -73.5s74 -109.5 74 -181.5v-463c0 -22.667 7.66699 -41.834 23 -57.501s34.333 -23.5 57 -23.5h5c20 0 36.167 -6.33301 48.5 -19s18.5 -29 18.5 -49c0 -19.333 -6.33301 -35.333 -19 -48
s-28.667 -19 -48 -19zM216.999 765c23.333 0 43 8 59 24s24 35.667 24 59c0 22.667 -8.16699 42 -24.5 58s-35.833 24 -58.5 24s-42.167 -8 -58.5 -24s-24.5 -35.333 -24.5 -58c0 -23.333 8 -43 24 -59s35.667 -24 59 -24zM408.999 765c23.333 0 42.833 8 58.5 24
s23.5 35.667 23.5 59c0 22.667 -8 42 -24 58s-35.333 24 -58 24c-23.333 0 -43 -7.83301 -59 -23.5s-24 -35.167 -24 -58.5s8 -43 24 -59s35.667 -24 59 -24z" />
    <glyph glyph-name="Aring" unicode="&#xc5;" 
d="M650 -229h-5.00098c-60.667 0 -111.667 20.833 -153 62.5s-62 92.834 -62 153.501v237c-38 -20 -78.333 -30 -121 -30c-20 0 -36.167 6.33301 -48.5 19s-18.5 29 -18.5 49s6.16699 36.167 18.5 48.5s28.5 18.5 48.5 18.5c33.333 0 61.833 11.833 85.5 35.5
s35.5 52.167 35.5 85.5s-11.833 61.666 -35.5 84.999s-52.167 35 -85.5 35s-61.666 -11.667 -84.999 -35s-35 -51.666 -35 -84.999v-392c0 -20 -6.33301 -36.167 -19 -48.5s-29 -18.5 -49 -18.5s-36.167 6.16699 -48.5 18.5s-18.5 28.5 -18.5 48.5v392
c0 72 24.5 132.5 73.5 181.5s109.5 73.5 181.5 73.5s132.667 -24.5 182 -73.5s74 -109.5 74 -181.5v-463c0 -22.667 7.66699 -41.834 23 -57.501s34.333 -23.5 57 -23.5h5c20 0 36.167 -6.33301 48.5 -19s18.5 -29 18.5 -49c0 -19.333 -6.33301 -35.333 -19 -48
s-28.667 -19 -48 -19zM401.999 861c0 28.667 -10.167 53.167 -30.5 73.5s-44.833 30.5 -73.5 30.5s-53.167 -10.167 -73.5 -30.5s-30.5 -44.833 -30.5 -73.5s10.167 -53.167 30.5 -73.5s44.833 -30.5 73.5 -30.5s53.167 10.167 73.5 30.5s30.5 44.833 30.5 73.5z
M297.999 832c-19.333 0 -29 9.66699 -29 29s9.66699 29 29 29s29 -9.66699 29 -29s-9.66699 -29 -29 -29z" />
    <glyph glyph-name="AE" unicode="&#xc6;" horiz-adv-x="855" 
d="M788 -11c-83.333 0 -157.668 26 -223.001 78v-67c-12.667 0.666992 -57.667 0.666992 -135 0v224c-38 -20 -78.333 -30 -121 -30c-20 0 -36.167 6.33301 -48.5 19s-18.5 29 -18.5 49s6.16699 36.167 18.5 48.5s28.5 18.5 48.5 18.5c33.333 0 61.833 11.833 85.5 35.5
s35.5 52.167 35.5 85.5s-11.833 61.666 -35.5 84.999s-52.167 35 -85.5 35s-61.666 -11.667 -84.999 -35s-35 -51.666 -35 -84.999v-392c0 -20 -6.33301 -36.167 -19 -48.5s-29 -18.5 -49 -18.5s-36.167 6.16699 -48.5 18.5s-18.5 28.5 -18.5 48.5v392
c0 72 24.5 132.5 73.5 181.5s109.5 73.5 181.5 73.5c92 0 163.667 -38.667 215 -116c70.667 77.333 158.667 116 264 116c20 0 36.333 -6.16699 49 -18.5s19 -28.5 19 -48.5s-6.33301 -36.333 -19 -49s-29 -19 -49 -19c-48 0 -91.333 -13.833 -130 -41.5
s-65.667 -64.167 -81 -109.5h211c20 0 36.333 -6.16699 49 -18.5s19 -28.5 19 -48.5s-6.33301 -36.333 -19 -49s-29 -19 -49 -19h-214c14 -47.333 40.833 -85.833 80.5 -115.5s84.167 -44.5 133.5 -44.5c20 0 36.333 -6.33301 49 -19s19 -29 19 -49
s-6.33301 -36.167 -19 -48.5s-29 -18.5 -49 -18.5z" />
    <glyph glyph-name="Ccedilla" unicode="&#xc7;" horiz-adv-x="479" 
d="M412 -11c-100 0 -184.667 34.667 -254 104s-104 154 -104 254s34.667 184.667 104 254s154 104 254 104c20 0 36.333 -6.16699 49 -18.5s19 -28.5 19 -48.5s-6.33301 -36.333 -19 -49s-29 -19 -49 -19c-62.667 0 -115.5 -21.5 -158.5 -64.5s-64.5 -95.833 -64.5 -158.5
s21.5 -115.5 64.5 -158.5s95.833 -64.5 158.5 -64.5c20 0 36.333 -6.33301 49 -19s19 -29 19 -49s-6.33301 -36.167 -19 -48.5s-29 -18.5 -49 -18.5zM304 -201c22.667 0 42 8.16699 58 24.5s24 35.833 24 58.5s-8 42.167 -24 58.5s-35.333 24.5 -58 24.5
s-42.167 -8.16699 -58.5 -24.5s-24.5 -35.833 -24.5 -58.5s8.16699 -42.167 24.5 -58.5s35.833 -24.5 58.5 -24.5z" />
    <glyph glyph-name="Egrave" unicode="&#xc8;" horiz-adv-x="476" 
d="M412 -11c-100 0 -184.667 34.667 -254 104s-104 154 -104 254s34.667 184.667 104 254s154 104 254 104c20 0 36.333 -6.16699 49 -18.5s19 -28.5 19 -48.5s-6.33301 -36.333 -19 -49s-29 -19 -49 -19c-48 0 -91.333 -13.833 -130 -41.5s-65.667 -64.167 -81 -109.5h211
c20 0 36.333 -6.16699 49 -18.5s19 -28.5 19 -48.5s-6.33301 -36.333 -19 -49s-29 -19 -49 -19h-214c14 -47.333 40.833 -85.833 80.5 -115.5s84.167 -44.5 133.5 -44.5c20 0 36.333 -6.33301 49 -19s19 -29 19 -49s-6.33301 -36.167 -19 -48.5s-29 -18.5 -49 -18.5z
M327 979c-14 34 -39.668 51 -77.001 51c-10.667 0 -21 -2 -31 -6c-34 -14 -51 -39.667 -51 -77c0 -10.667 2 -21 6 -31l47 -114c14 -34 39.333 -51 76 -51c10.667 0 21.334 2.33301 32.001 7c34 14.667 51 40 51 76c0 12 -2 22.667 -6 32z" />
    <glyph glyph-name="Eacute" unicode="&#xc9;" horiz-adv-x="476" 
d="M412 -11c-100 0 -184.667 34.667 -254 104s-104 154 -104 254s34.667 184.667 104 254s154 104 254 104c20 0 36.333 -6.16699 49 -18.5s19 -28.5 19 -48.5s-6.33301 -36.333 -19 -49s-29 -19 -49 -19c-48 0 -91.333 -13.833 -130 -41.5s-65.667 -64.167 -81 -109.5h211
c20 0 36.333 -6.16699 49 -18.5s19 -28.5 19 -48.5s-6.33301 -36.333 -19 -49s-29 -19 -49 -19h-214c14 -47.333 40.833 -85.833 80.5 -115.5s84.167 -44.5 133.5 -44.5c20 0 36.333 -6.33301 49 -19s19 -29 19 -49s-6.33301 -36.167 -19 -48.5s-29 -18.5 -49 -18.5z
M241 979c14 34 39.333 51 76 51c11.333 0 22 -2 32 -6c34 -14 51 -39.667 51 -77c0 -10.667 -2 -21 -6 -31l-47 -114c-14 -34 -39.667 -51 -77 -51c-10 0 -20.333 2.33301 -31 7c-34 14.667 -51 40 -51 76c0 12 2 22.667 6 32z" />
    <glyph glyph-name="Ecircumflex" unicode="&#xca;" horiz-adv-x="476" 
d="M412 -11c-100 0 -184.667 34.667 -254 104s-104 154 -104 254s34.667 184.667 104 254s154 104 254 104c20 0 36.333 -6.16699 49 -18.5s19 -28.5 19 -48.5s-6.33301 -36.333 -19 -49s-29 -19 -49 -19c-48 0 -91.333 -13.833 -130 -41.5s-65.667 -64.167 -81 -109.5h211
c20 0 36.333 -6.16699 49 -18.5s19 -28.5 19 -48.5s-6.33301 -36.333 -19 -49s-29 -19 -49 -19h-214c14 -47.333 40.833 -85.833 80.5 -115.5s84.167 -44.5 133.5 -44.5c20 0 36.333 -6.33301 49 -19s19 -29 19 -49s-6.33301 -36.167 -19 -48.5s-29 -18.5 -49 -18.5z
M458 871c-50.667 50 -80.668 79.333 -90.001 88c-22 20 -40.667 30 -56 30c-14 0 -32.333 -10 -55 -30c-11.333 -10 -41.333 -39.333 -90 -88c-14 -14 -21 -29.667 -21 -47c0 -18.667 6.83301 -34.834 20.5 -48.501s29.834 -20.5 48.501 -20.5c17.333 0 33 7 47 21l50 49
l50 -49c14 -14 29.667 -21 47 -21c18.667 0 35 6.83301 49 20.5s21 29.834 21 48.501c0 17.333 -7 33 -21 47z" />
    <glyph glyph-name="Edieresis" unicode="&#xcb;" horiz-adv-x="476" 
d="M412 -11c-100 0 -184.667 34.667 -254 104s-104 154 -104 254s34.667 184.667 104 254s154 104 254 104c20 0 36.333 -6.16699 49 -18.5s19 -28.5 19 -48.5s-6.33301 -36.333 -19 -49s-29 -19 -49 -19c-48 0 -91.333 -13.833 -130 -41.5s-65.667 -64.167 -81 -109.5h211
c20 0 36.333 -6.16699 49 -18.5s19 -28.5 19 -48.5s-6.33301 -36.333 -19 -49s-29 -19 -49 -19h-214c14 -47.333 40.833 -85.833 80.5 -115.5s84.167 -44.5 133.5 -44.5c20 0 36.333 -6.33301 49 -19s19 -29 19 -49s-6.33301 -36.167 -19 -48.5s-29 -18.5 -49 -18.5z
M217 765c23.333 0 43 8 59 24s24 35.667 24 59c0 22.667 -8.16699 42 -24.5 58s-35.833 24 -58.5 24s-42.167 -8 -58.5 -24s-24.5 -35.333 -24.5 -58c0 -23.333 8 -43 24 -59s35.667 -24 59 -24zM409 765c23.333 0 42.833 8 58.5 24s23.5 35.667 23.5 59
c0 22.667 -8 42 -24 58s-35.333 24 -58 24c-23.333 0 -43 -7.83301 -59 -23.5s-24 -35.167 -24 -58.5s8 -43 24 -59s35.667 -24 59 -24z" />
    <glyph glyph-name="Igrave" unicode="&#xcc;" horiz-adv-x="189" 
d="M189 638v-580c0 -20 -6.33301 -36.167 -19 -48.5s-29 -18.5 -49 -18.5s-36.167 6.16699 -48.5 18.5s-18.5 28.5 -18.5 48.5v580c0 20 6.16699 36.167 18.5 48.5s28.5 18.5 48.5 18.5s36.333 -6.16699 49 -18.5s19 -28.5 19 -48.5zM157 979c-14 34 -39.668 51 -77.001 51
c-10.667 0 -21 -2 -31 -6c-34 -14 -51 -39.667 -51 -77c0 -10.667 2 -21 6 -31l47 -114c14 -34 39.333 -51 76 -51c10.667 0 21.334 2.33301 32.001 7c34 14.667 51 40 51 76c0 12 -2 22.667 -6 32z" />
    <glyph glyph-name="Iacute" unicode="&#xcd;" horiz-adv-x="189" 
d="M189 638v-580c0 -20 -6.33301 -36.167 -19 -48.5s-29 -18.5 -49 -18.5s-36.167 6.16699 -48.5 18.5s-18.5 28.5 -18.5 48.5v580c0 20 6.16699 36.167 18.5 48.5s28.5 18.5 48.5 18.5s36.333 -6.16699 49 -18.5s19 -28.5 19 -48.5zM61 979c14 34 39.333 51 76 51
c11.333 0 22 -2 32 -6c34 -14 51 -39.667 51 -77c0 -10.667 -2 -21 -6 -31l-47 -114c-14 -34 -39.667 -51 -77 -51c-10 0 -20.333 2.33301 -31 7c-34 14.667 -51 40 -51 76c0 12 2 22.667 6 32z" />
    <glyph glyph-name="Icircumflex" unicode="&#xce;" horiz-adv-x="189" 
d="M189 638v-580c0 -20 -6.33301 -36.167 -19 -48.5s-29 -18.5 -49 -18.5s-36.167 6.16699 -48.5 18.5s-18.5 28.5 -18.5 48.5v580c0 20 6.16699 36.167 18.5 48.5s28.5 18.5 48.5 18.5s36.333 -6.16699 49 -18.5s19 -28.5 19 -48.5zM268 871
c-50.667 50 -80.668 79.333 -90.001 88c-22 20 -40.667 30 -56 30c-14 0 -32.333 -10 -55 -30c-11.333 -10 -41.333 -39.333 -90 -88c-14 -14 -21 -29.667 -21 -47c0 -18.667 6.83301 -34.834 20.5 -48.501s29.834 -20.5 48.501 -20.5c17.333 0 33 7 47 21l50 49l50 -49
c14 -14 29.667 -21 47 -21c18.667 0 35 6.83301 49 20.5s21 29.834 21 48.501c0 17.333 -7 33 -21 47z" />
    <glyph glyph-name="Idieresis" unicode="&#xcf;" horiz-adv-x="189" 
d="M189 638v-580c0 -20 -6.33301 -36.167 -19 -48.5s-29 -18.5 -49 -18.5s-36.167 6.16699 -48.5 18.5s-18.5 28.5 -18.5 48.5v580c0 20 6.16699 36.167 18.5 48.5s28.5 18.5 48.5 18.5s36.333 -6.16699 49 -18.5s19 -28.5 19 -48.5zM17 765c23.333 0 43 8 59 24
s24 35.667 24 59c0 22.667 -8.16699 42 -24.5 58s-35.833 24 -58.5 24s-42.167 -8 -58.5 -24s-24.5 -35.333 -24.5 -58c0 -23.333 8 -43 24 -59s35.667 -24 59 -24zM209 765c23.333 0 42.833 8 58.5 24s23.5 35.667 23.5 59c0 22.667 -8 42 -24 58s-35.333 24 -58 24
c-23.333 0 -43 -7.83301 -59 -23.5s-24 -35.167 -24 -58.5s8 -43 24 -59s35.667 -24 59 -24z" />
    <glyph glyph-name="Eth" unicode="&#xd0;" horiz-adv-x="1103" 
d="M1119 520c22 -29.333 32.9971 -58.998 32.9971 -88.998c0 -37.333 -15.333 -70.333 -46 -99c3.33301 -9.33301 5 -18 5 -26c0 -30.667 -22 -49 -66 -55c0.666992 -5.33301 1 -10.666 1 -15.999c0 -48.667 -29 -78.667 -87 -90c-8.66699 -52.667 -39.667 -79 -93 -79
c-30 0 -62.333 7.66699 -97 23v-1c-2.66699 1.33301 -5.66699 3.33301 -9 6l-75 -56c-32 -23.333 -59.667 -35 -83 -35c-52.667 0 -119 39 -199 117v-1c-45.333 -20.667 -87.333 -31 -126 -31c-39.333 0 -74.333 10.667 -105 32c-23.333 16.667 -41.666 37.667 -54.999 63
c-12 21.333 -16.667 35.333 -14 42c-32 17.333 -56.667 37.666 -74 60.999c52 -0.666992 87 11.333 105 36c-43.333 0 -71 31 -83 93c66 35.333 109.667 71.666 131 108.999c-70 -6.66699 -115.667 19.333 -137 78c120.667 23.333 195.334 70.333 224.001 141
c21.333 74.667 59.333 141 114 199c70 74.667 137 88 201 40c18 2.66699 35.667 4 53 4c120.667 0 221.334 -58.333 302.001 -175c33.333 -48.667 61.333 -107 84 -175c5.33301 -20.667 8 -44 8 -70c0 -32.667 -4.66699 -64.334 -14 -95.001
c19.333 -13.333 36.333 -20 51 -20c28.667 0 45.667 23 51 69zM869.997 503.002c-8.66699 36 -22.668 70.999 -42.001 104.999c-46.667 81.333 -116 151.666 -208 210.999c-72.667 2.66699 -124.667 -26 -156 -86c-13.333 -25.333 -22 -55.666 -26 -90.999
c-0.666992 -26.667 -3.33398 -51.334 -8.00098 -74.001c8.66699 1.33301 18.334 2 29.001 2c50 0 83.667 -12.333 101 -37c-3.33301 -2.66699 -9 -4 -17 -4c-14.667 0 -34.667 4.33301 -60 13c-21.333 8.66699 -40 12.667 -56 12c-6 -22 -13 -41.333 -21 -58
c-18.667 -40.667 -40.667 -66 -66 -76c-4 -5.33301 -12.333 -11.666 -25 -18.999c16.667 -80 39 -137.667 67 -173c46 -57.333 79.333 -95.666 100 -114.999c42.667 -39.333 82.667 -59 120 -59s77 19.667 119 59c20.667 19.333 54 58 100 116
c26.667 32.667 42.334 74.667 47.001 126c1.33301 10.667 2 60 2 148zM843.996 536.001c-5.33301 -3.33301 -12.3301 -2.99902 -20.9971 1.00098c-14.667 8.66699 -28.667 13 -42 13c-14.667 0 -32 -3.66699 -52 -11c-24.667 -9.33301 -44.334 -14 -59.001 -14
c-8 0 -13.667 1.66699 -17 5c17.333 24 50.666 36 99.999 36c12 0 23.167 -0.833008 33.5 -2.5s19.166 -3.83398 26.499 -6.50098c18 -6 28.333 -13 31 -21zM821.999 446.002c-8 -8 -16.3311 -12.001 -24.998 -12.001c-8 0 -15.5 3.33301 -22.5 10s-15.833 11.667 -26.5 15
c2.66699 -5.33301 4 -11 4 -17c0 -9.33301 -3.33301 -17.333 -10 -24s-14.667 -10 -24 -10s-17.333 3.33301 -24 10s-10 14.667 -10 24c0 8 2.66699 15 8 21c-15.333 -6 -23 -14 -23 -24c0 -2.66699 0.666992 -5.66699 2 -9l-17 5c3.33301 8 7.66602 14.667 12.999 20
c12 14 27.333 21.333 46 22v-1c1.33301 0.666992 3 1 5 1c23.333 0.666992 42.333 -3 57 -11c4 -2.66699 8.33301 -4 13 -4c9.33301 0 17.333 4.33301 24 13c1.33301 -12 -4.33398 -19.333 -17.001 -22c8.66699 -7.33301 17.667 -9.66602 27 -6.99902zM565.001 434.001
l-17.0029 -5.00098c0.666992 2.66699 1 5.33398 1 8.00098c0 14.667 -10.667 23.334 -32 26.001c4.66699 -6 7 -12.667 7 -20c0 -9.33301 -3.16699 -17.166 -9.5 -23.499s-14.166 -9.5 -23.499 -9.5s-17.166 3.16699 -23.499 9.5s-9.5 14.166 -9.5 23.499
c0 6 1.33301 11.333 4 16c-7.33301 -2.66699 -13 -6.33398 -17 -11.001c-9.33301 -12 -19.333 -18 -30 -18c-6.66699 0 -13 2.33301 -19 7c5.33301 0 12.333 4.33301 21 13c-10.667 2 -16 7 -16 15c0 3.33301 1 6.66602 3 9.99902c12 -9.33301 20.667 -14 26 -14
c0.666992 0 6.5 3 17.5 9s26.167 8.66699 45.5 8c12.667 -1.33301 23.334 -3.66602 32.001 -6.99902c22.667 -8 36 -20.333 40 -37zM691.998 215h-175.999c20 38.667 49.333 58 88 58c39.333 0 68.666 -19.333 87.999 -58zM690.999 205
c-6 -20.667 -16.332 -38.001 -30.999 -52.001c-16.667 -15.333 -35 -23 -55 -23c-20.667 0 -38.834 7.33301 -54.501 22s-26.5 32.334 -32.5 53.001h10c19.333 -15.333 45 -23 77 -23s56 7.66699 72 23h14zM721 441.999c0 3.33301 -1.66699 5 -5 5s-5 -1.66699 -5 -5
s1.66699 -5 5 -5s5 1.66699 5 5zM718 427.999c0 6 -3 9 -9 9c-5.33301 0 -8 -3 -8 -9s2.66699 -9 8 -9c6 0 9 3 9 9zM495 441.999c0 3.33301 -2 5 -6 5c-3.33301 0 -5 -1.66699 -5 -5s1.66699 -5 5 -5c4 0 6 1.66699 6 5zM491 427.999c0 6 -3 9 -9 9c-5.33301 0 -8 -3 -8 -9
s2.66699 -9 8 -9c6 0 9 3 9 9z" />
    <glyph glyph-name="Ntilde" unicode="&#xd1;" horiz-adv-x="486" 
d="M571 -229l-4.00195 0.00292969c-61.333 0 -112.666 20.667 -153.999 62s-62 92.666 -62 153.999v58l-1 444c0 22 -7.83301 41 -23.5 57s-34.5 24 -56.5 24c-22.667 0 -41.834 -7.83301 -57.501 -23.5s-23.5 -34.834 -23.5 -57.501v-431c0 -20 -6.33301 -36.167 -19 -48.5
s-29 -18.5 -49 -18.5s-36.167 6.16699 -48.5 18.5s-18.5 28.5 -18.5 48.5v431c0 60.667 20.833 111.834 62.5 153.501s92.834 62.5 153.501 62.5c56.667 0 106.667 -19.833 150 -59.5s65 -87.834 65 -144.501l1 -514c0 -22.667 7.83301 -41.834 23.5 -57.501
s34.834 -23.5 57.501 -23.5h4c20 0 36.333 -6.33301 49 -19s19 -29 19 -49s-6.33301 -36.167 -19 -48.5s-29 -18.5 -49 -18.5zM106.998 887.003c28 31.333 59.001 47.001 93.001 47.001c18 0 41 -6 69 -18l41 -19c2 0 3.33301 0.333008 4 1c14 16 30.333 24 49 24
s35 -6.83301 49 -20.5s21 -29.834 21 -48.501c0 -16 -6.33301 -31 -19 -45c-28 -31.333 -58.667 -47 -92 -47c-16 0 -38.5 6.16699 -67.5 18.5l-43.5 18.5c-1.33301 0 -2.33301 -0.333008 -3 -1c-14.667 -16 -31.334 -24 -50.001 -24c-18 0 -34 7 -48 21s-21 30 -21 48
c0 16.667 6 31.667 18 45z" />
    <glyph glyph-name="Ograve" unicode="&#xd2;" horiz-adv-x="769" 
d="M412 705c100 0 184.667 -34.667 254 -104s104 -154 104 -254s-34.667 -184.667 -104 -254s-154 -104 -254 -104s-184.667 34.667 -254 104s-104 154 -104 254s34.667 184.667 104 254s154 104 254 104zM412 570c-63.333 0 -116.333 -21.333 -159 -64
s-64 -95.667 -64 -159c0 -62.667 21.5 -115.5 64.5 -158.5s95.833 -64.5 158.5 -64.5s115.5 21.5 158.5 64.5s64.5 95.833 64.5 158.5s-21.5 115.5 -64.5 158.5s-95.833 64.5 -158.5 64.5zM427 979c-14 34 -39.668 51 -77.001 51c-10.667 0 -21 -2 -31 -6
c-34 -14 -51 -39.667 -51 -77c0 -10.667 2 -21 6 -31l47 -114c14 -34 39.333 -51 76 -51c10.667 0 21.334 2.33301 32.001 7c34 14.667 51 40 51 76c0 12 -2 22.667 -6 32z" />
    <glyph glyph-name="Oacute" unicode="&#xd3;" horiz-adv-x="769" 
d="M412 705c100 0 184.667 -34.667 254 -104s104 -154 104 -254s-34.667 -184.667 -104 -254s-154 -104 -254 -104s-184.667 34.667 -254 104s-104 154 -104 254s34.667 184.667 104 254s154 104 254 104zM412 570c-63.333 0 -116.333 -21.333 -159 -64
s-64 -95.667 -64 -159c0 -62.667 21.5 -115.5 64.5 -158.5s95.833 -64.5 158.5 -64.5s115.5 21.5 158.5 64.5s64.5 95.833 64.5 158.5s-21.5 115.5 -64.5 158.5s-95.833 64.5 -158.5 64.5zM361 979c14 34 39.333 51 76 51c11.333 0 22 -2 32 -6c34 -14 51 -39.667 51 -77
c0 -10.667 -2 -21 -6 -31l-47 -114c-14 -34 -39.667 -51 -77 -51c-10 0 -20.333 2.33301 -31 7c-34 14.667 -51 40 -51 76c0 12 2 22.667 6 32z" />
    <glyph glyph-name="Ocircumflex" unicode="&#xd4;" horiz-adv-x="769" 
d="M412 705c100 0 184.667 -34.667 254 -104s104 -154 104 -254s-34.667 -184.667 -104 -254s-154 -104 -254 -104s-184.667 34.667 -254 104s-104 154 -104 254s34.667 184.667 104 254s154 104 254 104zM412 570c-63.333 0 -116.333 -21.333 -159 -64
s-64 -95.667 -64 -159c0 -62.667 21.5 -115.5 64.5 -158.5s95.833 -64.5 158.5 -64.5s115.5 21.5 158.5 64.5s64.5 95.833 64.5 158.5s-21.5 115.5 -64.5 158.5s-95.833 64.5 -158.5 64.5zM568 871c-50.667 50 -80.668 79.333 -90.001 88c-22 20 -40.667 30 -56 30
c-14 0 -32.333 -10 -55 -30c-11.333 -10 -41.333 -39.333 -90 -88c-14 -14 -21 -29.667 -21 -47c0 -18.667 6.83301 -34.834 20.5 -48.501s29.834 -20.5 48.501 -20.5c17.333 0 33 7 47 21l50 49l50 -49c14 -14 29.667 -21 47 -21c18.667 0 35 6.83301 49 20.5
s21 29.834 21 48.501c0 17.333 -7 33 -21 47z" />
    <glyph glyph-name="Otilde" unicode="&#xd5;" horiz-adv-x="769" 
d="M412 705c100 0 184.667 -34.667 254 -104s104 -154 104 -254s-34.667 -184.667 -104 -254s-154 -104 -254 -104s-184.667 34.667 -254 104s-104 154 -104 254s34.667 184.667 104 254s154 104 254 104zM412 570c-63.333 0 -116.333 -21.333 -159 -64
s-64 -95.667 -64 -159c0 -62.667 21.5 -115.5 64.5 -158.5s95.833 -64.5 158.5 -64.5s115.5 21.5 158.5 64.5s64.5 95.833 64.5 158.5s-21.5 115.5 -64.5 158.5s-95.833 64.5 -158.5 64.5zM267 887c28 31.333 59.001 47.001 93.001 47.001c18 0 41 -6 69 -18l41 -19
c2 0 3.33301 0.333008 4 1c14 16 30.333 24 49 24s35 -6.83301 49 -20.5s21 -29.834 21 -48.501c0 -16 -6.33301 -31 -19 -45c-28 -31.333 -58.667 -47 -92 -47c-16 0 -38.5 6.16699 -67.5 18.5l-43.5 18.5c-1.33301 0 -2.33301 -0.333008 -3 -1
c-14.667 -16 -31.334 -24 -50.001 -24c-18 0 -34 7 -48 21s-21 30 -21 48c0 16.667 6 31.667 18 45z" />
    <glyph glyph-name="Odieresis" unicode="&#xd6;" horiz-adv-x="769" 
d="M412 705c100 0 184.667 -34.667 254 -104s104 -154 104 -254s-34.667 -184.667 -104 -254s-154 -104 -254 -104s-184.667 34.667 -254 104s-104 154 -104 254s34.667 184.667 104 254s154 104 254 104zM412 570c-63.333 0 -116.333 -21.333 -159 -64
s-64 -95.667 -64 -159c0 -62.667 21.5 -115.5 64.5 -158.5s95.833 -64.5 158.5 -64.5s115.5 21.5 158.5 64.5s64.5 95.833 64.5 158.5s-21.5 115.5 -64.5 158.5s-95.833 64.5 -158.5 64.5zM317 765c23.333 0 43 8 59 24s24 35.667 24 59c0 22.667 -8.16699 42 -24.5 58
s-35.833 24 -58.5 24s-42.167 -8 -58.5 -24s-24.5 -35.333 -24.5 -58c0 -23.333 8 -43 24 -59s35.667 -24 59 -24zM509 765c23.333 0 42.833 8 58.5 24s23.5 35.667 23.5 59c0 22.667 -8 42 -24 58s-35.333 24 -58 24c-23.333 0 -43 -7.83301 -59 -23.5
s-24 -35.167 -24 -58.5s8 -43 24 -59s35.667 -24 59 -24z" />
    <glyph glyph-name="Oslash" unicode="&#xd8;" horiz-adv-x="769" 
d="M412 705c100 0 184.667 -34.667 254 -104s104 -154 104 -254s-34.667 -184.667 -104 -254s-154 -104 -254 -104s-184.667 34.667 -254 104s-104 154 -104 254s34.667 184.667 104 254s154 104 254 104zM412 570c-63.333 0 -116.333 -21.333 -159 -64
s-64 -95.667 -64 -159c0 -62.667 21.5 -115.5 64.5 -158.5s95.833 -64.5 158.5 -64.5s115.5 21.5 158.5 64.5s64.5 95.833 64.5 158.5s-21.5 115.5 -64.5 158.5s-95.833 64.5 -158.5 64.5z" />
    <glyph glyph-name="Ugrave" unicode="&#xd9;" horiz-adv-x="486" 
d="M189 638l-0.00195312 -430.998c0 -22.667 7.83301 -41.834 23.5 -57.501s34.834 -23.5 57.501 -23.5s41.667 7.83301 57 23.5s23 34.834 23 57.501v432c0 19.333 6.5 35.5 19.5 48.5s29.167 19.5 48.5 19.5c20 0 36.167 -6.33301 48.5 -19s18.5 -29 18.5 -49v-432
c0 -60.667 -20.667 -111.834 -62 -153.501s-92.333 -62.5 -153 -62.5c-61.333 0 -112.666 20.667 -153.999 62s-62 92.666 -62 153.999v431c0 20 6.16699 36.167 18.5 48.5s28.5 18.5 48.5 18.5s36.333 -6.16699 49 -18.5s19 -28.5 19 -48.5zM326.998 979.002
c-14 34 -39.668 51 -77.001 51c-10.667 0 -21 -2 -31 -6c-34 -14 -51 -39.667 -51 -77c0 -10.667 2 -21 6 -31l47 -114c14 -34 39.333 -51 76 -51c10.667 0 21.334 2.33301 32.001 7c34 14.667 51 40 51 76c0 12 -2 22.667 -6 32z" />
    <glyph glyph-name="Uacute" unicode="&#xda;" horiz-adv-x="486" 
d="M189 638l-0.00195312 -430.998c0 -22.667 7.83301 -41.834 23.5 -57.501s34.834 -23.5 57.501 -23.5s41.667 7.83301 57 23.5s23 34.834 23 57.501v432c0 19.333 6.5 35.5 19.5 48.5s29.167 19.5 48.5 19.5c20 0 36.167 -6.33301 48.5 -19s18.5 -29 18.5 -49v-432
c0 -60.667 -20.667 -111.834 -62 -153.501s-92.333 -62.5 -153 -62.5c-61.333 0 -112.666 20.667 -153.999 62s-62 92.666 -62 153.999v431c0 20 6.16699 36.167 18.5 48.5s28.5 18.5 48.5 18.5s36.333 -6.16699 49 -18.5s19 -28.5 19 -48.5zM250.998 979.002
c14 34 39.333 51 76 51c11.333 0 22 -2 32 -6c34 -14 51 -39.667 51 -77c0 -10.667 -2 -21 -6 -31l-47 -114c-14 -34 -39.667 -51 -77 -51c-10 0 -20.333 2.33301 -31 7c-34 14.667 -51 40 -51 76c0 12 2 22.667 6 32z" />
    <glyph glyph-name="Ucircumflex" unicode="&#xdb;" horiz-adv-x="486" 
d="M189 638l-0.00195312 -430.998c0 -22.667 7.83301 -41.834 23.5 -57.501s34.834 -23.5 57.501 -23.5s41.667 7.83301 57 23.5s23 34.834 23 57.501v432c0 19.333 6.5 35.5 19.5 48.5s29.167 19.5 48.5 19.5c20 0 36.167 -6.33301 48.5 -19s18.5 -29 18.5 -49v-432
c0 -60.667 -20.667 -111.834 -62 -153.501s-92.333 -62.5 -153 -62.5c-61.333 0 -112.666 20.667 -153.999 62s-62 92.666 -62 153.999v431c0 20 6.16699 36.167 18.5 48.5s28.5 18.5 48.5 18.5s36.333 -6.16699 49 -18.5s19 -28.5 19 -48.5zM417.998 871.002
c-50.667 50 -80.668 79.333 -90.001 88c-22 20 -40.667 30 -56 30c-14 0 -32.333 -10 -55 -30c-11.333 -10 -41.333 -39.333 -90 -88c-14 -14 -21 -29.667 -21 -47c0 -18.667 6.83301 -34.834 20.5 -48.501s29.834 -20.5 48.501 -20.5c17.333 0 33 7 47 21l50 49l50 -49
c14 -14 29.667 -21 47 -21c18.667 0 35 6.83301 49 20.5s21 29.834 21 48.501c0 17.333 -7 33 -21 47z" />
    <glyph glyph-name="Udieresis" unicode="&#xdc;" horiz-adv-x="486" 
d="M189 638l-0.00195312 -430.998c0 -22.667 7.83301 -41.834 23.5 -57.501s34.834 -23.5 57.501 -23.5s41.667 7.83301 57 23.5s23 34.834 23 57.501v432c0 19.333 6.5 35.5 19.5 48.5s29.167 19.5 48.5 19.5c20 0 36.167 -6.33301 48.5 -19s18.5 -29 18.5 -49v-432
c0 -60.667 -20.667 -111.834 -62 -153.501s-92.333 -62.5 -153 -62.5c-61.333 0 -112.666 20.667 -153.999 62s-62 92.666 -62 153.999v431c0 20 6.16699 36.167 18.5 48.5s28.5 18.5 48.5 18.5s36.333 -6.16699 49 -18.5s19 -28.5 19 -48.5zM186.998 765.002
c23.333 0 43 8 59 24s24 35.667 24 59c0 22.667 -8.16699 42 -24.5 58s-35.833 24 -58.5 24s-42.167 -8 -58.5 -24s-24.5 -35.333 -24.5 -58c0 -23.333 8 -43 24 -59s35.667 -24 59 -24zM378.998 765.002c23.333 0 42.833 8 58.5 24s23.5 35.667 23.5 59
c0 22.667 -8 42 -24 58s-35.333 24 -58 24c-23.333 0 -43 -7.83301 -59 -23.5s-24 -35.167 -24 -58.5s8 -43 24 -59s35.667 -24 59 -24z" />
    <glyph glyph-name="Yacute" unicode="&#xdd;" horiz-adv-x="486" 
d="M485 207c0 -60.667 -20.6709 -111.831 -62.0039 -153.498s-92.333 -62.5 -153 -62.5c-61.333 0 -112.666 20.667 -153.999 62s-62 92.666 -62 153.999v10c0 20 6.16699 36.167 18.5 48.5s28.5 18.5 48.5 18.5s36.333 -6.16699 49 -18.5s19 -28.5 19 -48.5v-10
c0 -22.667 7.83301 -41.834 23.5 -57.501s34.834 -23.5 57.501 -23.5s41.667 7.83301 57 23.5s23 34.834 23 57.501v96c-25.333 -10.667 -52 -16 -80 -16c-61.333 0 -112.666 20.667 -153.999 62s-62 92.666 -62 153.999v135c0 20 6.16699 36.167 18.5 48.5
s28.5 18.5 48.5 18.5s36.333 -6.16699 49 -18.5s19 -28.5 19 -48.5v-135c0 -22.667 7.83301 -41.834 23.5 -57.501s34.834 -23.5 57.501 -23.5s41.667 7.83301 57 23.5s23 34.834 23 57.501v0v135c0 19.333 6.5 35.333 19.5 48s29.167 19 48.5 19
c20 0 36.167 -6.16699 48.5 -18.5s18.5 -28.5 18.5 -48.5v-431zM240.996 979.003c14 34 39.333 51 76 51c11.333 0 22 -2 32 -6c34 -14 51 -39.667 51 -77c0 -10.667 -2 -21 -6 -31l-47 -114c-14 -34 -39.667 -51 -77 -51c-10 0 -20.333 2.33301 -31 7
c-34 14.667 -51 40 -51 76c0 12 2 22.667 6 32z" />
    <glyph glyph-name="Thorn" unicode="&#xde;" horiz-adv-x="1103" 
d="M1119 520c22 -29.333 32.9971 -58.998 32.9971 -88.998c0 -37.333 -15.333 -70.333 -46 -99c3.33301 -9.33301 5 -18 5 -26c0 -30.667 -22 -49 -66 -55c0.666992 -5.33301 1 -10.666 1 -15.999c0 -48.667 -29 -78.667 -87 -90c-8.66699 -52.667 -39.667 -79 -93 -79
c-30 0 -62.333 7.66699 -97 23v-1c-2.66699 1.33301 -5.66699 3.33301 -9 6l-75 -56c-32 -23.333 -59.667 -35 -83 -35c-52.667 0 -119 39 -199 117v-1c-45.333 -20.667 -87.333 -31 -126 -31c-39.333 0 -74.333 10.667 -105 32c-23.333 16.667 -41.666 37.667 -54.999 63
c-12 21.333 -16.667 35.333 -14 42c-32 17.333 -56.667 37.666 -74 60.999c52 -0.666992 87 11.333 105 36c-43.333 0 -71 31 -83 93c66 35.333 109.667 71.666 131 108.999c-70 -6.66699 -115.667 19.333 -137 78c120.667 23.333 195.334 70.333 224.001 141
c21.333 74.667 59.333 141 114 199c70 74.667 137 88 201 40c18 2.66699 35.667 4 53 4c120.667 0 221.334 -58.333 302.001 -175c33.333 -48.667 61.333 -107 84 -175c5.33301 -20.667 8 -44 8 -70c0 -32.667 -4.66699 -64.334 -14 -95.001
c19.333 -13.333 36.333 -20 51 -20c28.667 0 45.667 23 51 69zM869.997 503.002c-8.66699 36 -22.668 70.999 -42.001 104.999c-46.667 81.333 -116 151.666 -208 210.999c-72.667 2.66699 -124.667 -26 -156 -86c-13.333 -25.333 -22 -55.666 -26 -90.999
c-0.666992 -26.667 -3.33398 -51.334 -8.00098 -74.001c8.66699 1.33301 18.334 2 29.001 2c50 0 83.667 -12.333 101 -37c-3.33301 -2.66699 -9 -4 -17 -4c-14.667 0 -34.667 4.33301 -60 13c-21.333 8.66699 -40 12.667 -56 12c-6 -22 -13 -41.333 -21 -58
c-18.667 -40.667 -40.667 -66 -66 -76c-4 -5.33301 -12.333 -11.666 -25 -18.999c16.667 -80 39 -137.667 67 -173c46 -57.333 79.333 -95.666 100 -114.999c42.667 -39.333 82.667 -59 120 -59s77 19.667 119 59c20.667 19.333 54 58 100 116
c26.667 32.667 42.334 74.667 47.001 126c1.33301 10.667 2 60 2 148zM843.996 536.001c-5.33301 -3.33301 -12.3301 -2.99902 -20.9971 1.00098c-14.667 8.66699 -28.667 13 -42 13c-14.667 0 -32 -3.66699 -52 -11c-24.667 -9.33301 -44.334 -14 -59.001 -14
c-8 0 -13.667 1.66699 -17 5c17.333 24 50.666 36 99.999 36c12 0 23.167 -0.833008 33.5 -2.5s19.166 -3.83398 26.499 -6.50098c18 -6 28.333 -13 31 -21zM821.999 446.002c-8 -8 -16.3311 -12.001 -24.998 -12.001c-8 0 -15.5 3.33301 -22.5 10s-15.833 11.667 -26.5 15
c2.66699 -5.33301 4 -11 4 -17c0 -9.33301 -3.33301 -17.333 -10 -24s-14.667 -10 -24 -10s-17.333 3.33301 -24 10s-10 14.667 -10 24c0 8 2.66699 15 8 21c-15.333 -6 -23 -14 -23 -24c0 -2.66699 0.666992 -5.66699 2 -9l-17 5c3.33301 8 7.66602 14.667 12.999 20
c12 14 27.333 21.333 46 22v-1c1.33301 0.666992 3 1 5 1c23.333 0.666992 42.333 -3 57 -11c4 -2.66699 8.33301 -4 13 -4c9.33301 0 17.333 4.33301 24 13c1.33301 -12 -4.33398 -19.333 -17.001 -22c8.66699 -7.33301 17.667 -9.66602 27 -6.99902zM565.001 434.001
l-17.0029 -5.00098c0.666992 2.66699 1 5.33398 1 8.00098c0 14.667 -10.667 23.334 -32 26.001c4.66699 -6 7 -12.667 7 -20c0 -9.33301 -3.16699 -17.166 -9.5 -23.499s-14.166 -9.5 -23.499 -9.5s-17.166 3.16699 -23.499 9.5s-9.5 14.166 -9.5 23.499
c0 6 1.33301 11.333 4 16c-7.33301 -2.66699 -13 -6.33398 -17 -11.001c-9.33301 -12 -19.333 -18 -30 -18c-6.66699 0 -13 2.33301 -19 7c5.33301 0 12.333 4.33301 21 13c-10.667 2 -16 7 -16 15c0 3.33301 1 6.66602 3 9.99902c12 -9.33301 20.667 -14 26 -14
c0.666992 0 6.5 3 17.5 9s26.167 8.66699 45.5 8c12.667 -1.33301 23.334 -3.66602 32.001 -6.99902c22.667 -8 36 -20.333 40 -37zM691.998 215h-175.999c20 38.667 49.333 58 88 58c39.333 0 68.666 -19.333 87.999 -58zM690.999 205
c-6 -20.667 -16.332 -38.001 -30.999 -52.001c-16.667 -15.333 -35 -23 -55 -23c-20.667 0 -38.834 7.33301 -54.501 22s-26.5 32.334 -32.5 53.001h10c19.333 -15.333 45 -23 77 -23s56 7.66699 72 23h14zM721 441.999c0 3.33301 -1.66699 5 -5 5s-5 -1.66699 -5 -5
s1.66699 -5 5 -5s5 1.66699 5 5zM718 427.999c0 6 -3 9 -9 9c-5.33301 0 -8 -3 -8 -9s2.66699 -9 8 -9c6 0 9 3 9 9zM495 441.999c0 3.33301 -2 5 -6 5c-3.33301 0 -5 -1.66699 -5 -5s1.66699 -5 5 -5c4 0 6 1.66699 6 5zM491 427.999c0 6 -3 9 -9 9c-5.33301 0 -8 -3 -8 -9
s2.66699 -9 8 -9c6 0 9 3 9 9z" />
    <glyph glyph-name="germandbls" unicode="&#xdf;" horiz-adv-x="477" 
d="M54 -134l0.000976562 627.998c0 59.333 20.333 109.333 61 150s90.667 61 150 61s109.5 -20.333 150.5 -61s61.5 -90.667 61.5 -150c0 -57.333 -19.667 -106.333 -59 -147c39.333 -40 59 -88.333 59 -145c0 -59.333 -20.5 -109.333 -61.5 -150s-91.167 -61 -150.5 -61
c-19.333 0 -35.333 6.33301 -48 19s-19 28.667 -19 48c0 20 6.33301 36.333 19 49s29.167 19 49.5 19s38 7.5 53 22.5s22.5 32.833 22.5 53.5c0 22 -8.33301 40.333 -25 55s-36.334 23.334 -59.001 26.001c-18.667 2 -34.5 9.16699 -47.5 21.5s-19.5 27.5 -19.5 45.5
c0 20 7 36 21 48s31.667 18.333 53 19s39.5 8.33398 54.5 23.001s22.5 32.667 22.5 54s-7.5 39.333 -22.5 54s-33.167 22 -54.5 22c-20.667 0 -38.5 -7.5 -53.5 -22.5s-22.5 -32.833 -22.5 -53.5v-628c0 -20 -6.16699 -36.333 -18.5 -49s-28.5 -19 -48.5 -19
s-36.333 6.33301 -49 19s-19 29 -19 49z" />
    <glyph glyph-name="agrave" unicode="&#xe0;" 
d="M309 -11c-72 0 -132.5 24.667 -181.5 74s-73.5 110 -73.5 182s24.5 132.5 73.5 181.5s109.5 73.5 181.5 73.5s132.667 -24.5 182 -73.5s74 -109.5 74 -181.5v-187c0 -20 -6.33301 -36.167 -19 -48.5s-29 -18.5 -49 -18.5s-36.167 6.16699 -48.5 18.5
s-18.5 28.5 -18.5 48.5v187c0 33.333 -11.833 61.666 -35.5 84.999s-52.167 35 -85.5 35s-61.666 -11.667 -84.999 -35s-35 -51.666 -35 -84.999s11.667 -61.833 35 -85.5s51.666 -35.5 84.999 -35.5c20 0 36.333 -6.16699 49 -18.5s19 -28.5 19 -48.5
s-6.33301 -36.333 -19 -49s-29 -19 -49 -19zM327 779c-14 34 -39.668 51 -77.001 51c-10.667 0 -21 -2 -31 -6c-34 -14 -51 -39.667 -51 -77c0 -10.667 2 -21 6 -31l47 -114c14 -34 39.333 -51 76 -51c10.667 0 21.334 2.33301 32.001 7c34 14.667 51 40 51 76
c0 12 -2 22.667 -6 32z" />
    <glyph glyph-name="aacute" unicode="&#xe1;" 
d="M309 -11c-72 0 -132.5 24.667 -181.5 74s-73.5 110 -73.5 182s24.5 132.5 73.5 181.5s109.5 73.5 181.5 73.5s132.667 -24.5 182 -73.5s74 -109.5 74 -181.5v-187c0 -20 -6.33301 -36.167 -19 -48.5s-29 -18.5 -49 -18.5s-36.167 6.16699 -48.5 18.5
s-18.5 28.5 -18.5 48.5v187c0 33.333 -11.833 61.666 -35.5 84.999s-52.167 35 -85.5 35s-61.666 -11.667 -84.999 -35s-35 -51.666 -35 -84.999s11.667 -61.833 35 -85.5s51.666 -35.5 84.999 -35.5c20 0 36.333 -6.16699 49 -18.5s19 -28.5 19 -48.5
s-6.33301 -36.333 -19 -49s-29 -19 -49 -19zM261 779c14 34 39.333 51 76 51c11.333 0 22 -2 32 -6c34 -14 51 -39.667 51 -77c0 -10.667 -2 -21 -6 -31l-47 -114c-14 -34 -39.667 -51 -77 -51c-10 0 -20.333 2.33301 -31 7c-34 14.667 -51 40 -51 76c0 12 2 22.667 6 32z
" />
    <glyph glyph-name="acircumflex" unicode="&#xe2;" 
d="M309 -11c-72 0 -132.5 24.667 -181.5 74s-73.5 110 -73.5 182s24.5 132.5 73.5 181.5s109.5 73.5 181.5 73.5s132.667 -24.5 182 -73.5s74 -109.5 74 -181.5v-187c0 -20 -6.33301 -36.167 -19 -48.5s-29 -18.5 -49 -18.5s-36.167 6.16699 -48.5 18.5
s-18.5 28.5 -18.5 48.5v187c0 33.333 -11.833 61.666 -35.5 84.999s-52.167 35 -85.5 35s-61.666 -11.667 -84.999 -35s-35 -51.666 -35 -84.999s11.667 -61.833 35 -85.5s51.666 -35.5 84.999 -35.5c20 0 36.333 -6.16699 49 -18.5s19 -28.5 19 -48.5
s-6.33301 -36.333 -19 -49s-29 -19 -49 -19zM468 671c-50.667 50 -80.668 79.333 -90.001 88c-22 20 -40.667 30 -56 30c-14 0 -32.333 -10 -55 -30c-11.333 -10 -41.333 -39.333 -90 -88c-14 -14 -21 -29.667 -21 -47c0 -18.667 6.83301 -34.834 20.5 -48.501
s29.834 -20.5 48.501 -20.5c17.333 0 33 7 47 21l50 49l50 -49c14 -14 29.667 -21 47 -21c18.667 0 35 6.83301 49 20.5s21 29.834 21 48.501c0 17.333 -7 33 -21 47z" />
    <glyph glyph-name="atilde" unicode="&#xe3;" 
d="M309 -11c-72 0 -132.5 24.667 -181.5 74s-73.5 110 -73.5 182s24.5 132.5 73.5 181.5s109.5 73.5 181.5 73.5s132.667 -24.5 182 -73.5s74 -109.5 74 -181.5v-187c0 -20 -6.33301 -36.167 -19 -48.5s-29 -18.5 -49 -18.5s-36.167 6.16699 -48.5 18.5
s-18.5 28.5 -18.5 48.5v187c0 33.333 -11.833 61.666 -35.5 84.999s-52.167 35 -85.5 35s-61.666 -11.667 -84.999 -35s-35 -51.666 -35 -84.999s11.667 -61.833 35 -85.5s51.666 -35.5 84.999 -35.5c20 0 36.333 -6.16699 49 -18.5s19 -28.5 19 -48.5
s-6.33301 -36.333 -19 -49s-29 -19 -49 -19zM157 687c28 31.333 59.001 47.001 93.001 47.001c18 0 41 -6 69 -18l41 -19c2 0 3.33301 0.333008 4 1c14 16 30.333 24 49 24s35 -6.83301 49 -20.5s21 -29.834 21 -48.501c0 -16 -6.33301 -31 -19 -45
c-28 -31.333 -58.667 -47 -92 -47c-16 0 -38.5 6.16699 -67.5 18.5l-43.5 18.5c-1.33301 0 -2.33301 -0.333008 -3 -1c-14.667 -16 -31.334 -24 -50.001 -24c-18 0 -34 7 -48 21s-21 30 -21 48c0 16.667 6 31.667 18 45z" />
    <glyph glyph-name="adieresis" unicode="&#xe4;" 
d="M309 -11c-72 0 -132.5 24.667 -181.5 74s-73.5 110 -73.5 182s24.5 132.5 73.5 181.5s109.5 73.5 181.5 73.5s132.667 -24.5 182 -73.5s74 -109.5 74 -181.5v-187c0 -20 -6.33301 -36.167 -19 -48.5s-29 -18.5 -49 -18.5s-36.167 6.16699 -48.5 18.5
s-18.5 28.5 -18.5 48.5v187c0 33.333 -11.833 61.666 -35.5 84.999s-52.167 35 -85.5 35s-61.666 -11.667 -84.999 -35s-35 -51.666 -35 -84.999s11.667 -61.833 35 -85.5s51.666 -35.5 84.999 -35.5c20 0 36.333 -6.16699 49 -18.5s19 -28.5 19 -48.5
s-6.33301 -36.333 -19 -49s-29 -19 -49 -19zM217 565c23.333 0 43 8 59 24s24 35.667 24 59c0 22.667 -8.16699 42 -24.5 58s-35.833 24 -58.5 24s-42.167 -8 -58.5 -24s-24.5 -35.333 -24.5 -58c0 -23.333 8 -43 24 -59s35.667 -24 59 -24zM409 565
c23.333 0 42.833 8 58.5 24s23.5 35.667 23.5 59c0 22.667 -8 42 -24 58s-35.333 24 -58 24c-23.333 0 -43 -7.83301 -59 -23.5s-24 -35.167 -24 -58.5s8 -43 24 -59s35.667 -24 59 -24z" />
    <glyph glyph-name="aring" unicode="&#xe5;" 
d="M309 -11c-72 0 -132.5 24.667 -181.5 74s-73.5 110 -73.5 182s24.5 132.5 73.5 181.5s109.5 73.5 181.5 73.5s132.667 -24.5 182 -73.5s74 -109.5 74 -181.5v-187c0 -20 -6.33301 -36.167 -19 -48.5s-29 -18.5 -49 -18.5s-36.167 6.16699 -48.5 18.5
s-18.5 28.5 -18.5 48.5v187c0 33.333 -11.833 61.666 -35.5 84.999s-52.167 35 -85.5 35s-61.666 -11.667 -84.999 -35s-35 -51.666 -35 -84.999s11.667 -61.833 35 -85.5s51.666 -35.5 84.999 -35.5c20 0 36.333 -6.16699 49 -18.5s19 -28.5 19 -48.5
s-6.33301 -36.333 -19 -49s-29 -19 -49 -19zM402 661c0 28.667 -10.167 53.167 -30.5 73.5s-44.833 30.5 -73.5 30.5s-53.167 -10.167 -73.5 -30.5s-30.5 -44.833 -30.5 -73.5s10.167 -53.167 30.5 -73.5s44.833 -30.5 73.5 -30.5s53.167 10.167 73.5 30.5
s30.5 44.833 30.5 73.5zM298 632c-19.333 0 -29 9.66699 -29 29s9.66699 29 29 29s29 -9.66699 29 -29s-9.66699 -29 -29 -29z" />
    <glyph glyph-name="ae" unicode="&#xe6;" horiz-adv-x="891" 
d="M861 321l-128.003 -125.002c-14.667 -14 -30 -21 -46 -21c-18.667 0 -35 7 -49 21s-21 30.333 -21 49c0 16.667 7.33301 32.334 22 47.001l72 71c-8.66699 1.33301 -17.334 2 -26.001 2c-33.333 0 -61.666 -11.667 -84.999 -35s-35 -51.666 -35 -84.999
s11.667 -61.833 35 -85.5s51.666 -35.5 84.999 -35.5h89c20 0 36.333 -6.16699 49 -18.5s19 -28.5 19 -48.5c0 -19.333 -6.5 -35.5 -19.5 -48.5s-29.167 -19.5 -48.5 -19.5h-89c-71.333 0 -131.666 24.833 -180.999 74.5s-74 110.167 -74 181.5
c0 33.333 -11.833 61.666 -35.5 84.999s-52.167 35 -85.5 35s-61.666 -11.667 -84.999 -35s-35 -51.666 -35 -84.999s11.667 -61.833 35 -85.5s51.666 -35.5 84.999 -35.5c20 0 36.333 -6.16699 49 -18.5s19 -28.5 19 -48.5s-6.33301 -36.333 -19 -49s-29 -19 -49 -19
c-72 0 -132.5 24.667 -181.5 74s-73.5 110 -73.5 182s24.5 132.5 73.5 181.5s109.5 73.5 181.5 73.5c74.667 0 137.334 -27.333 188.001 -82c50.667 54.667 113.334 82 188.001 82c72.667 0 134.334 -26 185.001 -78c13.333 -14 20 -29.333 20 -46
c0 -22 -9.66699 -40.333 -29 -55z" />
    <glyph glyph-name="ccedilla" unicode="&#xe7;" horiz-adv-x="377" 
d="M309 367c-33.333 0 -61.667 -11.833 -85 -35.5s-35 -52.167 -35 -85.5s11.667 -61.666 35 -84.999s51.666 -35 84.999 -35c20 0 36.333 -6.33301 49 -19s19 -29 19 -49s-6.33301 -36.167 -19 -48.5s-29 -18.5 -49 -18.5c-71.333 0 -131.666 24.667 -180.999 74
s-74 109.666 -74 180.999c0 72 24.5 132.667 73.5 182s109.5 74 181.5 74c20 0 36.333 -6.33301 49 -19s19 -29 19 -49s-6.33301 -36.167 -19 -48.5s-29 -18.5 -49 -18.5zM253.999 -201c22.667 0 42 8.16699 58 24.5s24 35.833 24 58.5s-8 42.167 -24 58.5
s-35.333 24.5 -58 24.5s-42.167 -8.16699 -58.5 -24.5s-24.5 -35.833 -24.5 -58.5s8.16699 -42.167 24.5 -58.5s35.833 -24.5 58.5 -24.5z" />
    <glyph glyph-name="egrave" unicode="&#xe8;" horiz-adv-x="514" 
d="M485 321l-127.998 -125.002c-14.667 -14 -30.334 -21 -47.001 -21c-18.667 0 -34.834 7 -48.501 21s-20.5 30.333 -20.5 49c0 16.667 7.33301 32.334 22 47.001l72 71c-8.66699 1.33301 -17.334 2 -26.001 2c-33.333 0 -61.666 -11.667 -84.999 -35
s-35 -51.666 -35 -84.999s11.667 -61.833 35 -85.5s51.666 -35.5 84.999 -35.5h89c20 0 36.167 -6.16699 48.5 -18.5s18.5 -28.5 18.5 -48.5s-6.16699 -36.333 -18.5 -49s-28.5 -19 -48.5 -19h-89c-72 0 -132.5 24.667 -181.5 74s-73.5 110 -73.5 182s24.5 132.5 73.5 181.5
s109.5 73.5 181.5 73.5c72.667 0 134.334 -26 185.001 -78c13.333 -14 20 -29.333 20 -46c0 -22 -9.66699 -40.333 -29 -55zM327.002 778.998c-14 34 -39.668 51 -77.001 51c-10.667 0 -21 -2 -31 -6c-34 -14 -51 -39.667 -51 -77c0 -10.667 2 -21 6 -31l47 -114
c14 -34 39.333 -51 76 -51c10.667 0 21.334 2.33301 32.001 7c34 14.667 51 40 51 76c0 12 -2 22.667 -6 32z" />
    <glyph glyph-name="eacute" unicode="&#xe9;" horiz-adv-x="514" 
d="M485 321l-127.998 -125.002c-14.667 -14 -30.334 -21 -47.001 -21c-18.667 0 -34.834 7 -48.501 21s-20.5 30.333 -20.5 49c0 16.667 7.33301 32.334 22 47.001l72 71c-8.66699 1.33301 -17.334 2 -26.001 2c-33.333 0 -61.666 -11.667 -84.999 -35
s-35 -51.666 -35 -84.999s11.667 -61.833 35 -85.5s51.666 -35.5 84.999 -35.5h89c20 0 36.167 -6.16699 48.5 -18.5s18.5 -28.5 18.5 -48.5s-6.16699 -36.333 -18.5 -49s-28.5 -19 -48.5 -19h-89c-72 0 -132.5 24.667 -181.5 74s-73.5 110 -73.5 182s24.5 132.5 73.5 181.5
s109.5 73.5 181.5 73.5c72.667 0 134.334 -26 185.001 -78c13.333 -14 20 -29.333 20 -46c0 -22 -9.66699 -40.333 -29 -55zM261.002 778.998c14 34 39.333 51 76 51c11.333 0 22 -2 32 -6c34 -14 51 -39.667 51 -77c0 -10.667 -2 -21 -6 -31l-47 -114
c-14 -34 -39.667 -51 -77 -51c-10 0 -20.333 2.33301 -31 7c-34 14.667 -51 40 -51 76c0 12 2 22.667 6 32z" />
    <glyph glyph-name="ecircumflex" unicode="&#xea;" horiz-adv-x="514" 
d="M485 321l-127.998 -125.002c-14.667 -14 -30.334 -21 -47.001 -21c-18.667 0 -34.834 7 -48.501 21s-20.5 30.333 -20.5 49c0 16.667 7.33301 32.334 22 47.001l72 71c-8.66699 1.33301 -17.334 2 -26.001 2c-33.333 0 -61.666 -11.667 -84.999 -35
s-35 -51.666 -35 -84.999s11.667 -61.833 35 -85.5s51.666 -35.5 84.999 -35.5h89c20 0 36.167 -6.16699 48.5 -18.5s18.5 -28.5 18.5 -48.5s-6.16699 -36.333 -18.5 -49s-28.5 -19 -48.5 -19h-89c-72 0 -132.5 24.667 -181.5 74s-73.5 110 -73.5 182s24.5 132.5 73.5 181.5
s109.5 73.5 181.5 73.5c72.667 0 134.334 -26 185.001 -78c13.333 -14 20 -29.333 20 -46c0 -22 -9.66699 -40.333 -29 -55zM458.002 670.998c-50.667 50 -80.668 79.333 -90.001 88c-22 20 -40.667 30 -56 30c-14 0 -32.333 -10 -55 -30
c-11.333 -10 -41.333 -39.333 -90 -88c-14 -14 -21 -29.667 -21 -47c0 -18.667 6.83301 -34.834 20.5 -48.501s29.834 -20.5 48.501 -20.5c17.333 0 33 7 47 21l50 49l50 -49c14 -14 29.667 -21 47 -21c18.667 0 35 6.83301 49 20.5s21 29.834 21 48.501
c0 17.333 -7 33 -21 47z" />
    <glyph glyph-name="edieresis" unicode="&#xeb;" horiz-adv-x="514" 
d="M485 321l-127.998 -125.002c-14.667 -14 -30.334 -21 -47.001 -21c-18.667 0 -34.834 7 -48.501 21s-20.5 30.333 -20.5 49c0 16.667 7.33301 32.334 22 47.001l72 71c-8.66699 1.33301 -17.334 2 -26.001 2c-33.333 0 -61.666 -11.667 -84.999 -35
s-35 -51.666 -35 -84.999s11.667 -61.833 35 -85.5s51.666 -35.5 84.999 -35.5h89c20 0 36.167 -6.16699 48.5 -18.5s18.5 -28.5 18.5 -48.5s-6.16699 -36.333 -18.5 -49s-28.5 -19 -48.5 -19h-89c-72 0 -132.5 24.667 -181.5 74s-73.5 110 -73.5 182s24.5 132.5 73.5 181.5
s109.5 73.5 181.5 73.5c72.667 0 134.334 -26 185.001 -78c13.333 -14 20 -29.333 20 -46c0 -22 -9.66699 -40.333 -29 -55zM207.002 564.998c23.333 0 43 8 59 24s24 35.667 24 59c0 22.667 -8.16699 42 -24.5 58s-35.833 24 -58.5 24s-42.167 -8 -58.5 -24
s-24.5 -35.333 -24.5 -58c0 -23.333 8 -43 24 -59s35.667 -24 59 -24zM399.002 564.998c23.333 0 42.833 8 58.5 24s23.5 35.667 23.5 59c0 22.667 -8 42 -24 58s-35.333 24 -58 24c-23.333 0 -43 -7.83301 -59 -23.5s-24 -35.167 -24 -58.5s8 -43 24 -59s35.667 -24 59 -24
z" />
    <glyph glyph-name="igrave" unicode="&#xec;" horiz-adv-x="190" 
d="M189 58c0 -20 -6.33301 -36.167 -19 -48.5s-29 -18.5 -49 -18.5s-36.167 6.16699 -48.5 18.5s-18.5 28.5 -18.5 48.5v375c0 20 6.16699 36.167 18.5 48.5s28.5 18.5 48.5 18.5c45.333 0 68 -22.333 68 -67v-375zM127 779c-14 34 -39.668 51 -77.001 51
c-10.667 0 -21 -2 -31 -6c-34 -14 -51 -39.667 -51 -77c0 -10.667 2 -21 6 -31l47 -114c14 -34 39.333 -51 76 -51c10.667 0 21.334 2.33301 32.001 7c34 14.667 51 40 51 76c0 12 -2 22.667 -6 32z" />
    <glyph glyph-name="iacute" unicode="&#xed;" horiz-adv-x="190" 
d="M189 58c0 -20 -6.33301 -36.167 -19 -48.5s-29 -18.5 -49 -18.5s-36.167 6.16699 -48.5 18.5s-18.5 28.5 -18.5 48.5v375c0 20 6.16699 36.167 18.5 48.5s28.5 18.5 48.5 18.5c45.333 0 68 -22.333 68 -67v-375zM71 779c14 34 39.333 51 76 51c11.333 0 22 -2 32 -6
c34 -14 51 -39.667 51 -77c0 -10.667 -2 -21 -6 -31l-47 -114c-14 -34 -39.667 -51 -77 -51c-10 0 -20.333 2.33301 -31 7c-34 14.667 -51 40 -51 76c0 12 2 22.667 6 32z" />
    <glyph glyph-name="icircumflex" unicode="&#xee;" horiz-adv-x="190" 
d="M189 58c0 -20 -6.33301 -36.167 -19 -48.5s-29 -18.5 -49 -18.5s-36.167 6.16699 -48.5 18.5s-18.5 28.5 -18.5 48.5v375c0 20 6.16699 36.167 18.5 48.5s28.5 18.5 48.5 18.5c45.333 0 68 -22.333 68 -67v-375zM268 671c-50.667 50 -80.668 79.333 -90.001 88
c-22 20 -40.667 30 -56 30c-14 0 -32.333 -10 -55 -30c-11.333 -10 -41.333 -39.333 -90 -88c-14 -14 -21 -29.667 -21 -47c0 -18.667 6.83301 -34.834 20.5 -48.501s29.834 -20.5 48.501 -20.5c17.333 0 33 7 47 21l50 49l50 -49c14 -14 29.667 -21 47 -21
c18.667 0 35 6.83301 49 20.5s21 29.834 21 48.501c0 17.333 -7 33 -21 47z" />
    <glyph glyph-name="idieresis" unicode="&#xef;" horiz-adv-x="190" 
d="M189 58c0 -20 -6.33301 -36.167 -19 -48.5s-29 -18.5 -49 -18.5s-36.167 6.16699 -48.5 18.5s-18.5 28.5 -18.5 48.5v375c0 20 6.16699 36.167 18.5 48.5s28.5 18.5 48.5 18.5c45.333 0 68 -22.333 68 -67v-375zM27 565c23.333 0 43 8 59 24s24 35.667 24 59
c0 22.667 -8.16699 42 -24.5 58s-35.833 24 -58.5 24s-42.167 -8 -58.5 -24s-24.5 -35.333 -24.5 -58c0 -23.333 8 -43 24 -59s35.667 -24 59 -24zM219 565c23.333 0 42.833 8 58.5 24s23.5 35.667 23.5 59c0 22.667 -8 42 -24 58s-35.333 24 -58 24
c-23.333 0 -43 -7.83301 -59 -23.5s-24 -35.167 -24 -58.5s8 -43 24 -59s35.667 -24 59 -24z" />
    <glyph glyph-name="eth" unicode="&#xf0;" horiz-adv-x="1103" 
d="M1119 520c22 -29.333 32.9971 -58.998 32.9971 -88.998c0 -37.333 -15.333 -70.333 -46 -99c3.33301 -9.33301 5 -18 5 -26c0 -30.667 -22 -49 -66 -55c0.666992 -5.33301 1 -10.666 1 -15.999c0 -48.667 -29 -78.667 -87 -90c-8.66699 -52.667 -39.667 -79 -93 -79
c-30 0 -62.333 7.66699 -97 23v-1c-2.66699 1.33301 -5.66699 3.33301 -9 6l-75 -56c-32 -23.333 -59.667 -35 -83 -35c-52.667 0 -119 39 -199 117v-1c-45.333 -20.667 -87.333 -31 -126 -31c-39.333 0 -74.333 10.667 -105 32c-23.333 16.667 -41.666 37.667 -54.999 63
c-12 21.333 -16.667 35.333 -14 42c-32 17.333 -56.667 37.666 -74 60.999c52 -0.666992 87 11.333 105 36c-43.333 0 -71 31 -83 93c66 35.333 109.667 71.666 131 108.999c-70 -6.66699 -115.667 19.333 -137 78c120.667 23.333 195.334 70.333 224.001 141
c21.333 74.667 59.333 141 114 199c70 74.667 137 88 201 40c18 2.66699 35.667 4 53 4c120.667 0 221.334 -58.333 302.001 -175c33.333 -48.667 61.333 -107 84 -175c5.33301 -20.667 8 -44 8 -70c0 -32.667 -4.66699 -64.334 -14 -95.001
c19.333 -13.333 36.333 -20 51 -20c28.667 0 45.667 23 51 69zM869.997 503.002c-8.66699 36 -22.668 70.999 -42.001 104.999c-46.667 81.333 -116 151.666 -208 210.999c-72.667 2.66699 -124.667 -26 -156 -86c-13.333 -25.333 -22 -55.666 -26 -90.999
c-0.666992 -26.667 -3.33398 -51.334 -8.00098 -74.001c8.66699 1.33301 18.334 2 29.001 2c50 0 83.667 -12.333 101 -37c-3.33301 -2.66699 -9 -4 -17 -4c-14.667 0 -34.667 4.33301 -60 13c-21.333 8.66699 -40 12.667 -56 12c-6 -22 -13 -41.333 -21 -58
c-18.667 -40.667 -40.667 -66 -66 -76c-4 -5.33301 -12.333 -11.666 -25 -18.999c16.667 -80 39 -137.667 67 -173c46 -57.333 79.333 -95.666 100 -114.999c42.667 -39.333 82.667 -59 120 -59s77 19.667 119 59c20.667 19.333 54 58 100 116
c26.667 32.667 42.334 74.667 47.001 126c1.33301 10.667 2 60 2 148zM843.996 536.001c-5.33301 -3.33301 -12.3301 -2.99902 -20.9971 1.00098c-14.667 8.66699 -28.667 13 -42 13c-14.667 0 -32 -3.66699 -52 -11c-24.667 -9.33301 -44.334 -14 -59.001 -14
c-8 0 -13.667 1.66699 -17 5c17.333 24 50.666 36 99.999 36c12 0 23.167 -0.833008 33.5 -2.5s19.166 -3.83398 26.499 -6.50098c18 -6 28.333 -13 31 -21zM821.999 446.002c-8 -8 -16.3311 -12.001 -24.998 -12.001c-8 0 -15.5 3.33301 -22.5 10s-15.833 11.667 -26.5 15
c2.66699 -5.33301 4 -11 4 -17c0 -9.33301 -3.33301 -17.333 -10 -24s-14.667 -10 -24 -10s-17.333 3.33301 -24 10s-10 14.667 -10 24c0 8 2.66699 15 8 21c-15.333 -6 -23 -14 -23 -24c0 -2.66699 0.666992 -5.66699 2 -9l-17 5c3.33301 8 7.66602 14.667 12.999 20
c12 14 27.333 21.333 46 22v-1c1.33301 0.666992 3 1 5 1c23.333 0.666992 42.333 -3 57 -11c4 -2.66699 8.33301 -4 13 -4c9.33301 0 17.333 4.33301 24 13c1.33301 -12 -4.33398 -19.333 -17.001 -22c8.66699 -7.33301 17.667 -9.66602 27 -6.99902zM565.001 434.001
l-17.0029 -5.00098c0.666992 2.66699 1 5.33398 1 8.00098c0 14.667 -10.667 23.334 -32 26.001c4.66699 -6 7 -12.667 7 -20c0 -9.33301 -3.16699 -17.166 -9.5 -23.499s-14.166 -9.5 -23.499 -9.5s-17.166 3.16699 -23.499 9.5s-9.5 14.166 -9.5 23.499
c0 6 1.33301 11.333 4 16c-7.33301 -2.66699 -13 -6.33398 -17 -11.001c-9.33301 -12 -19.333 -18 -30 -18c-6.66699 0 -13 2.33301 -19 7c5.33301 0 12.333 4.33301 21 13c-10.667 2 -16 7 -16 15c0 3.33301 1 6.66602 3 9.99902c12 -9.33301 20.667 -14 26 -14
c0.666992 0 6.5 3 17.5 9s26.167 8.66699 45.5 8c12.667 -1.33301 23.334 -3.66602 32.001 -6.99902c22.667 -8 36 -20.333 40 -37zM691.998 215h-175.999c20 38.667 49.333 58 88 58c39.333 0 68.666 -19.333 87.999 -58zM690.999 205
c-6 -20.667 -16.332 -38.001 -30.999 -52.001c-16.667 -15.333 -35 -23 -55 -23c-20.667 0 -38.834 7.33301 -54.501 22s-26.5 32.334 -32.5 53.001h10c19.333 -15.333 45 -23 77 -23s56 7.66699 72 23h14zM721 441.999c0 3.33301 -1.66699 5 -5 5s-5 -1.66699 -5 -5
s1.66699 -5 5 -5s5 1.66699 5 5zM718 427.999c0 6 -3 9 -9 9c-5.33301 0 -8 -3 -8 -9s2.66699 -9 8 -9c6 0 9 3 9 9zM495 441.999c0 3.33301 -2 5 -6 5c-3.33301 0 -5 -1.66699 -5 -5s1.66699 -5 5 -5c4 0 6 1.66699 6 5zM491 427.999c0 6 -3 9 -9 9c-5.33301 0 -8 -3 -8 -9
s2.66699 -9 8 -9c6 0 9 3 9 9z" />
    <glyph glyph-name="ntilde" unicode="&#xf1;" horiz-adv-x="486" 
d="M571 -229l-4.00293 0.00195312c-61.333 0 -112.666 20.667 -153.999 62s-62 92.666 -62 153.999v47l-1 251c0 22 -7.83301 40.833 -23.5 56.5s-34.5 23.5 -56.5 23.5c-22.667 0 -41.834 -7.66699 -57.501 -23s-23.5 -34.333 -23.5 -57v-227
c0 -20 -6.33301 -36.167 -19 -48.5s-29 -18.5 -49 -18.5s-36.167 6.16699 -48.5 18.5s-18.5 28.5 -18.5 48.5v227c0 60.667 20.833 111.667 62.5 153s92.834 62 153.501 62s111.834 -20.667 153.501 -62s62.5 -92.333 62.5 -153v-298
c0 -22.667 7.83301 -41.834 23.5 -57.501s34.834 -23.5 57.501 -23.5h4c20 0 36.333 -6.33301 49 -19s19 -29 19 -49s-6.33301 -36.167 -19 -48.5s-29 -18.5 -49 -18.5zM116.997 687.002c28 31.333 59.001 47.001 93.001 47.001c18 0 41 -6 69 -18l41 -19
c2 0 3.33301 0.333008 4 1c14 16 30.333 24 49 24s35 -6.83301 49 -20.5s21 -29.834 21 -48.501c0 -16 -6.33301 -31 -19 -45c-28 -31.333 -58.667 -47 -92 -47c-16 0 -38.5 6.16699 -67.5 18.5l-43.5 18.5c-1.33301 0 -2.33301 -0.333008 -3 -1
c-14.667 -16 -31.334 -24 -50.001 -24c-18 0 -34 7 -48 21s-21 30 -21 48c0 16.667 6 31.667 18 45z" />
    <glyph glyph-name="ograve" unicode="&#xf2;" horiz-adv-x="566" 
d="M309 500c72 0 132.667 -24.5 182 -73.5s74 -109.5 74 -181.5s-24.667 -132.667 -74 -182s-110 -74 -182 -74s-132.5 24.667 -181.5 74s-73.5 110 -73.5 182s24.5 132.5 73.5 181.5s109.5 73.5 181.5 73.5zM309 365c-33.333 0 -61.666 -11.667 -84.999 -35
s-35 -51.666 -35 -84.999s11.667 -61.833 35 -85.5s51.666 -35.5 84.999 -35.5s61.833 11.833 85.5 35.5s35.5 52.167 35.5 85.5s-11.833 61.666 -35.5 84.999s-52.167 35 -85.5 35zM327 779c-14 34 -39.668 51 -77.001 51c-10.667 0 -21 -2 -31 -6
c-34 -14 -51 -39.667 -51 -77c0 -10.667 2 -21 6 -31l47 -114c14 -34 39.333 -51 76 -51c10.667 0 21.334 2.33301 32.001 7c34 14.667 51 40 51 76c0 12 -2 22.667 -6 32z" />
    <glyph glyph-name="oacute" unicode="&#xf3;" horiz-adv-x="566" 
d="M309 500c72 0 132.667 -24.5 182 -73.5s74 -109.5 74 -181.5s-24.667 -132.667 -74 -182s-110 -74 -182 -74s-132.5 24.667 -181.5 74s-73.5 110 -73.5 182s24.5 132.5 73.5 181.5s109.5 73.5 181.5 73.5zM309 365c-33.333 0 -61.666 -11.667 -84.999 -35
s-35 -51.666 -35 -84.999s11.667 -61.833 35 -85.5s51.666 -35.5 84.999 -35.5s61.833 11.833 85.5 35.5s35.5 52.167 35.5 85.5s-11.833 61.666 -35.5 84.999s-52.167 35 -85.5 35zM261 779c14 34 39.333 51 76 51c11.333 0 22 -2 32 -6c34 -14 51 -39.667 51 -77
c0 -10.667 -2 -21 -6 -31l-47 -114c-14 -34 -39.667 -51 -77 -51c-10 0 -20.333 2.33301 -31 7c-34 14.667 -51 40 -51 76c0 12 2 22.667 6 32z" />
    <glyph glyph-name="ocircumflex" unicode="&#xf4;" horiz-adv-x="566" 
d="M309 500c72 0 132.667 -24.5 182 -73.5s74 -109.5 74 -181.5s-24.667 -132.667 -74 -182s-110 -74 -182 -74s-132.5 24.667 -181.5 74s-73.5 110 -73.5 182s24.5 132.5 73.5 181.5s109.5 73.5 181.5 73.5zM309 365c-33.333 0 -61.666 -11.667 -84.999 -35
s-35 -51.666 -35 -84.999s11.667 -61.833 35 -85.5s51.666 -35.5 84.999 -35.5s61.833 11.833 85.5 35.5s35.5 52.167 35.5 85.5s-11.833 61.666 -35.5 84.999s-52.167 35 -85.5 35zM458 671c-50.667 50 -80.668 79.333 -90.001 88c-22 20 -40.667 30 -56 30
c-14 0 -32.333 -10 -55 -30c-11.333 -10 -41.333 -39.333 -90 -88c-14 -14 -21 -29.667 -21 -47c0 -18.667 6.83301 -34.834 20.5 -48.501s29.834 -20.5 48.501 -20.5c17.333 0 33 7 47 21l50 49l50 -49c14 -14 29.667 -21 47 -21c18.667 0 35 6.83301 49 20.5
s21 29.834 21 48.501c0 17.333 -7 33 -21 47z" />
    <glyph glyph-name="otilde" unicode="&#xf5;" horiz-adv-x="566" 
d="M309 500c72 0 132.667 -24.5 182 -73.5s74 -109.5 74 -181.5s-24.667 -132.667 -74 -182s-110 -74 -182 -74s-132.5 24.667 -181.5 74s-73.5 110 -73.5 182s24.5 132.5 73.5 181.5s109.5 73.5 181.5 73.5zM309 365c-33.333 0 -61.666 -11.667 -84.999 -35
s-35 -51.666 -35 -84.999s11.667 -61.833 35 -85.5s51.666 -35.5 84.999 -35.5s61.833 11.833 85.5 35.5s35.5 52.167 35.5 85.5s-11.833 61.666 -35.5 84.999s-52.167 35 -85.5 35zM167 687c28 31.333 59.001 47.001 93.001 47.001c18 0 41 -6 69 -18l41 -19
c2 0 3.33301 0.333008 4 1c14 16 30.333 24 49 24s35 -6.83301 49 -20.5s21 -29.834 21 -48.501c0 -16 -6.33301 -31 -19 -45c-28 -31.333 -58.667 -47 -92 -47c-16 0 -38.5 6.16699 -67.5 18.5l-43.5 18.5c-1.33301 0 -2.33301 -0.333008 -3 -1
c-14.667 -16 -31.334 -24 -50.001 -24c-18 0 -34 7 -48 21s-21 30 -21 48c0 16.667 6 31.667 18 45z" />
    <glyph glyph-name="odieresis" unicode="&#xf6;" horiz-adv-x="566" 
d="M309 500c72 0 132.667 -24.5 182 -73.5s74 -109.5 74 -181.5s-24.667 -132.667 -74 -182s-110 -74 -182 -74s-132.5 24.667 -181.5 74s-73.5 110 -73.5 182s24.5 132.5 73.5 181.5s109.5 73.5 181.5 73.5zM309 365c-33.333 0 -61.666 -11.667 -84.999 -35
s-35 -51.666 -35 -84.999s11.667 -61.833 35 -85.5s51.666 -35.5 84.999 -35.5s61.833 11.833 85.5 35.5s35.5 52.167 35.5 85.5s-11.833 61.666 -35.5 84.999s-52.167 35 -85.5 35zM217 565c23.333 0 43 8 59 24s24 35.667 24 59c0 22.667 -8.16699 42 -24.5 58
s-35.833 24 -58.5 24s-42.167 -8 -58.5 -24s-24.5 -35.333 -24.5 -58c0 -23.333 8 -43 24 -59s35.667 -24 59 -24zM409 565c23.333 0 42.833 8 58.5 24s23.5 35.667 23.5 59c0 22.667 -8 42 -24 58s-35.333 24 -58 24c-23.333 0 -43 -7.83301 -59 -23.5
s-24 -35.167 -24 -58.5s8 -43 24 -59s35.667 -24 59 -24z" />
    <glyph glyph-name="divide" unicode="&#xf7;" horiz-adv-x="1103" 
d="M1119 520c22 -29.333 32.9971 -58.998 32.9971 -88.998c0 -37.333 -15.333 -70.333 -46 -99c3.33301 -9.33301 5 -18 5 -26c0 -30.667 -22 -49 -66 -55c0.666992 -5.33301 1 -10.666 1 -15.999c0 -48.667 -29 -78.667 -87 -90c-8.66699 -52.667 -39.667 -79 -93 -79
c-30 0 -62.333 7.66699 -97 23v-1c-2.66699 1.33301 -5.66699 3.33301 -9 6l-75 -56c-32 -23.333 -59.667 -35 -83 -35c-52.667 0 -119 39 -199 117v-1c-45.333 -20.667 -87.333 -31 -126 -31c-39.333 0 -74.333 10.667 -105 32c-23.333 16.667 -41.666 37.667 -54.999 63
c-12 21.333 -16.667 35.333 -14 42c-32 17.333 -56.667 37.666 -74 60.999c52 -0.666992 87 11.333 105 36c-43.333 0 -71 31 -83 93c66 35.333 109.667 71.666 131 108.999c-70 -6.66699 -115.667 19.333 -137 78c120.667 23.333 195.334 70.333 224.001 141
c21.333 74.667 59.333 141 114 199c70 74.667 137 88 201 40c18 2.66699 35.667 4 53 4c120.667 0 221.334 -58.333 302.001 -175c33.333 -48.667 61.333 -107 84 -175c5.33301 -20.667 8 -44 8 -70c0 -32.667 -4.66699 -64.334 -14 -95.001
c19.333 -13.333 36.333 -20 51 -20c28.667 0 45.667 23 51 69zM869.997 503.002c-8.66699 36 -22.668 70.999 -42.001 104.999c-46.667 81.333 -116 151.666 -208 210.999c-72.667 2.66699 -124.667 -26 -156 -86c-13.333 -25.333 -22 -55.666 -26 -90.999
c-0.666992 -26.667 -3.33398 -51.334 -8.00098 -74.001c8.66699 1.33301 18.334 2 29.001 2c50 0 83.667 -12.333 101 -37c-3.33301 -2.66699 -9 -4 -17 -4c-14.667 0 -34.667 4.33301 -60 13c-21.333 8.66699 -40 12.667 -56 12c-6 -22 -13 -41.333 -21 -58
c-18.667 -40.667 -40.667 -66 -66 -76c-4 -5.33301 -12.333 -11.666 -25 -18.999c16.667 -80 39 -137.667 67 -173c46 -57.333 79.333 -95.666 100 -114.999c42.667 -39.333 82.667 -59 120 -59s77 19.667 119 59c20.667 19.333 54 58 100 116
c26.667 32.667 42.334 74.667 47.001 126c1.33301 10.667 2 60 2 148zM843.996 536.001c-5.33301 -3.33301 -12.3301 -2.99902 -20.9971 1.00098c-14.667 8.66699 -28.667 13 -42 13c-14.667 0 -32 -3.66699 -52 -11c-24.667 -9.33301 -44.334 -14 -59.001 -14
c-8 0 -13.667 1.66699 -17 5c17.333 24 50.666 36 99.999 36c12 0 23.167 -0.833008 33.5 -2.5s19.166 -3.83398 26.499 -6.50098c18 -6 28.333 -13 31 -21zM821.999 446.002c-8 -8 -16.3311 -12.001 -24.998 -12.001c-8 0 -15.5 3.33301 -22.5 10s-15.833 11.667 -26.5 15
c2.66699 -5.33301 4 -11 4 -17c0 -9.33301 -3.33301 -17.333 -10 -24s-14.667 -10 -24 -10s-17.333 3.33301 -24 10s-10 14.667 -10 24c0 8 2.66699 15 8 21c-15.333 -6 -23 -14 -23 -24c0 -2.66699 0.666992 -5.66699 2 -9l-17 5c3.33301 8 7.66602 14.667 12.999 20
c12 14 27.333 21.333 46 22v-1c1.33301 0.666992 3 1 5 1c23.333 0.666992 42.333 -3 57 -11c4 -2.66699 8.33301 -4 13 -4c9.33301 0 17.333 4.33301 24 13c1.33301 -12 -4.33398 -19.333 -17.001 -22c8.66699 -7.33301 17.667 -9.66602 27 -6.99902zM565.001 434.001
l-17.0029 -5.00098c0.666992 2.66699 1 5.33398 1 8.00098c0 14.667 -10.667 23.334 -32 26.001c4.66699 -6 7 -12.667 7 -20c0 -9.33301 -3.16699 -17.166 -9.5 -23.499s-14.166 -9.5 -23.499 -9.5s-17.166 3.16699 -23.499 9.5s-9.5 14.166 -9.5 23.499
c0 6 1.33301 11.333 4 16c-7.33301 -2.66699 -13 -6.33398 -17 -11.001c-9.33301 -12 -19.333 -18 -30 -18c-6.66699 0 -13 2.33301 -19 7c5.33301 0 12.333 4.33301 21 13c-10.667 2 -16 7 -16 15c0 3.33301 1 6.66602 3 9.99902c12 -9.33301 20.667 -14 26 -14
c0.666992 0 6.5 3 17.5 9s26.167 8.66699 45.5 8c12.667 -1.33301 23.334 -3.66602 32.001 -6.99902c22.667 -8 36 -20.333 40 -37zM691.998 215h-175.999c20 38.667 49.333 58 88 58c39.333 0 68.666 -19.333 87.999 -58zM690.999 205
c-6 -20.667 -16.332 -38.001 -30.999 -52.001c-16.667 -15.333 -35 -23 -55 -23c-20.667 0 -38.834 7.33301 -54.501 22s-26.5 32.334 -32.5 53.001h10c19.333 -15.333 45 -23 77 -23s56 7.66699 72 23h14zM721 441.999c0 3.33301 -1.66699 5 -5 5s-5 -1.66699 -5 -5
s1.66699 -5 5 -5s5 1.66699 5 5zM718 427.999c0 6 -3 9 -9 9c-5.33301 0 -8 -3 -8 -9s2.66699 -9 8 -9c6 0 9 3 9 9zM495 441.999c0 3.33301 -2 5 -6 5c-3.33301 0 -5 -1.66699 -5 -5s1.66699 -5 5 -5c4 0 6 1.66699 6 5zM491 427.999c0 6 -3 9 -9 9c-5.33301 0 -8 -3 -8 -9
s2.66699 -9 8 -9c6 0 9 3 9 9z" />
    <glyph glyph-name="oslash" unicode="&#xf8;" horiz-adv-x="769" 
d="M412 705c100 0 184.667 -34.667 254 -104s104 -154 104 -254s-34.667 -184.667 -104 -254s-154 -104 -254 -104s-184.667 34.667 -254 104s-104 154 -104 254s34.667 184.667 104 254s154 104 254 104zM412 570c-63.333 0 -116.333 -21.333 -159 -64
s-64 -95.667 -64 -159c0 -62.667 21.5 -115.5 64.5 -158.5s95.833 -64.5 158.5 -64.5s115.5 21.5 158.5 64.5s64.5 95.833 64.5 158.5s-21.5 115.5 -64.5 158.5s-95.833 64.5 -158.5 64.5z" />
    <glyph glyph-name="ugrave" unicode="&#xf9;" horiz-adv-x="486" 
d="M189 431l-0.00195312 -223.998c0 -22.667 7.83301 -41.834 23.5 -57.501s34.834 -23.5 57.501 -23.5s41.667 7.83301 57 23.5s23 34.834 23 57.501v226c0 20 6.33301 36.167 19 48.5s29 18.5 49 18.5s36.167 -6.16699 48.5 -18.5s18.5 -28.5 18.5 -48.5v-226
c0 -60.667 -20.667 -111.834 -62 -153.501s-92.333 -62.5 -153 -62.5c-61.333 0 -112.666 20.667 -153.999 62s-62 92.666 -62 153.999v224c0 20 6.16699 36.333 18.5 49s28.5 19 48.5 19s36.333 -6.33301 49 -19s19 -29 19 -49zM306.998 779.002
c-14 34 -39.668 51 -77.001 51c-10.667 0 -21 -2 -31 -6c-34 -14 -51 -39.667 -51 -77c0 -10.667 2 -21 6 -31l47 -114c14 -34 39.333 -51 76 -51c10.667 0 21.334 2.33301 32.001 7c34 14.667 51 40 51 76c0 12 -2 22.667 -6 32z" />
    <glyph glyph-name="uacute" unicode="&#xfa;" horiz-adv-x="486" 
d="M189 431l-0.00195312 -223.998c0 -22.667 7.83301 -41.834 23.5 -57.501s34.834 -23.5 57.501 -23.5s41.667 7.83301 57 23.5s23 34.834 23 57.501v226c0 20 6.33301 36.167 19 48.5s29 18.5 49 18.5s36.167 -6.16699 48.5 -18.5s18.5 -28.5 18.5 -48.5v-226
c0 -60.667 -20.667 -111.834 -62 -153.501s-92.333 -62.5 -153 -62.5c-61.333 0 -112.666 20.667 -153.999 62s-62 92.666 -62 153.999v224c0 20 6.16699 36.333 18.5 49s28.5 19 48.5 19s36.333 -6.33301 49 -19s19 -29 19 -49zM250.998 779.002c14 34 39.333 51 76 51
c11.333 0 22 -2 32 -6c34 -14 51 -39.667 51 -77c0 -10.667 -2 -21 -6 -31l-47 -114c-14 -34 -39.667 -51 -77 -51c-10 0 -20.333 2.33301 -31 7c-34 14.667 -51 40 -51 76c0 12 2 22.667 6 32z" />
    <glyph glyph-name="ucircumflex" unicode="&#xfb;" horiz-adv-x="486" 
d="M189 431l-0.00195312 -223.998c0 -22.667 7.83301 -41.834 23.5 -57.501s34.834 -23.5 57.501 -23.5s41.667 7.83301 57 23.5s23 34.834 23 57.501v226c0 20 6.33301 36.167 19 48.5s29 18.5 49 18.5s36.167 -6.16699 48.5 -18.5s18.5 -28.5 18.5 -48.5v-226
c0 -60.667 -20.667 -111.834 -62 -153.501s-92.333 -62.5 -153 -62.5c-61.333 0 -112.666 20.667 -153.999 62s-62 92.666 -62 153.999v224c0 20 6.16699 36.333 18.5 49s28.5 19 48.5 19s36.333 -6.33301 49 -19s19 -29 19 -49zM427.998 671.002
c-50.667 50 -80.668 79.333 -90.001 88c-22 20 -40.667 30 -56 30c-14 0 -32.333 -10 -55 -30c-11.333 -10 -41.333 -39.333 -90 -88c-14 -14 -21 -29.667 -21 -47c0 -18.667 6.83301 -34.834 20.5 -48.501s29.834 -20.5 48.501 -20.5c17.333 0 33 7 47 21l50 49l50 -49
c14 -14 29.667 -21 47 -21c18.667 0 35 6.83301 49 20.5s21 29.834 21 48.501c0 17.333 -7 33 -21 47z" />
    <glyph glyph-name="udieresis" unicode="&#xfc;" horiz-adv-x="486" 
d="M189 431l-0.00195312 -223.998c0 -22.667 7.83301 -41.834 23.5 -57.501s34.834 -23.5 57.501 -23.5s41.667 7.83301 57 23.5s23 34.834 23 57.501v226c0 20 6.33301 36.167 19 48.5s29 18.5 49 18.5s36.167 -6.16699 48.5 -18.5s18.5 -28.5 18.5 -48.5v-226
c0 -60.667 -20.667 -111.834 -62 -153.501s-92.333 -62.5 -153 -62.5c-61.333 0 -112.666 20.667 -153.999 62s-62 92.666 -62 153.999v224c0 20 6.16699 36.333 18.5 49s28.5 19 48.5 19s36.333 -6.33301 49 -19s19 -29 19 -49zM176.998 565.002c23.333 0 43 8 59 24
s24 35.667 24 59c0 22.667 -8.16699 42 -24.5 58s-35.833 24 -58.5 24s-42.167 -8 -58.5 -24s-24.5 -35.333 -24.5 -58c0 -23.333 8 -43 24 -59s35.667 -24 59 -24zM368.998 565.002c23.333 0 42.833 8 58.5 24s23.5 35.667 23.5 59c0 22.667 -8 42 -24 58
s-35.333 24 -58 24c-23.333 0 -43 -7.83301 -59 -23.5s-24 -35.167 -24 -58.5s8 -43 24 -59s35.667 -24 59 -24z" />
    <glyph glyph-name="thorn" unicode="&#xfe;" horiz-adv-x="1103" 
d="M1119 520c22 -29.333 32.9971 -58.998 32.9971 -88.998c0 -37.333 -15.333 -70.333 -46 -99c3.33301 -9.33301 5 -18 5 -26c0 -30.667 -22 -49 -66 -55c0.666992 -5.33301 1 -10.666 1 -15.999c0 -48.667 -29 -78.667 -87 -90c-8.66699 -52.667 -39.667 -79 -93 -79
c-30 0 -62.333 7.66699 -97 23v-1c-2.66699 1.33301 -5.66699 3.33301 -9 6l-75 -56c-32 -23.333 -59.667 -35 -83 -35c-52.667 0 -119 39 -199 117v-1c-45.333 -20.667 -87.333 -31 -126 -31c-39.333 0 -74.333 10.667 -105 32c-23.333 16.667 -41.666 37.667 -54.999 63
c-12 21.333 -16.667 35.333 -14 42c-32 17.333 -56.667 37.666 -74 60.999c52 -0.666992 87 11.333 105 36c-43.333 0 -71 31 -83 93c66 35.333 109.667 71.666 131 108.999c-70 -6.66699 -115.667 19.333 -137 78c120.667 23.333 195.334 70.333 224.001 141
c21.333 74.667 59.333 141 114 199c70 74.667 137 88 201 40c18 2.66699 35.667 4 53 4c120.667 0 221.334 -58.333 302.001 -175c33.333 -48.667 61.333 -107 84 -175c5.33301 -20.667 8 -44 8 -70c0 -32.667 -4.66699 -64.334 -14 -95.001
c19.333 -13.333 36.333 -20 51 -20c28.667 0 45.667 23 51 69zM869.997 503.002c-8.66699 36 -22.668 70.999 -42.001 104.999c-46.667 81.333 -116 151.666 -208 210.999c-72.667 2.66699 -124.667 -26 -156 -86c-13.333 -25.333 -22 -55.666 -26 -90.999
c-0.666992 -26.667 -3.33398 -51.334 -8.00098 -74.001c8.66699 1.33301 18.334 2 29.001 2c50 0 83.667 -12.333 101 -37c-3.33301 -2.66699 -9 -4 -17 -4c-14.667 0 -34.667 4.33301 -60 13c-21.333 8.66699 -40 12.667 -56 12c-6 -22 -13 -41.333 -21 -58
c-18.667 -40.667 -40.667 -66 -66 -76c-4 -5.33301 -12.333 -11.666 -25 -18.999c16.667 -80 39 -137.667 67 -173c46 -57.333 79.333 -95.666 100 -114.999c42.667 -39.333 82.667 -59 120 -59s77 19.667 119 59c20.667 19.333 54 58 100 116
c26.667 32.667 42.334 74.667 47.001 126c1.33301 10.667 2 60 2 148zM843.996 536.001c-5.33301 -3.33301 -12.3301 -2.99902 -20.9971 1.00098c-14.667 8.66699 -28.667 13 -42 13c-14.667 0 -32 -3.66699 -52 -11c-24.667 -9.33301 -44.334 -14 -59.001 -14
c-8 0 -13.667 1.66699 -17 5c17.333 24 50.666 36 99.999 36c12 0 23.167 -0.833008 33.5 -2.5s19.166 -3.83398 26.499 -6.50098c18 -6 28.333 -13 31 -21zM821.999 446.002c-8 -8 -16.3311 -12.001 -24.998 -12.001c-8 0 -15.5 3.33301 -22.5 10s-15.833 11.667 -26.5 15
c2.66699 -5.33301 4 -11 4 -17c0 -9.33301 -3.33301 -17.333 -10 -24s-14.667 -10 -24 -10s-17.333 3.33301 -24 10s-10 14.667 -10 24c0 8 2.66699 15 8 21c-15.333 -6 -23 -14 -23 -24c0 -2.66699 0.666992 -5.66699 2 -9l-17 5c3.33301 8 7.66602 14.667 12.999 20
c12 14 27.333 21.333 46 22v-1c1.33301 0.666992 3 1 5 1c23.333 0.666992 42.333 -3 57 -11c4 -2.66699 8.33301 -4 13 -4c9.33301 0 17.333 4.33301 24 13c1.33301 -12 -4.33398 -19.333 -17.001 -22c8.66699 -7.33301 17.667 -9.66602 27 -6.99902zM565.001 434.001
l-17.0029 -5.00098c0.666992 2.66699 1 5.33398 1 8.00098c0 14.667 -10.667 23.334 -32 26.001c4.66699 -6 7 -12.667 7 -20c0 -9.33301 -3.16699 -17.166 -9.5 -23.499s-14.166 -9.5 -23.499 -9.5s-17.166 3.16699 -23.499 9.5s-9.5 14.166 -9.5 23.499
c0 6 1.33301 11.333 4 16c-7.33301 -2.66699 -13 -6.33398 -17 -11.001c-9.33301 -12 -19.333 -18 -30 -18c-6.66699 0 -13 2.33301 -19 7c5.33301 0 12.333 4.33301 21 13c-10.667 2 -16 7 -16 15c0 3.33301 1 6.66602 3 9.99902c12 -9.33301 20.667 -14 26 -14
c0.666992 0 6.5 3 17.5 9s26.167 8.66699 45.5 8c12.667 -1.33301 23.334 -3.66602 32.001 -6.99902c22.667 -8 36 -20.333 40 -37zM691.998 215h-175.999c20 38.667 49.333 58 88 58c39.333 0 68.666 -19.333 87.999 -58zM690.999 205
c-6 -20.667 -16.332 -38.001 -30.999 -52.001c-16.667 -15.333 -35 -23 -55 -23c-20.667 0 -38.834 7.33301 -54.501 22s-26.5 32.334 -32.5 53.001h10c19.333 -15.333 45 -23 77 -23s56 7.66699 72 23h14zM721 441.999c0 3.33301 -1.66699 5 -5 5s-5 -1.66699 -5 -5
s1.66699 -5 5 -5s5 1.66699 5 5zM718 427.999c0 6 -3 9 -9 9c-5.33301 0 -8 -3 -8 -9s2.66699 -9 8 -9c6 0 9 3 9 9zM495 441.999c0 3.33301 -2 5 -6 5c-3.33301 0 -5 -1.66699 -5 -5s1.66699 -5 5 -5c4 0 6 1.66699 6 5zM491 427.999c0 6 -3 9 -9 9c-5.33301 0 -8 -3 -8 -9
s2.66699 -9 8 -9c6 0 9 3 9 9z" />
    <glyph glyph-name="ydieresis" unicode="&#xff;" horiz-adv-x="486" 
d="M270 -9c-61.333 0 -112.667 20.6689 -154 62.002s-62 92.666 -62 153.999v226c0 20 6.16699 36.167 18.5 48.5s28.5 18.5 48.5 18.5c45.333 0 68 -22.333 68 -67v-226c0 -22.667 7.83301 -41.834 23.5 -57.501s34.834 -23.5 57.501 -23.5s41.667 7.83301 57 23.5
s23 34.834 23 57.501v226c0 20 6.33301 36.167 19 48.5s29 18.5 49 18.5s36.167 -6.16699 48.5 -18.5s18.5 -28.5 18.5 -48.5v-446c0 -60.667 -20.833 -111.834 -62.5 -153.501s-92.834 -62.5 -153.501 -62.5h-4c-20 0 -36.333 6.16699 -49 18.5s-19 28.5 -19 48.5
s6.33301 36.333 19 49s29 19 49 19h4c22 0 41 8 57 24s24 35 24 57v19c-25.333 -10 -52 -15 -80 -15zM176.999 565.002c23.333 0 43 8 59 24s24 35.667 24 59c0 22.667 -8.16699 42 -24.5 58s-35.833 24 -58.5 24s-42.167 -8 -58.5 -24s-24.5 -35.333 -24.5 -58
c0 -23.333 8 -43 24 -59s35.667 -24 59 -24zM368.999 565.002c23.333 0 42.833 8 58.5 24s23.5 35.667 23.5 59c0 22.667 -8 42 -24 58s-35.333 24 -58 24c-23.333 0 -43 -7.83301 -59 -23.5s-24 -35.167 -24 -58.5s8 -43 24 -59s35.667 -24 59 -24z" />
    <glyph glyph-name="dotlessi" unicode="&#x131;" horiz-adv-x="190" 
d="M189 58c0 -20 -6.33301 -36.167 -19 -48.5s-29 -18.5 -49 -18.5s-36.167 6.16699 -48.5 18.5s-18.5 28.5 -18.5 48.5v375c0 20 6.16699 36.167 18.5 48.5s28.5 18.5 48.5 18.5c45.333 0 68 -22.333 68 -67v-375z" />
    <glyph glyph-name="Lslash" unicode="&#x141;" horiz-adv-x="1103" 
d="M1119 520c22 -29.333 32.9971 -58.998 32.9971 -88.998c0 -37.333 -15.333 -70.333 -46 -99c3.33301 -9.33301 5 -18 5 -26c0 -30.667 -22 -49 -66 -55c0.666992 -5.33301 1 -10.666 1 -15.999c0 -48.667 -29 -78.667 -87 -90c-8.66699 -52.667 -39.667 -79 -93 -79
c-30 0 -62.333 7.66699 -97 23v-1c-2.66699 1.33301 -5.66699 3.33301 -9 6l-75 -56c-32 -23.333 -59.667 -35 -83 -35c-52.667 0 -119 39 -199 117v-1c-45.333 -20.667 -87.333 -31 -126 -31c-39.333 0 -74.333 10.667 -105 32c-23.333 16.667 -41.666 37.667 -54.999 63
c-12 21.333 -16.667 35.333 -14 42c-32 17.333 -56.667 37.666 -74 60.999c52 -0.666992 87 11.333 105 36c-43.333 0 -71 31 -83 93c66 35.333 109.667 71.666 131 108.999c-70 -6.66699 -115.667 19.333 -137 78c120.667 23.333 195.334 70.333 224.001 141
c21.333 74.667 59.333 141 114 199c70 74.667 137 88 201 40c18 2.66699 35.667 4 53 4c120.667 0 221.334 -58.333 302.001 -175c33.333 -48.667 61.333 -107 84 -175c5.33301 -20.667 8 -44 8 -70c0 -32.667 -4.66699 -64.334 -14 -95.001
c19.333 -13.333 36.333 -20 51 -20c28.667 0 45.667 23 51 69zM869.997 503.002c-8.66699 36 -22.668 70.999 -42.001 104.999c-46.667 81.333 -116 151.666 -208 210.999c-72.667 2.66699 -124.667 -26 -156 -86c-13.333 -25.333 -22 -55.666 -26 -90.999
c-0.666992 -26.667 -3.33398 -51.334 -8.00098 -74.001c8.66699 1.33301 18.334 2 29.001 2c50 0 83.667 -12.333 101 -37c-3.33301 -2.66699 -9 -4 -17 -4c-14.667 0 -34.667 4.33301 -60 13c-21.333 8.66699 -40 12.667 -56 12c-6 -22 -13 -41.333 -21 -58
c-18.667 -40.667 -40.667 -66 -66 -76c-4 -5.33301 -12.333 -11.666 -25 -18.999c16.667 -80 39 -137.667 67 -173c46 -57.333 79.333 -95.666 100 -114.999c42.667 -39.333 82.667 -59 120 -59s77 19.667 119 59c20.667 19.333 54 58 100 116
c26.667 32.667 42.334 74.667 47.001 126c1.33301 10.667 2 60 2 148zM843.996 536.001c-5.33301 -3.33301 -12.3301 -2.99902 -20.9971 1.00098c-14.667 8.66699 -28.667 13 -42 13c-14.667 0 -32 -3.66699 -52 -11c-24.667 -9.33301 -44.334 -14 -59.001 -14
c-8 0 -13.667 1.66699 -17 5c17.333 24 50.666 36 99.999 36c12 0 23.167 -0.833008 33.5 -2.5s19.166 -3.83398 26.499 -6.50098c18 -6 28.333 -13 31 -21zM821.999 446.002c-8 -8 -16.3311 -12.001 -24.998 -12.001c-8 0 -15.5 3.33301 -22.5 10s-15.833 11.667 -26.5 15
c2.66699 -5.33301 4 -11 4 -17c0 -9.33301 -3.33301 -17.333 -10 -24s-14.667 -10 -24 -10s-17.333 3.33301 -24 10s-10 14.667 -10 24c0 8 2.66699 15 8 21c-15.333 -6 -23 -14 -23 -24c0 -2.66699 0.666992 -5.66699 2 -9l-17 5c3.33301 8 7.66602 14.667 12.999 20
c12 14 27.333 21.333 46 22v-1c1.33301 0.666992 3 1 5 1c23.333 0.666992 42.333 -3 57 -11c4 -2.66699 8.33301 -4 13 -4c9.33301 0 17.333 4.33301 24 13c1.33301 -12 -4.33398 -19.333 -17.001 -22c8.66699 -7.33301 17.667 -9.66602 27 -6.99902zM565.001 434.001
l-17.0029 -5.00098c0.666992 2.66699 1 5.33398 1 8.00098c0 14.667 -10.667 23.334 -32 26.001c4.66699 -6 7 -12.667 7 -20c0 -9.33301 -3.16699 -17.166 -9.5 -23.499s-14.166 -9.5 -23.499 -9.5s-17.166 3.16699 -23.499 9.5s-9.5 14.166 -9.5 23.499
c0 6 1.33301 11.333 4 16c-7.33301 -2.66699 -13 -6.33398 -17 -11.001c-9.33301 -12 -19.333 -18 -30 -18c-6.66699 0 -13 2.33301 -19 7c5.33301 0 12.333 4.33301 21 13c-10.667 2 -16 7 -16 15c0 3.33301 1 6.66602 3 9.99902c12 -9.33301 20.667 -14 26 -14
c0.666992 0 6.5 3 17.5 9s26.167 8.66699 45.5 8c12.667 -1.33301 23.334 -3.66602 32.001 -6.99902c22.667 -8 36 -20.333 40 -37zM691.998 215h-175.999c20 38.667 49.333 58 88 58c39.333 0 68.666 -19.333 87.999 -58zM690.999 205
c-6 -20.667 -16.332 -38.001 -30.999 -52.001c-16.667 -15.333 -35 -23 -55 -23c-20.667 0 -38.834 7.33301 -54.501 22s-26.5 32.334 -32.5 53.001h10c19.333 -15.333 45 -23 77 -23s56 7.66699 72 23h14zM721 441.999c0 3.33301 -1.66699 5 -5 5s-5 -1.66699 -5 -5
s1.66699 -5 5 -5s5 1.66699 5 5zM718 427.999c0 6 -3 9 -9 9c-5.33301 0 -8 -3 -8 -9s2.66699 -9 8 -9c6 0 9 3 9 9zM495 441.999c0 3.33301 -2 5 -6 5c-3.33301 0 -5 -1.66699 -5 -5s1.66699 -5 5 -5c4 0 6 1.66699 6 5zM491 427.999c0 6 -3 9 -9 9c-5.33301 0 -8 -3 -8 -9
s2.66699 -9 8 -9c6 0 9 3 9 9z" />
    <glyph glyph-name="lslash" unicode="&#x142;" horiz-adv-x="1103" 
d="M1119 520c22 -29.333 32.9971 -58.998 32.9971 -88.998c0 -37.333 -15.333 -70.333 -46 -99c3.33301 -9.33301 5 -18 5 -26c0 -30.667 -22 -49 -66 -55c0.666992 -5.33301 1 -10.666 1 -15.999c0 -48.667 -29 -78.667 -87 -90c-8.66699 -52.667 -39.667 -79 -93 -79
c-30 0 -62.333 7.66699 -97 23v-1c-2.66699 1.33301 -5.66699 3.33301 -9 6l-75 -56c-32 -23.333 -59.667 -35 -83 -35c-52.667 0 -119 39 -199 117v-1c-45.333 -20.667 -87.333 -31 -126 -31c-39.333 0 -74.333 10.667 -105 32c-23.333 16.667 -41.666 37.667 -54.999 63
c-12 21.333 -16.667 35.333 -14 42c-32 17.333 -56.667 37.666 -74 60.999c52 -0.666992 87 11.333 105 36c-43.333 0 -71 31 -83 93c66 35.333 109.667 71.666 131 108.999c-70 -6.66699 -115.667 19.333 -137 78c120.667 23.333 195.334 70.333 224.001 141
c21.333 74.667 59.333 141 114 199c70 74.667 137 88 201 40c18 2.66699 35.667 4 53 4c120.667 0 221.334 -58.333 302.001 -175c33.333 -48.667 61.333 -107 84 -175c5.33301 -20.667 8 -44 8 -70c0 -32.667 -4.66699 -64.334 -14 -95.001
c19.333 -13.333 36.333 -20 51 -20c28.667 0 45.667 23 51 69zM869.997 503.002c-8.66699 36 -22.668 70.999 -42.001 104.999c-46.667 81.333 -116 151.666 -208 210.999c-72.667 2.66699 -124.667 -26 -156 -86c-13.333 -25.333 -22 -55.666 -26 -90.999
c-0.666992 -26.667 -3.33398 -51.334 -8.00098 -74.001c8.66699 1.33301 18.334 2 29.001 2c50 0 83.667 -12.333 101 -37c-3.33301 -2.66699 -9 -4 -17 -4c-14.667 0 -34.667 4.33301 -60 13c-21.333 8.66699 -40 12.667 -56 12c-6 -22 -13 -41.333 -21 -58
c-18.667 -40.667 -40.667 -66 -66 -76c-4 -5.33301 -12.333 -11.666 -25 -18.999c16.667 -80 39 -137.667 67 -173c46 -57.333 79.333 -95.666 100 -114.999c42.667 -39.333 82.667 -59 120 -59s77 19.667 119 59c20.667 19.333 54 58 100 116
c26.667 32.667 42.334 74.667 47.001 126c1.33301 10.667 2 60 2 148zM843.996 536.001c-5.33301 -3.33301 -12.3301 -2.99902 -20.9971 1.00098c-14.667 8.66699 -28.667 13 -42 13c-14.667 0 -32 -3.66699 -52 -11c-24.667 -9.33301 -44.334 -14 -59.001 -14
c-8 0 -13.667 1.66699 -17 5c17.333 24 50.666 36 99.999 36c12 0 23.167 -0.833008 33.5 -2.5s19.166 -3.83398 26.499 -6.50098c18 -6 28.333 -13 31 -21zM821.999 446.002c-8 -8 -16.3311 -12.001 -24.998 -12.001c-8 0 -15.5 3.33301 -22.5 10s-15.833 11.667 -26.5 15
c2.66699 -5.33301 4 -11 4 -17c0 -9.33301 -3.33301 -17.333 -10 -24s-14.667 -10 -24 -10s-17.333 3.33301 -24 10s-10 14.667 -10 24c0 8 2.66699 15 8 21c-15.333 -6 -23 -14 -23 -24c0 -2.66699 0.666992 -5.66699 2 -9l-17 5c3.33301 8 7.66602 14.667 12.999 20
c12 14 27.333 21.333 46 22v-1c1.33301 0.666992 3 1 5 1c23.333 0.666992 42.333 -3 57 -11c4 -2.66699 8.33301 -4 13 -4c9.33301 0 17.333 4.33301 24 13c1.33301 -12 -4.33398 -19.333 -17.001 -22c8.66699 -7.33301 17.667 -9.66602 27 -6.99902zM565.001 434.001
l-17.0029 -5.00098c0.666992 2.66699 1 5.33398 1 8.00098c0 14.667 -10.667 23.334 -32 26.001c4.66699 -6 7 -12.667 7 -20c0 -9.33301 -3.16699 -17.166 -9.5 -23.499s-14.166 -9.5 -23.499 -9.5s-17.166 3.16699 -23.499 9.5s-9.5 14.166 -9.5 23.499
c0 6 1.33301 11.333 4 16c-7.33301 -2.66699 -13 -6.33398 -17 -11.001c-9.33301 -12 -19.333 -18 -30 -18c-6.66699 0 -13 2.33301 -19 7c5.33301 0 12.333 4.33301 21 13c-10.667 2 -16 7 -16 15c0 3.33301 1 6.66602 3 9.99902c12 -9.33301 20.667 -14 26 -14
c0.666992 0 6.5 3 17.5 9s26.167 8.66699 45.5 8c12.667 -1.33301 23.334 -3.66602 32.001 -6.99902c22.667 -8 36 -20.333 40 -37zM691.998 215h-175.999c20 38.667 49.333 58 88 58c39.333 0 68.666 -19.333 87.999 -58zM690.999 205
c-6 -20.667 -16.332 -38.001 -30.999 -52.001c-16.667 -15.333 -35 -23 -55 -23c-20.667 0 -38.834 7.33301 -54.501 22s-26.5 32.334 -32.5 53.001h10c19.333 -15.333 45 -23 77 -23s56 7.66699 72 23h14zM721 441.999c0 3.33301 -1.66699 5 -5 5s-5 -1.66699 -5 -5
s1.66699 -5 5 -5s5 1.66699 5 5zM718 427.999c0 6 -3 9 -9 9c-5.33301 0 -8 -3 -8 -9s2.66699 -9 8 -9c6 0 9 3 9 9zM495 441.999c0 3.33301 -2 5 -6 5c-3.33301 0 -5 -1.66699 -5 -5s1.66699 -5 5 -5c4 0 6 1.66699 6 5zM491 427.999c0 6 -3 9 -9 9c-5.33301 0 -8 -3 -8 -9
s2.66699 -9 8 -9c6 0 9 3 9 9z" />
    <glyph glyph-name="OE" unicode="&#x152;" horiz-adv-x="1064" 
d="M412 570c-63.333 0 -116.333 -21.333 -159 -64s-64 -95.667 -64 -159c0 -62.667 21.5 -115.5 64.5 -158.5s95.833 -64.5 158.5 -64.5s115.5 21.5 158.5 64.5s64.5 95.833 64.5 158.5s-21.5 115.5 -64.5 158.5s-95.833 64.5 -158.5 64.5zM993 -11
c-58 0 -112.501 13.167 -163.501 39.5s-93.167 62.833 -126.5 109.5c-34 -46.667 -76.667 -83.167 -128 -109.5s-105.666 -39.5 -162.999 -39.5c-100 0 -184.667 34.667 -254 104s-104 154 -104 254s34.667 184.667 104 254s154 104 254 104c122 0 219 -49.667 291 -149
c33.333 46.667 75.5 83.167 126.5 109.5s105.5 39.5 163.5 39.5c20 0 36.333 -6.16699 49 -18.5s19 -28.5 19 -48.5s-6.33301 -36.333 -19 -49s-29 -19 -49 -19c-48 0 -91.333 -13.833 -130 -41.5s-65.667 -64.167 -81 -109.5h211c20 0 36.333 -6.16699 49 -18.5
s19 -28.5 19 -48.5s-6.33301 -36.333 -19 -49s-29 -19 -49 -19h-214c14 -47.333 40.833 -85.833 80.5 -115.5s84.167 -44.5 133.5 -44.5c20 0 36.333 -6.33301 49 -19s19 -29 19 -49s-6.33301 -36.167 -19 -48.5s-29 -18.5 -49 -18.5z" />
    <glyph glyph-name="oe" unicode="&#x153;" horiz-adv-x="891" 
d="M309 365c-33.333 0 -61.666 -11.667 -84.999 -35s-35 -51.666 -35 -84.999s11.667 -61.833 35 -85.5s51.666 -35.5 84.999 -35.5s61.833 11.833 85.5 35.5s35.5 52.167 35.5 85.5s-11.833 61.666 -35.5 84.999s-52.167 35 -85.5 35zM861 321l-128 -125.002
c-14.667 -14 -30 -21 -46 -21c-18.667 0 -35 7 -49 21s-21 30.333 -21 49c0 16.667 7.33301 32.334 22 47.001l72 71c-8.66699 1.33301 -17.334 2 -26.001 2c-33.333 0 -61.666 -11.667 -84.999 -35s-35 -51.666 -35 -84.999s11.667 -61.833 35 -85.5
s51.666 -35.5 84.999 -35.5h89c20 0 36.333 -6.16699 49 -18.5s19 -28.5 19 -48.5c0 -19.333 -6.5 -35.5 -19.5 -48.5s-29.167 -19.5 -48.5 -19.5h-89c-74.667 0 -137.334 27.667 -188.001 83c-50.667 -55.333 -113.334 -83 -188.001 -83c-72 0 -132.5 24.667 -181.5 74
s-73.5 110 -73.5 182s24.5 132.5 73.5 181.5s109.5 73.5 181.5 73.5c74.667 0 137.334 -27.333 188.001 -82c50.667 54.667 113.334 82 188.001 82c72.667 0 134.334 -26 185.001 -78c13.333 -14 20 -29.333 20 -46c0 -22 -9.66699 -40.333 -29 -55z" />
    <glyph glyph-name="Scaron" unicode="&#x160;" horiz-adv-x="444" 
d="M334 553c-12 -12 -18 -26.666 -18 -43.999l1 -323c0 -54.667 -19 -101 -57 -139s-84.333 -57 -139 -57c-20 0 -36.167 6.16699 -48.5 18.5s-18.5 28.5 -18.5 48.5s6.16699 36.333 18.5 49s28.5 19 48.5 19c17.333 0 31.833 5.83301 43.5 17.5s17.5 26.167 17.5 43.5
l-1 323c0 55.333 19 101.833 57 139.5s84.333 56.5 139 56.5c20 0 36.333 -6.16699 49 -18.5s19 -28.5 19 -48.5s-5.83301 -35.833 -17.5 -47.5s-27.667 -18.334 -48 -20.001s-35.5 -7.5 -45.5 -17.5zM107 866.001c52 -52.667 82 -82.335 90 -89.002
c22.667 -19.333 41 -29 55 -29c15.333 0 34 9.66699 56 29c5.33301 4.66699 35.333 34.334 90 89.001c14 14 21 29.667 21 47c0 18.667 -7 34.834 -21 48.501s-30.333 20.5 -49 20.5c-17.333 0 -33 -7 -47 -21l-50 -50l-50 50c-14 14 -29.667 21 -47 21
c-18 0 -34 -7 -48 -21s-21 -30 -21 -48c0 -17.333 7 -33 21 -47z" />
    <glyph glyph-name="scaron" unicode="&#x161;" horiz-adv-x="446" 
d="M318 304l-0.998047 -116.001c-0.666992 -54.667 -19.834 -101 -57.501 -139s-83.834 -57 -138.501 -57c-20 0 -36.167 6.16699 -48.5 18.5s-18.5 28.5 -18.5 48.5s6.16699 36.333 18.5 49s28.5 19 48.5 19c17.333 0 31.833 5.83301 43.5 17.5s17.5 26.167 17.5 43.5v20
c0.666992 26.667 1 40.334 1 41.001v55c0 55.333 18.833 101.833 56.5 139.5s84.167 56.5 139.5 56.5c20 0 36.333 -6.16699 49 -18.5s19 -28.5 19 -48.5c0 -19.333 -6 -35 -18 -47s-27.833 -18.833 -47.5 -20.5s-35.167 -8.16699 -46.5 -19.5s-17 -25.333 -17 -42z
M107.002 665.999c52 -52.667 82 -82.335 90 -89.002c22.667 -19.333 41 -29 55 -29c15.333 0 34 9.66699 56 29c5.33301 4.66699 35.333 34.334 90 89.001c14 14 21 29.667 21 47c0 18.667 -7 34.834 -21 48.501s-30.333 20.5 -49 20.5c-17.333 0 -33 -7 -47 -21l-50 -50
l-50 50c-14 14 -29.667 21 -47 21c-18 0 -34 -7 -48 -21s-21 -30 -21 -48c0 -17.333 7 -33 21 -47z" />
    <glyph glyph-name="Ydieresis" unicode="&#x178;" horiz-adv-x="486" 
d="M485 207c0 -60.667 -20.6709 -111.831 -62.0039 -153.498s-92.333 -62.5 -153 -62.5c-61.333 0 -112.666 20.667 -153.999 62s-62 92.666 -62 153.999v10c0 20 6.16699 36.167 18.5 48.5s28.5 18.5 48.5 18.5s36.333 -6.16699 49 -18.5s19 -28.5 19 -48.5v-10
c0 -22.667 7.83301 -41.834 23.5 -57.501s34.834 -23.5 57.501 -23.5s41.667 7.83301 57 23.5s23 34.834 23 57.501v96c-25.333 -10.667 -52 -16 -80 -16c-61.333 0 -112.666 20.667 -153.999 62s-62 92.666 -62 153.999v135c0 20 6.16699 36.167 18.5 48.5
s28.5 18.5 48.5 18.5s36.333 -6.16699 49 -18.5s19 -28.5 19 -48.5v-135c0 -22.667 7.83301 -41.834 23.5 -57.501s34.834 -23.5 57.501 -23.5s41.667 7.83301 57 23.5s23 34.834 23 57.501v0v135c0 19.333 6.5 35.333 19.5 48s29.167 19 48.5 19
c20 0 36.167 -6.16699 48.5 -18.5s18.5 -28.5 18.5 -48.5v-431zM176.996 765.003c23.333 0 43 8 59 24s24 35.667 24 59c0 22.667 -8.16699 42 -24.5 58s-35.833 24 -58.5 24s-42.167 -8 -58.5 -24s-24.5 -35.333 -24.5 -58c0 -23.333 8 -43 24 -59s35.667 -24 59 -24z
M368.996 765.003c23.333 0 42.833 8 58.5 24s23.5 35.667 23.5 59c0 22.667 -8 42 -24 58s-35.333 24 -58 24c-23.333 0 -43 -7.83301 -59 -23.5s-24 -35.167 -24 -58.5s8 -43 24 -59s35.667 -24 59 -24z" />
    <glyph glyph-name="Zcaron" unicode="&#x17d;" horiz-adv-x="479" 
d="M121 705l286 -0.000976562c48 0 72 -19 72 -57c0 -13.333 -4.66699 -28 -14 -44l-281 -478h227c20 0 36.167 -6.33301 48.5 -19s18.5 -29 18.5 -49s-6.16699 -36.167 -18.5 -48.5s-28.5 -18.5 -48.5 -18.5h-345c-19.333 0 -36 4.83301 -50 14.5s-21 23.834 -21 42.501
c0 15.333 4.33301 30.333 13 45l281 477h-168c-20 0 -36.167 6.33301 -48.5 19s-18.5 29 -18.5 49s6.16699 36.167 18.5 48.5s28.5 18.5 48.5 18.5zM127 865.999c52 -52.667 82 -82.335 90 -89.002c22.667 -19.333 41 -29 55 -29c15.333 0 34 9.66699 56 29
c5.33301 4.66699 35.333 34.334 90 89.001c14 14 21 29.667 21 47c0 18.667 -7 34.834 -21 48.501s-30.333 20.5 -49 20.5c-17.333 0 -33 -7 -47 -21l-50 -50l-50 50c-14 14 -29.667 21 -47 21c-18 0 -34 -7 -48 -21s-21 -30 -21 -48c0 -17.333 7 -33 21 -47z" />
    <glyph glyph-name="zcaron" unicode="&#x17e;" horiz-adv-x="437" 
d="M121 500h278c48 0 72 -14.667 72 -44c0 -34 -30.667 -87.667 -92 -161l-147 -169h136c20 0 36.167 -6.33301 48.5 -19s18.5 -29 18.5 -49c0 -19.333 -6.33301 -35.333 -19 -48s-28.667 -19 -48 -19h-280c-48.667 0 -73 15 -73 45c0 34 30.667 87.333 92 160l148 169h-134
c-19.333 0 -35.333 6.5 -48 19.5s-19 29.167 -19 48.5c0 20 6.16699 36.167 18.5 48.5s28.5 18.5 48.5 18.5zM107 666c52 -52.667 82 -82.335 90 -89.002c22.667 -19.333 41 -29 55 -29c15.333 0 34 9.66699 56 29c5.33301 4.66699 35.333 34.334 90 89.001
c14 14 21 29.667 21 47c0 18.667 -7 34.834 -21 48.501s-30.333 20.5 -49 20.5c-17.333 0 -33 -7 -47 -21l-50 -50l-50 50c-14 14 -29.667 21 -47 21c-18 0 -34 -7 -48 -21s-21 -30 -21 -48c0 -17.333 7 -33 21 -47z" />
    <glyph glyph-name="florin" unicode="&#x192;" horiz-adv-x="440" 
d="M313 313c20 0 36.167 -6.16699 48.5 -18.5s18.5 -28.5 18.5 -48.5s-6.16699 -36.333 -18.5 -49s-28.5 -19 -48.5 -19h-35v-178c0 -60.667 -20.833 -111.834 -62.5 -153.501s-92.834 -62.5 -153.501 -62.5h-14c-20 0 -36.167 6.33301 -48.5 19s-18.5 29 -18.5 49
s6.16699 36.167 18.5 48.5s28.5 18.5 48.5 18.5h14c22.667 0 41.834 7.83301 57.501 23.5s23.5 34.834 23.5 57.501v178h-21c-20 0 -36.167 6.33301 -48.5 19s-18.5 29 -18.5 49s6.16699 36.167 18.5 48.5s28.5 18.5 48.5 18.5h21v176c0 60.667 20.833 111.834 62.5 153.501
s92.834 62.5 153.501 62.5h14c44.667 0 67 -22.667 67 -68c0 -20 -6.16699 -36.167 -18.5 -48.5s-28.5 -18.5 -48.5 -18.5h-14c-22.667 0 -41.834 -7.83301 -57.501 -23.5s-23.5 -34.834 -23.5 -57.501v-176h35z" />
    <glyph glyph-name="circumflex" unicode="&#x2c6;" horiz-adv-x="389" 
d="M368 821c-50.667 50 -80.668 79.333 -90.001 88c-22 20 -40.667 30 -56 30c-14 0 -32.333 -10 -55 -30c-11.333 -10 -41.333 -39.333 -90 -88c-14 -14 -21 -29.667 -21 -47c0 -18.667 6.83301 -34.834 20.5 -48.501s29.834 -20.5 48.501 -20.5c17.333 0 33 7 47 21l50 49
l50 -49c14 -14 29.667 -21 47 -21c18.667 0 35 6.83301 49 20.5s21 29.834 21 48.501c0 17.333 -7 33 -21 47z" />
    <glyph glyph-name="caron" unicode="&#x2c7;" horiz-adv-x="389" 
d="M77 826c52 -52.667 82 -82.335 90 -89.002c22.667 -19.333 41 -29 55 -29c15.333 0 34 9.66699 56 29c5.33301 4.66699 35.333 34.334 90 89.001c14 14 21 29.667 21 47c0 18.667 -7 34.834 -21 48.501s-30.333 20.5 -49 20.5c-17.333 0 -33 -7 -47 -21l-50 -50l-50 50
c-14 14 -29.667 21 -47 21c-18 0 -34 -7 -48 -21s-21 -30 -21 -48c0 -17.333 7 -33 21 -47z" />
    <glyph glyph-name="breve" unicode="&#x2d8;" horiz-adv-x="436" 
d="M390 852c0 -40.667 -14.5 -75.5 -43.5 -104.5s-63.833 -43.5 -104.5 -43.5s-75.5 14.5 -104.5 43.5s-43.5 63.833 -43.5 104.5c0 20 6.33301 36.333 19 49s29 19 49 19s36.167 -6.33301 48.5 -19s18.5 -29 18.5 -49c0 -8.66699 4.33301 -13 13 -13s13 4.33301 13 13
c0 20 6.33301 36.333 19 49s29 19 49 19s36.167 -6.33301 48.5 -19s18.5 -29 18.5 -49z" />
    <glyph glyph-name="dotaccent" unicode="&#x2d9;" horiz-adv-x="436" 
d="M242 704c23.333 0 43 8 59 24s24 35.667 24 59c0 22.667 -8.16699 42 -24.5 58s-35.833 24 -58.5 24s-42.167 -8 -58.5 -24s-24.5 -35.333 -24.5 -58c0 -23.333 8 -43 24 -59s35.667 -24 59 -24z" />
    <glyph glyph-name="ring" unicode="&#x2da;" horiz-adv-x="263" 
d="M262 811c0 28.667 -10.167 53.167 -30.5 73.5s-44.833 30.5 -73.5 30.5s-53.167 -10.167 -73.5 -30.5s-30.5 -44.833 -30.5 -73.5s10.167 -53.167 30.5 -73.5s44.833 -30.5 73.5 -30.5s53.167 10.167 73.5 30.5s30.5 44.833 30.5 73.5zM158 782
c-19.333 0 -29 9.66699 -29 29s9.66699 29 29 29s29 -9.66699 29 -29s-9.66699 -29 -29 -29z" />
    <glyph glyph-name="ogonek" unicode="&#x2db;" horiz-adv-x="498" 
d="M424 -337l-44.002 0.00195312c-61.333 0 -112.666 20.667 -153.999 62s-62 92.666 -62 153.999v121h135v-121c0 -22.667 7.83301 -41.834 23.5 -57.501s34.834 -23.5 57.501 -23.5h44c20 0 36.167 -6.33301 48.5 -19s18.5 -29 18.5 -49s-6.16699 -36.167 -18.5 -48.5
s-28.5 -18.5 -48.5 -18.5z" />
    <glyph glyph-name="tilde" unicode="&#x2dc;" horiz-adv-x="393" 
d="M67 817c28 31.333 59.001 47.001 93.001 47.001c18 0 41 -6 69 -18l41 -19c2 0 3.33301 0.333008 4 1c14 16 30.333 24 49 24s35 -6.83301 49 -20.5s21 -29.834 21 -48.501c0 -16 -6.33301 -31 -19 -45c-28 -31.333 -58.667 -47 -92 -47c-16 0 -38.5 6.16699 -67.5 18.5
l-43.5 18.5c-1.33301 0 -2.33301 -0.333008 -3 -1c-14.667 -16 -31.334 -24 -50.001 -24c-18 0 -34 7 -48 21s-21 30 -21 48c0 16.667 6 31.667 18 45z" />
    <glyph glyph-name="hungarumlaut" unicode="&#x2dd;" horiz-adv-x="932" 
d="M932 60c0 -16.667 -5.83301 -30.834 -17.5 -42.501s-25.834 -17.5 -42.501 -17.5h-758c-16.667 0 -30.834 5.83301 -42.501 17.5s-17.5 25.834 -17.5 42.501v680c0 16.667 5.83301 30.834 17.5 42.501s25.834 17.5 42.501 17.5h758
c16.667 0 30.834 -5.83301 42.501 -17.5s17.5 -25.834 17.5 -42.501v-680zM885 563v57c0 21.333 -7.5 39.333 -22.5 54s-33.167 22 -54.5 22s-39.333 -7.33301 -54 -22s-22 -32.667 -22 -54s7.5 -39.5 22.5 -54.5s33.167 -22.5 54.5 -22.5c13.333 0 20 7 20 21
c0 13.333 -6.66699 20 -20 20c-10 0 -18.5 3.5 -25.5 10.5s-10.5 15.5 -10.5 25.5c0 24 11.667 36 35 36c24 0 36 -12 36 -36v-57c0 -13.333 7 -20 21 -20c13.333 0 20 6.66699 20 20zM608 735c0 16.667 -8.33301 25 -25 25s-25 -8.33301 -25 -25s8.33301 -25 25 -25
s25 8.33301 25 25zM716 564c0 13.333 -6.66699 20 -20 20c-10 0 -18.5 3.5 -25.5 10.5s-10.5 15.5 -10.5 25.5s3.5 18.5 10.5 25.5s15.5 10.5 25.5 10.5c13.333 0 20 6.66699 20 20s-6.66699 20 -20 20c-21.333 0 -39.333 -7.33301 -54 -22s-22 -32.667 -22 -54
s7.33301 -39.333 22 -54s32.667 -22 54 -22c13.333 0 20 6.66699 20 20zM603 564v112c0 13.333 -7 20 -21 20c-13.333 0 -20 -6.66699 -20 -20v-112c0 -13.333 6.66699 -20 20 -20c14 0 21 6.66699 21 20zM547 676c0 13.333 -6.66699 19.999 -20 19.999
c-16.667 0 -30.667 -5.5 -42 -16.5s-17 -24.833 -17 -41.5v-35c0 -9.33301 -6.5 -15.333 -19.5 -18s-19.5 -9.66699 -19.5 -21c0 -13.333 6.66699 -20 20 -20c16.667 0 30.667 5.66699 42 17s17 25.333 17 42v35c0 9.33301 6.5 15.333 19.5 18s19.5 9.33398 19.5 20.001z
M885 228.999v80c0 30 -10.5 55.5 -31.5 76.5s-46.5 31.5 -76.5 31.5c-30.667 0 -56.334 -10.333 -77.001 -31s-31 -46.334 -31 -77.001c0 -30 10.5 -55.5 31.5 -76.5s46.5 -31.5 76.5 -31.5c19.333 0 29 9.66699 29 29c0 18.667 -9.66699 28 -29 28c-14 0 -26 5 -36 15
s-15 22 -15 36c0 14.667 4.83301 26.834 14.5 36.501s21.834 14.5 36.501 14.5c14 0 26 -5 36 -15s15 -22 15 -36v-80c0 -18.667 9.33301 -28 28 -28c19.333 0 29 9.33301 29 28zM464 675.999c0 13.333 -6.66699 19.999 -20 19.999c-16 0 -29.667 -5.66699 -41 -17
s-17 -25 -17 -41v-17c0 -4 -0.333008 -8 -1 -12v-6c0 -9.33301 -6.33301 -15.333 -19 -18s-19 -9.66699 -19 -21c0 -13.333 6.66699 -20 20 -20c16.667 0 30.667 5.66699 42 17s17 25.333 17 42v35c0 9.33301 6.33301 15.333 19 18s19 9.33398 19 20.001zM886 50.998v92
c0 6.66699 -3.66699 10 -11 10s-11 -3.33301 -11 -10v-92c0 -7.33301 3.66699 -11 11 -11s11 3.66699 11 11zM202 734.998c0 16.667 -8.33301 25 -25 25s-25 -8.33301 -25 -25s8.33301 -25 25 -25s25 8.33301 25 25zM646 308.998c0 30 -10.499 55.499 -31.499 76.499
s-46.5 31.5 -76.5 31.5c-18.667 0 -28 -9.33301 -28 -28c0 -19.333 9.33301 -29 28 -29c14 0 26 -5 36 -15s15 -22 15 -36s-5 -25.833 -15 -35.5s-22 -14.5 -36 -14.5c-14.667 0 -26.834 4.83301 -36.501 14.5s-14.5 21.834 -14.5 36.501v165c0 19.333 -9.33301 29 -28 29
c-19.333 0 -29 -9.66699 -29 -29v-166c0 -30 10.5 -55.333 31.5 -76s46.5 -31 76.5 -31s55.5 10.333 76.5 31s31.5 46 31.5 76zM855.001 74.9971v36c0 6.66699 -3.33301 10 -10 10c-7.33301 0 -11 -3.33301 -11 -10v-36c0 -8.66699 -4.33301 -13 -13 -13s-13 4.33301 -13 13
v36c0 6.66699 -3.66699 10 -11 10c-6.66699 0 -10 -3.33301 -10 -10v-36c0 -23.333 11.333 -35 34 -35s34 11.667 34 35zM350.001 658.997c0 5.33301 -2.00098 10.001 -6.00098 14.001c-14.667 15.333 -33 23 -55 23c-21.333 0 -39.333 -7.33301 -54 -22
s-22 -32.667 -22 -54s7.33301 -39.5 22 -54.5s32.667 -22.5 54 -22.5h27c13.333 0 20 7 20 21c0 13.333 -6.66699 20 -20 20h-27c-10 0 -18.5 3.5 -25.5 10.5s-10.5 15.5 -10.5 25.5s3.5 18.5 10.5 25.5s15.5 10.5 25.5 10.5c2.66699 0 5.33398 -0.333008 8.00098 -1
l-22 -21c-4 -4.66699 -6 -9.33398 -6 -14.001c0 -14 6.66699 -21 20 -21c6 0 10.667 2 14 6l39 38c5.33301 4 8 9.33301 8 16zM778 85.998c0 7.33301 -3.33301 11 -10 11h-37v23c0 8 4.33301 12 13 12c8 0 12 -4.33301 12 -13v-1c0 -7.33301 3.66699 -11 11 -11
s11 3.66699 11 11v1c0 23.333 -11.333 35 -34 35c-23.333 0 -35 -11.333 -35 -34v-69c0 -7.33301 3.66699 -11 11 -11s11 3.66699 11 11v24h37c6.66699 0 10 3.66699 10 11zM703 141.998c0 8.66699 -4.33301 13 -13 13c-9.33301 0 -14 -4.33301 -14 -13s4.66699 -13 14 -13
c8.66699 0 13 4.33301 13 13zM700 50.998v60c0 6.66699 -3.66699 10 -11 10c-6.66699 0 -10 -3.33301 -10 -10v-60c0 -7.33301 3.33301 -11 10 -11c7.33301 0 11 3.66699 11 11zM408 229.998v244c0 18.667 -9.66699 28 -29 28s-29 -9.33301 -29 -28v-244
c0 -18.667 9.66699 -28 29 -28s29 9.33301 29 28zM197 542.998v133c0 13.333 -6.66699 20 -20 20s-20 -6.66699 -20 -20v-133c0 -16.667 -8 -25 -24 -25h-1c-14 0 -21 -6.66699 -21 -20s7 -20 21 -20h1c18 0 33.167 6.33301 45.5 19s18.5 28 18.5 46zM670 74.998v1
c0 7.33301 -3.33301 11 -10 11c-7.33301 0 -11 -3.66699 -11 -11v-1c0 -8.66699 -4.33301 -13 -13 -13s-13 4.33301 -13 13v24h37c6.66699 0 10 3.66699 10 11s-3.33301 11 -10 11h-37v8c0 7.33301 -3.66699 11 -11 11c-6.66699 0 -10 -3.66699 -10 -11v-54
c0 -23.333 11.333 -35 34 -35s34 11.667 34 35zM593 74.998v36c0 6.66699 -3.66699 10 -11 10s-11 -3.33301 -11 -10v-36c0 -8.66699 -4 -13 -12 -13c-8.66699 0 -13 4.33301 -13 13v36c0 6.66699 -3.66699 10 -11 10s-11 -3.33301 -11 -10v-36c0 -23.333 11.667 -35 35 -35
c22.667 0 34 11.667 34 35zM516 50.998v29.999c0 11.333 -4 20.833 -12 28.5s-17.667 11.5 -29 11.5s-21 -3.83301 -29 -11.5s-12 -17.167 -12 -28.5s4 -21 12 -29s17.667 -12 29 -12c7.33301 0 11 3.66699 11 11c0 4.66699 -3.33301 8 -10 10
c-8.66699 2.66699 -13.667 5.33398 -15 8.00098c-3.33301 2.66699 -5 6.66699 -5 12c0 12.667 6.33301 19 19 19s19 -6.33301 19 -19v-30c0 -7.33301 3.66699 -11 11 -11s11 3.66699 11 11zM327 228.997l0.000976562 80c0 30 -10.5 55.5 -31.5 76.5s-46.5 31.5 -76.5 31.5
c-30.667 0 -56.334 -10.333 -77.001 -31s-31 -46.334 -31 -77.001c0 -30 10.5 -55.5 31.5 -76.5s46.5 -31.5 76.5 -31.5c19.333 0 29 9.66699 29 29c0 18.667 -9.66699 28 -29 28c-14 0 -25.833 5 -35.5 15s-14.5 22 -14.5 36c0 14.667 4.66699 26.834 14 36.501
s21.333 14.5 36 14.5c14 0 26 -5 36 -15s15 -22 15 -36v-80c0 -18.667 9.33301 -28 28 -28c19.333 0 29 9.33301 29 28zM426.001 101.997c0 2.66699 -0.999023 5 -2.99902 7c-8 8 -18 12 -30 12c-11.333 0 -20.833 -3.83301 -28.5 -11.5s-11.5 -17.167 -11.5 -28.5
s3.83301 -21 11.5 -29s17.167 -12 28.5 -12h14c7.33301 0 11 3.66699 11 11s-3.66699 11 -11 11h-14c-12.667 0 -19 6.33301 -19 19s6.33301 19 19 19c1.33301 0 2.66602 -0.333008 3.99902 -1l-11 -11c-2.66699 -2 -4 -4.33301 -4 -7c0 -7.33301 3.66699 -11 11 -11
c3.33301 0 6 1 8 3l20 20c3.33301 2 5 5 5 9zM344.002 80.9971c0 11.333 -4 20.832 -12 28.499s-17.667 11.5 -29 11.5c-6.66699 0 -10 -3.33301 -10 -10c0 -6 2.66699 -9.66699 8 -11c14 -3.33301 21 -9.66602 21 -18.999c0 -12.667 -6.33301 -19 -19 -19
s-19 6.33301 -19 19v62c0 7.33301 -3.66699 11 -11 11c-6.66699 0 -10 -3.66699 -10 -11v-62c0 -11.333 3.83301 -21 11.5 -29s17.167 -12 28.5 -12s21 4 29 12s12 17.667 12 29zM137.002 141.996c0 8.66699 -4.33301 13 -13 13s-13 -4.33301 -13 -13s4.33301 -13 13 -13
s13 4.33301 13 13zM206.002 110.996c0 6.66699 -3.66699 10 -11 10c-20.667 0 -31 -10.333 -31 -31v-18c0 -5.33301 -3.33301 -8.66602 -10 -9.99902s-10 -5 -10 -11c0 -7.33301 3.33301 -11 10 -11c20.667 0 31 10.667 31 32v18c0 5.33301 3.5 8.66602 10.5 9.99902
s10.5 5 10.5 11zM135.002 50.9961v60c0 6.66699 -3.66699 10 -11 10s-11 -3.33301 -11 -10v-60c0 -7.33301 3.66699 -11 11 -11s11 3.66699 11 11z" />
    <glyph glyph-name="Delta" unicode="&#x394;" horiz-adv-x="1103" 
d="M1119 520c22 -29.333 32.9971 -58.998 32.9971 -88.998c0 -37.333 -15.333 -70.333 -46 -99c3.33301 -9.33301 5 -18 5 -26c0 -30.667 -22 -49 -66 -55c0.666992 -5.33301 1 -10.666 1 -15.999c0 -48.667 -29 -78.667 -87 -90c-8.66699 -52.667 -39.667 -79 -93 -79
c-30 0 -62.333 7.66699 -97 23v-1c-2.66699 1.33301 -5.66699 3.33301 -9 6l-75 -56c-32 -23.333 -59.667 -35 -83 -35c-52.667 0 -119 39 -199 117v-1c-45.333 -20.667 -87.333 -31 -126 -31c-39.333 0 -74.333 10.667 -105 32c-23.333 16.667 -41.666 37.667 -54.999 63
c-12 21.333 -16.667 35.333 -14 42c-32 17.333 -56.667 37.666 -74 60.999c52 -0.666992 87 11.333 105 36c-43.333 0 -71 31 -83 93c66 35.333 109.667 71.666 131 108.999c-70 -6.66699 -115.667 19.333 -137 78c120.667 23.333 195.334 70.333 224.001 141
c21.333 74.667 59.333 141 114 199c70 74.667 137 88 201 40c18 2.66699 35.667 4 53 4c120.667 0 221.334 -58.333 302.001 -175c33.333 -48.667 61.333 -107 84 -175c5.33301 -20.667 8 -44 8 -70c0 -32.667 -4.66699 -64.334 -14 -95.001
c19.333 -13.333 36.333 -20 51 -20c28.667 0 45.667 23 51 69zM869.997 503.002c-8.66699 36 -22.668 70.999 -42.001 104.999c-46.667 81.333 -116 151.666 -208 210.999c-72.667 2.66699 -124.667 -26 -156 -86c-13.333 -25.333 -22 -55.666 -26 -90.999
c-0.666992 -26.667 -3.33398 -51.334 -8.00098 -74.001c8.66699 1.33301 18.334 2 29.001 2c50 0 83.667 -12.333 101 -37c-3.33301 -2.66699 -9 -4 -17 -4c-14.667 0 -34.667 4.33301 -60 13c-21.333 8.66699 -40 12.667 -56 12c-6 -22 -13 -41.333 -21 -58
c-18.667 -40.667 -40.667 -66 -66 -76c-4 -5.33301 -12.333 -11.666 -25 -18.999c16.667 -80 39 -137.667 67 -173c46 -57.333 79.333 -95.666 100 -114.999c42.667 -39.333 82.667 -59 120 -59s77 19.667 119 59c20.667 19.333 54 58 100 116
c26.667 32.667 42.334 74.667 47.001 126c1.33301 10.667 2 60 2 148zM843.996 536.001c-5.33301 -3.33301 -12.3301 -2.99902 -20.9971 1.00098c-14.667 8.66699 -28.667 13 -42 13c-14.667 0 -32 -3.66699 -52 -11c-24.667 -9.33301 -44.334 -14 -59.001 -14
c-8 0 -13.667 1.66699 -17 5c17.333 24 50.666 36 99.999 36c12 0 23.167 -0.833008 33.5 -2.5s19.166 -3.83398 26.499 -6.50098c18 -6 28.333 -13 31 -21zM821.999 446.002c-8 -8 -16.3311 -12.001 -24.998 -12.001c-8 0 -15.5 3.33301 -22.5 10s-15.833 11.667 -26.5 15
c2.66699 -5.33301 4 -11 4 -17c0 -9.33301 -3.33301 -17.333 -10 -24s-14.667 -10 -24 -10s-17.333 3.33301 -24 10s-10 14.667 -10 24c0 8 2.66699 15 8 21c-15.333 -6 -23 -14 -23 -24c0 -2.66699 0.666992 -5.66699 2 -9l-17 5c3.33301 8 7.66602 14.667 12.999 20
c12 14 27.333 21.333 46 22v-1c1.33301 0.666992 3 1 5 1c23.333 0.666992 42.333 -3 57 -11c4 -2.66699 8.33301 -4 13 -4c9.33301 0 17.333 4.33301 24 13c1.33301 -12 -4.33398 -19.333 -17.001 -22c8.66699 -7.33301 17.667 -9.66602 27 -6.99902zM565.001 434.001
l-17.0029 -5.00098c0.666992 2.66699 1 5.33398 1 8.00098c0 14.667 -10.667 23.334 -32 26.001c4.66699 -6 7 -12.667 7 -20c0 -9.33301 -3.16699 -17.166 -9.5 -23.499s-14.166 -9.5 -23.499 -9.5s-17.166 3.16699 -23.499 9.5s-9.5 14.166 -9.5 23.499
c0 6 1.33301 11.333 4 16c-7.33301 -2.66699 -13 -6.33398 -17 -11.001c-9.33301 -12 -19.333 -18 -30 -18c-6.66699 0 -13 2.33301 -19 7c5.33301 0 12.333 4.33301 21 13c-10.667 2 -16 7 -16 15c0 3.33301 1 6.66602 3 9.99902c12 -9.33301 20.667 -14 26 -14
c0.666992 0 6.5 3 17.5 9s26.167 8.66699 45.5 8c12.667 -1.33301 23.334 -3.66602 32.001 -6.99902c22.667 -8 36 -20.333 40 -37zM691.998 215h-175.999c20 38.667 49.333 58 88 58c39.333 0 68.666 -19.333 87.999 -58zM690.999 205
c-6 -20.667 -16.332 -38.001 -30.999 -52.001c-16.667 -15.333 -35 -23 -55 -23c-20.667 0 -38.834 7.33301 -54.501 22s-26.5 32.334 -32.5 53.001h10c19.333 -15.333 45 -23 77 -23s56 7.66699 72 23h14zM721 441.999c0 3.33301 -1.66699 5 -5 5s-5 -1.66699 -5 -5
s1.66699 -5 5 -5s5 1.66699 5 5zM718 427.999c0 6 -3 9 -9 9c-5.33301 0 -8 -3 -8 -9s2.66699 -9 8 -9c6 0 9 3 9 9zM495 441.999c0 3.33301 -2 5 -6 5c-3.33301 0 -5 -1.66699 -5 -5s1.66699 -5 5 -5c4 0 6 1.66699 6 5zM491 427.999c0 6 -3 9 -9 9c-5.33301 0 -8 -3 -8 -9
s2.66699 -9 8 -9c6 0 9 3 9 9z" />
    <glyph glyph-name="Delta" unicode="&#x2206;" horiz-adv-x="1103" 
d="M1119 520c22 -29.333 32.9971 -58.998 32.9971 -88.998c0 -37.333 -15.333 -70.333 -46 -99c3.33301 -9.33301 5 -18 5 -26c0 -30.667 -22 -49 -66 -55c0.666992 -5.33301 1 -10.666 1 -15.999c0 -48.667 -29 -78.667 -87 -90c-8.66699 -52.667 -39.667 -79 -93 -79
c-30 0 -62.333 7.66699 -97 23v-1c-2.66699 1.33301 -5.66699 3.33301 -9 6l-75 -56c-32 -23.333 -59.667 -35 -83 -35c-52.667 0 -119 39 -199 117v-1c-45.333 -20.667 -87.333 -31 -126 -31c-39.333 0 -74.333 10.667 -105 32c-23.333 16.667 -41.666 37.667 -54.999 63
c-12 21.333 -16.667 35.333 -14 42c-32 17.333 -56.667 37.666 -74 60.999c52 -0.666992 87 11.333 105 36c-43.333 0 -71 31 -83 93c66 35.333 109.667 71.666 131 108.999c-70 -6.66699 -115.667 19.333 -137 78c120.667 23.333 195.334 70.333 224.001 141
c21.333 74.667 59.333 141 114 199c70 74.667 137 88 201 40c18 2.66699 35.667 4 53 4c120.667 0 221.334 -58.333 302.001 -175c33.333 -48.667 61.333 -107 84 -175c5.33301 -20.667 8 -44 8 -70c0 -32.667 -4.66699 -64.334 -14 -95.001
c19.333 -13.333 36.333 -20 51 -20c28.667 0 45.667 23 51 69zM869.997 503.002c-8.66699 36 -22.668 70.999 -42.001 104.999c-46.667 81.333 -116 151.666 -208 210.999c-72.667 2.66699 -124.667 -26 -156 -86c-13.333 -25.333 -22 -55.666 -26 -90.999
c-0.666992 -26.667 -3.33398 -51.334 -8.00098 -74.001c8.66699 1.33301 18.334 2 29.001 2c50 0 83.667 -12.333 101 -37c-3.33301 -2.66699 -9 -4 -17 -4c-14.667 0 -34.667 4.33301 -60 13c-21.333 8.66699 -40 12.667 -56 12c-6 -22 -13 -41.333 -21 -58
c-18.667 -40.667 -40.667 -66 -66 -76c-4 -5.33301 -12.333 -11.666 -25 -18.999c16.667 -80 39 -137.667 67 -173c46 -57.333 79.333 -95.666 100 -114.999c42.667 -39.333 82.667 -59 120 -59s77 19.667 119 59c20.667 19.333 54 58 100 116
c26.667 32.667 42.334 74.667 47.001 126c1.33301 10.667 2 60 2 148zM843.996 536.001c-5.33301 -3.33301 -12.3301 -2.99902 -20.9971 1.00098c-14.667 8.66699 -28.667 13 -42 13c-14.667 0 -32 -3.66699 -52 -11c-24.667 -9.33301 -44.334 -14 -59.001 -14
c-8 0 -13.667 1.66699 -17 5c17.333 24 50.666 36 99.999 36c12 0 23.167 -0.833008 33.5 -2.5s19.166 -3.83398 26.499 -6.50098c18 -6 28.333 -13 31 -21zM821.999 446.002c-8 -8 -16.3311 -12.001 -24.998 -12.001c-8 0 -15.5 3.33301 -22.5 10s-15.833 11.667 -26.5 15
c2.66699 -5.33301 4 -11 4 -17c0 -9.33301 -3.33301 -17.333 -10 -24s-14.667 -10 -24 -10s-17.333 3.33301 -24 10s-10 14.667 -10 24c0 8 2.66699 15 8 21c-15.333 -6 -23 -14 -23 -24c0 -2.66699 0.666992 -5.66699 2 -9l-17 5c3.33301 8 7.66602 14.667 12.999 20
c12 14 27.333 21.333 46 22v-1c1.33301 0.666992 3 1 5 1c23.333 0.666992 42.333 -3 57 -11c4 -2.66699 8.33301 -4 13 -4c9.33301 0 17.333 4.33301 24 13c1.33301 -12 -4.33398 -19.333 -17.001 -22c8.66699 -7.33301 17.667 -9.66602 27 -6.99902zM565.001 434.001
l-17.0029 -5.00098c0.666992 2.66699 1 5.33398 1 8.00098c0 14.667 -10.667 23.334 -32 26.001c4.66699 -6 7 -12.667 7 -20c0 -9.33301 -3.16699 -17.166 -9.5 -23.499s-14.166 -9.5 -23.499 -9.5s-17.166 3.16699 -23.499 9.5s-9.5 14.166 -9.5 23.499
c0 6 1.33301 11.333 4 16c-7.33301 -2.66699 -13 -6.33398 -17 -11.001c-9.33301 -12 -19.333 -18 -30 -18c-6.66699 0 -13 2.33301 -19 7c5.33301 0 12.333 4.33301 21 13c-10.667 2 -16 7 -16 15c0 3.33301 1 6.66602 3 9.99902c12 -9.33301 20.667 -14 26 -14
c0.666992 0 6.5 3 17.5 9s26.167 8.66699 45.5 8c12.667 -1.33301 23.334 -3.66602 32.001 -6.99902c22.667 -8 36 -20.333 40 -37zM691.998 215h-175.999c20 38.667 49.333 58 88 58c39.333 0 68.666 -19.333 87.999 -58zM690.999 205
c-6 -20.667 -16.332 -38.001 -30.999 -52.001c-16.667 -15.333 -35 -23 -55 -23c-20.667 0 -38.834 7.33301 -54.501 22s-26.5 32.334 -32.5 53.001h10c19.333 -15.333 45 -23 77 -23s56 7.66699 72 23h14zM721 441.999c0 3.33301 -1.66699 5 -5 5s-5 -1.66699 -5 -5
s1.66699 -5 5 -5s5 1.66699 5 5zM718 427.999c0 6 -3 9 -9 9c-5.33301 0 -8 -3 -8 -9s2.66699 -9 8 -9c6 0 9 3 9 9zM495 441.999c0 3.33301 -2 5 -6 5c-3.33301 0 -5 -1.66699 -5 -5s1.66699 -5 5 -5c4 0 6 1.66699 6 5zM491 427.999c0 6 -3 9 -9 9c-5.33301 0 -8 -3 -8 -9
s2.66699 -9 8 -9c6 0 9 3 9 9z" />
    <glyph glyph-name="Omega" unicode="&#x3a9;" horiz-adv-x="1103" 
d="M1119 520c22 -29.333 32.9971 -58.998 32.9971 -88.998c0 -37.333 -15.333 -70.333 -46 -99c3.33301 -9.33301 5 -18 5 -26c0 -30.667 -22 -49 -66 -55c0.666992 -5.33301 1 -10.666 1 -15.999c0 -48.667 -29 -78.667 -87 -90c-8.66699 -52.667 -39.667 -79 -93 -79
c-30 0 -62.333 7.66699 -97 23v-1c-2.66699 1.33301 -5.66699 3.33301 -9 6l-75 -56c-32 -23.333 -59.667 -35 -83 -35c-52.667 0 -119 39 -199 117v-1c-45.333 -20.667 -87.333 -31 -126 -31c-39.333 0 -74.333 10.667 -105 32c-23.333 16.667 -41.666 37.667 -54.999 63
c-12 21.333 -16.667 35.333 -14 42c-32 17.333 -56.667 37.666 -74 60.999c52 -0.666992 87 11.333 105 36c-43.333 0 -71 31 -83 93c66 35.333 109.667 71.666 131 108.999c-70 -6.66699 -115.667 19.333 -137 78c120.667 23.333 195.334 70.333 224.001 141
c21.333 74.667 59.333 141 114 199c70 74.667 137 88 201 40c18 2.66699 35.667 4 53 4c120.667 0 221.334 -58.333 302.001 -175c33.333 -48.667 61.333 -107 84 -175c5.33301 -20.667 8 -44 8 -70c0 -32.667 -4.66699 -64.334 -14 -95.001
c19.333 -13.333 36.333 -20 51 -20c28.667 0 45.667 23 51 69zM869.997 503.002c-8.66699 36 -22.668 70.999 -42.001 104.999c-46.667 81.333 -116 151.666 -208 210.999c-72.667 2.66699 -124.667 -26 -156 -86c-13.333 -25.333 -22 -55.666 -26 -90.999
c-0.666992 -26.667 -3.33398 -51.334 -8.00098 -74.001c8.66699 1.33301 18.334 2 29.001 2c50 0 83.667 -12.333 101 -37c-3.33301 -2.66699 -9 -4 -17 -4c-14.667 0 -34.667 4.33301 -60 13c-21.333 8.66699 -40 12.667 -56 12c-6 -22 -13 -41.333 -21 -58
c-18.667 -40.667 -40.667 -66 -66 -76c-4 -5.33301 -12.333 -11.666 -25 -18.999c16.667 -80 39 -137.667 67 -173c46 -57.333 79.333 -95.666 100 -114.999c42.667 -39.333 82.667 -59 120 -59s77 19.667 119 59c20.667 19.333 54 58 100 116
c26.667 32.667 42.334 74.667 47.001 126c1.33301 10.667 2 60 2 148zM843.996 536.001c-5.33301 -3.33301 -12.3301 -2.99902 -20.9971 1.00098c-14.667 8.66699 -28.667 13 -42 13c-14.667 0 -32 -3.66699 -52 -11c-24.667 -9.33301 -44.334 -14 -59.001 -14
c-8 0 -13.667 1.66699 -17 5c17.333 24 50.666 36 99.999 36c12 0 23.167 -0.833008 33.5 -2.5s19.166 -3.83398 26.499 -6.50098c18 -6 28.333 -13 31 -21zM821.999 446.002c-8 -8 -16.3311 -12.001 -24.998 -12.001c-8 0 -15.5 3.33301 -22.5 10s-15.833 11.667 -26.5 15
c2.66699 -5.33301 4 -11 4 -17c0 -9.33301 -3.33301 -17.333 -10 -24s-14.667 -10 -24 -10s-17.333 3.33301 -24 10s-10 14.667 -10 24c0 8 2.66699 15 8 21c-15.333 -6 -23 -14 -23 -24c0 -2.66699 0.666992 -5.66699 2 -9l-17 5c3.33301 8 7.66602 14.667 12.999 20
c12 14 27.333 21.333 46 22v-1c1.33301 0.666992 3 1 5 1c23.333 0.666992 42.333 -3 57 -11c4 -2.66699 8.33301 -4 13 -4c9.33301 0 17.333 4.33301 24 13c1.33301 -12 -4.33398 -19.333 -17.001 -22c8.66699 -7.33301 17.667 -9.66602 27 -6.99902zM565.001 434.001
l-17.0029 -5.00098c0.666992 2.66699 1 5.33398 1 8.00098c0 14.667 -10.667 23.334 -32 26.001c4.66699 -6 7 -12.667 7 -20c0 -9.33301 -3.16699 -17.166 -9.5 -23.499s-14.166 -9.5 -23.499 -9.5s-17.166 3.16699 -23.499 9.5s-9.5 14.166 -9.5 23.499
c0 6 1.33301 11.333 4 16c-7.33301 -2.66699 -13 -6.33398 -17 -11.001c-9.33301 -12 -19.333 -18 -30 -18c-6.66699 0 -13 2.33301 -19 7c5.33301 0 12.333 4.33301 21 13c-10.667 2 -16 7 -16 15c0 3.33301 1 6.66602 3 9.99902c12 -9.33301 20.667 -14 26 -14
c0.666992 0 6.5 3 17.5 9s26.167 8.66699 45.5 8c12.667 -1.33301 23.334 -3.66602 32.001 -6.99902c22.667 -8 36 -20.333 40 -37zM691.998 215h-175.999c20 38.667 49.333 58 88 58c39.333 0 68.666 -19.333 87.999 -58zM690.999 205
c-6 -20.667 -16.332 -38.001 -30.999 -52.001c-16.667 -15.333 -35 -23 -55 -23c-20.667 0 -38.834 7.33301 -54.501 22s-26.5 32.334 -32.5 53.001h10c19.333 -15.333 45 -23 77 -23s56 7.66699 72 23h14zM721 441.999c0 3.33301 -1.66699 5 -5 5s-5 -1.66699 -5 -5
s1.66699 -5 5 -5s5 1.66699 5 5zM718 427.999c0 6 -3 9 -9 9c-5.33301 0 -8 -3 -8 -9s2.66699 -9 8 -9c6 0 9 3 9 9zM495 441.999c0 3.33301 -2 5 -6 5c-3.33301 0 -5 -1.66699 -5 -5s1.66699 -5 5 -5c4 0 6 1.66699 6 5zM491 427.999c0 6 -3 9 -9 9c-5.33301 0 -8 -3 -8 -9
s2.66699 -9 8 -9c6 0 9 3 9 9z" />
    <glyph glyph-name="Omega" unicode="&#x2126;" horiz-adv-x="1103" 
d="M1119 520c22 -29.333 32.9971 -58.998 32.9971 -88.998c0 -37.333 -15.333 -70.333 -46 -99c3.33301 -9.33301 5 -18 5 -26c0 -30.667 -22 -49 -66 -55c0.666992 -5.33301 1 -10.666 1 -15.999c0 -48.667 -29 -78.667 -87 -90c-8.66699 -52.667 -39.667 -79 -93 -79
c-30 0 -62.333 7.66699 -97 23v-1c-2.66699 1.33301 -5.66699 3.33301 -9 6l-75 -56c-32 -23.333 -59.667 -35 -83 -35c-52.667 0 -119 39 -199 117v-1c-45.333 -20.667 -87.333 -31 -126 -31c-39.333 0 -74.333 10.667 -105 32c-23.333 16.667 -41.666 37.667 -54.999 63
c-12 21.333 -16.667 35.333 -14 42c-32 17.333 -56.667 37.666 -74 60.999c52 -0.666992 87 11.333 105 36c-43.333 0 -71 31 -83 93c66 35.333 109.667 71.666 131 108.999c-70 -6.66699 -115.667 19.333 -137 78c120.667 23.333 195.334 70.333 224.001 141
c21.333 74.667 59.333 141 114 199c70 74.667 137 88 201 40c18 2.66699 35.667 4 53 4c120.667 0 221.334 -58.333 302.001 -175c33.333 -48.667 61.333 -107 84 -175c5.33301 -20.667 8 -44 8 -70c0 -32.667 -4.66699 -64.334 -14 -95.001
c19.333 -13.333 36.333 -20 51 -20c28.667 0 45.667 23 51 69zM869.997 503.002c-8.66699 36 -22.668 70.999 -42.001 104.999c-46.667 81.333 -116 151.666 -208 210.999c-72.667 2.66699 -124.667 -26 -156 -86c-13.333 -25.333 -22 -55.666 -26 -90.999
c-0.666992 -26.667 -3.33398 -51.334 -8.00098 -74.001c8.66699 1.33301 18.334 2 29.001 2c50 0 83.667 -12.333 101 -37c-3.33301 -2.66699 -9 -4 -17 -4c-14.667 0 -34.667 4.33301 -60 13c-21.333 8.66699 -40 12.667 -56 12c-6 -22 -13 -41.333 -21 -58
c-18.667 -40.667 -40.667 -66 -66 -76c-4 -5.33301 -12.333 -11.666 -25 -18.999c16.667 -80 39 -137.667 67 -173c46 -57.333 79.333 -95.666 100 -114.999c42.667 -39.333 82.667 -59 120 -59s77 19.667 119 59c20.667 19.333 54 58 100 116
c26.667 32.667 42.334 74.667 47.001 126c1.33301 10.667 2 60 2 148zM843.996 536.001c-5.33301 -3.33301 -12.3301 -2.99902 -20.9971 1.00098c-14.667 8.66699 -28.667 13 -42 13c-14.667 0 -32 -3.66699 -52 -11c-24.667 -9.33301 -44.334 -14 -59.001 -14
c-8 0 -13.667 1.66699 -17 5c17.333 24 50.666 36 99.999 36c12 0 23.167 -0.833008 33.5 -2.5s19.166 -3.83398 26.499 -6.50098c18 -6 28.333 -13 31 -21zM821.999 446.002c-8 -8 -16.3311 -12.001 -24.998 -12.001c-8 0 -15.5 3.33301 -22.5 10s-15.833 11.667 -26.5 15
c2.66699 -5.33301 4 -11 4 -17c0 -9.33301 -3.33301 -17.333 -10 -24s-14.667 -10 -24 -10s-17.333 3.33301 -24 10s-10 14.667 -10 24c0 8 2.66699 15 8 21c-15.333 -6 -23 -14 -23 -24c0 -2.66699 0.666992 -5.66699 2 -9l-17 5c3.33301 8 7.66602 14.667 12.999 20
c12 14 27.333 21.333 46 22v-1c1.33301 0.666992 3 1 5 1c23.333 0.666992 42.333 -3 57 -11c4 -2.66699 8.33301 -4 13 -4c9.33301 0 17.333 4.33301 24 13c1.33301 -12 -4.33398 -19.333 -17.001 -22c8.66699 -7.33301 17.667 -9.66602 27 -6.99902zM565.001 434.001
l-17.0029 -5.00098c0.666992 2.66699 1 5.33398 1 8.00098c0 14.667 -10.667 23.334 -32 26.001c4.66699 -6 7 -12.667 7 -20c0 -9.33301 -3.16699 -17.166 -9.5 -23.499s-14.166 -9.5 -23.499 -9.5s-17.166 3.16699 -23.499 9.5s-9.5 14.166 -9.5 23.499
c0 6 1.33301 11.333 4 16c-7.33301 -2.66699 -13 -6.33398 -17 -11.001c-9.33301 -12 -19.333 -18 -30 -18c-6.66699 0 -13 2.33301 -19 7c5.33301 0 12.333 4.33301 21 13c-10.667 2 -16 7 -16 15c0 3.33301 1 6.66602 3 9.99902c12 -9.33301 20.667 -14 26 -14
c0.666992 0 6.5 3 17.5 9s26.167 8.66699 45.5 8c12.667 -1.33301 23.334 -3.66602 32.001 -6.99902c22.667 -8 36 -20.333 40 -37zM691.998 215h-175.999c20 38.667 49.333 58 88 58c39.333 0 68.666 -19.333 87.999 -58zM690.999 205
c-6 -20.667 -16.332 -38.001 -30.999 -52.001c-16.667 -15.333 -35 -23 -55 -23c-20.667 0 -38.834 7.33301 -54.501 22s-26.5 32.334 -32.5 53.001h10c19.333 -15.333 45 -23 77 -23s56 7.66699 72 23h14zM721 441.999c0 3.33301 -1.66699 5 -5 5s-5 -1.66699 -5 -5
s1.66699 -5 5 -5s5 1.66699 5 5zM718 427.999c0 6 -3 9 -9 9c-5.33301 0 -8 -3 -8 -9s2.66699 -9 8 -9c6 0 9 3 9 9zM495 441.999c0 3.33301 -2 5 -6 5c-3.33301 0 -5 -1.66699 -5 -5s1.66699 -5 5 -5c4 0 6 1.66699 6 5zM491 427.999c0 6 -3 9 -9 9c-5.33301 0 -8 -3 -8 -9
s2.66699 -9 8 -9c6 0 9 3 9 9z" />
    <glyph glyph-name="pi" unicode="&#x3c0;" horiz-adv-x="507" 
d="M372 363h-76v-305c0 -20 -6.16699 -36.167 -18.5 -48.5s-28.5 -18.5 -48.5 -18.5s-36.333 6.16699 -49 18.5s-19 28.5 -19 48.5v305h-38c-19.333 0 -35.5 6.5 -48.5 19.5s-19.5 29.167 -19.5 48.5c0 20 6.33301 36.167 19 48.5s29 18.5 49 18.5h319
c19.333 0 35 -6.33301 47 -19s18 -28.667 18 -48v-373c0 -20 -6.16699 -36.167 -18.5 -48.5s-28.5 -18.5 -48.5 -18.5s-36.333 6.16699 -49 18.5s-19 28.5 -19 48.5v305z" />
    <glyph glyph-name="endash" unicode="&#x2013;" horiz-adv-x="422" 
d="M355 313c20 0 36.333 -6.16699 49 -18.5s19 -28.5 19 -48.5s-6.33301 -36.333 -19 -49s-29 -19 -49 -19h-236c-20 0 -36.333 6.33301 -49 19s-19 29 -19 49s6.33301 36.167 19 48.5s29 18.5 49 18.5h236z" />
    <glyph glyph-name="emdash" unicode="&#x2014;" horiz-adv-x="623" 
d="M555 313c20 0 36.333 -6.16699 49 -18.5s19 -28.5 19 -48.5s-6.33301 -36.333 -19 -49s-29 -19 -49 -19h-436c-20 0 -36.333 6.33301 -49 19s-19 29 -19 49s6.33301 36.167 19 48.5s29 18.5 49 18.5h436z" />
    <glyph glyph-name="quoteleft" unicode="&#x2018;" horiz-adv-x="190" 
d="M204 622c0 22.667 -8.16699 42.167 -24.5 58.5s-35.833 24.5 -58.5 24.5s-42.167 -8.16699 -58.5 -24.5s-24.5 -35.833 -24.5 -58.5v-123c0 -22.667 8.16699 -42 24.5 -58s35.833 -24 58.5 -24s42.167 8 58.5 24s24.5 35.333 24.5 58v123z" />
    <glyph glyph-name="quoteright" unicode="&#x2019;" horiz-adv-x="190" 
d="M204 622c0 22.667 -8.16699 42.167 -24.5 58.5s-35.833 24.5 -58.5 24.5s-42.167 -8.16699 -58.5 -24.5s-24.5 -35.833 -24.5 -58.5v-123c0 -22.667 8.16699 -42 24.5 -58s35.833 -24 58.5 -24s42.167 8 58.5 24s24.5 35.333 24.5 58v123z" />
    <glyph glyph-name="quotesinglbase" unicode="&#x201a;" horiz-adv-x="190" 
d="M204 83c0 22.667 -8.16699 42 -24.5 58s-35.833 24 -58.5 24s-42.167 -8 -58.5 -24s-24.5 -35.333 -24.5 -58v-123c0 -22.667 8.16699 -42.167 24.5 -58.5s35.833 -24.5 58.5 -24.5s42.167 8.16699 58.5 24.5s24.5 35.833 24.5 58.5v123z" />
    <glyph glyph-name="quotedblleft" unicode="&#x201c;" horiz-adv-x="415" 
d="M204 622c0 22.667 -8.16699 42.167 -24.5 58.5s-35.833 24.5 -58.5 24.5s-42.167 -8.16699 -58.5 -24.5s-24.5 -35.833 -24.5 -58.5v-123c0 -22.667 8.16699 -42 24.5 -58s35.833 -24 58.5 -24s42.167 8 58.5 24s24.5 35.333 24.5 58v123zM414 622c0 23.333 -8 43 -24 59
s-35.667 24 -59 24c-22.667 0 -42 -8.16699 -58 -24.5s-24 -35.833 -24 -58.5v-123c0 -22.667 8 -42 24 -58s35.333 -24 58 -24c23.333 0 43 7.83301 59 23.5s24 35.167 24 58.5v123z" />
    <glyph glyph-name="quotedblright" unicode="&#x201d;" horiz-adv-x="415" 
d="M204 622c0 22.667 -8.16699 42.167 -24.5 58.5s-35.833 24.5 -58.5 24.5s-42.167 -8.16699 -58.5 -24.5s-24.5 -35.833 -24.5 -58.5v-123c0 -22.667 8.16699 -42 24.5 -58s35.833 -24 58.5 -24s42.167 8 58.5 24s24.5 35.333 24.5 58v123zM414 622c0 23.333 -8 43 -24 59
s-35.667 24 -59 24c-22.667 0 -42 -8.16699 -58 -24.5s-24 -35.833 -24 -58.5v-123c0 -22.667 8 -42 24 -58s35.333 -24 58 -24c23.333 0 43 7.83301 59 23.5s24 35.167 24 58.5v123z" />
    <glyph glyph-name="quotedblbase" unicode="&#x201e;" horiz-adv-x="399" 
d="M204 83c0 22.667 -8.16699 42 -24.5 58s-35.833 24 -58.5 24s-42.167 -8 -58.5 -24s-24.5 -35.333 -24.5 -58v-123c0 -22.667 8.16699 -42.167 24.5 -58.5s35.833 -24.5 58.5 -24.5s42.167 8.16699 58.5 24.5s24.5 35.833 24.5 58.5v123zM397 83
c0 22.667 -8.16699 42 -24.5 58s-35.833 24 -58.5 24s-42.167 -8 -58.5 -24s-24.5 -35.333 -24.5 -58v-123c0 -22.667 8.16699 -42.167 24.5 -58.5s35.833 -24.5 58.5 -24.5s42.167 8.16699 58.5 24.5s24.5 35.833 24.5 58.5v123z" />
    <glyph glyph-name="dagger" unicode="&#x2020;" horiz-adv-x="1154" 
d="M1119 520c22 -29.333 32.9971 -58.998 32.9971 -88.998c0 -37.333 -15.333 -70.333 -46 -99c3.33301 -9.33301 5 -18 5 -26c0 -30.667 -22 -49 -66 -55c0.666992 -5.33301 1 -10.666 1 -15.999c0 -48.667 -29 -78.667 -87 -90c-8.66699 -52.667 -39.667 -79 -93 -79
c-30 0 -62.333 7.66699 -97 23v-1c-2.66699 1.33301 -5.66699 3.33301 -9 6l-75 -56c-32 -23.333 -59.667 -35 -83 -35c-52.667 0 -119 39 -199 117v-1c-45.333 -20.667 -87.333 -31 -126 -31c-39.333 0 -74.333 10.667 -105 32c-23.333 16.667 -41.666 37.667 -54.999 63
c-12 21.333 -16.667 35.333 -14 42c-32 17.333 -56.667 37.666 -74 60.999c52 -0.666992 87 11.333 105 36c-43.333 0 -71 31 -83 93c66 35.333 109.667 71.666 131 108.999c-70 -6.66699 -115.667 19.333 -137 78c120.667 23.333 195.334 70.333 224.001 141
c21.333 74.667 59.333 141 114 199c70 74.667 137 88 201 40c18 2.66699 35.667 4 53 4c120.667 0 221.334 -58.333 302.001 -175c33.333 -48.667 61.333 -107 84 -175c5.33301 -20.667 8 -44 8 -70c0 -32.667 -4.66699 -64.334 -14 -95.001
c19.333 -13.333 36.333 -20 51 -20c28.667 0 45.667 23 51 69zM869.997 503.002c-8.66699 36 -22.668 70.999 -42.001 104.999c-46.667 81.333 -116 151.666 -208 210.999c-72.667 2.66699 -124.667 -26 -156 -86c-13.333 -25.333 -22 -55.666 -26 -90.999
c-0.666992 -26.667 -3.33398 -51.334 -8.00098 -74.001c8.66699 1.33301 18.334 2 29.001 2c50 0 83.667 -12.333 101 -37c-3.33301 -2.66699 -9 -4 -17 -4c-14.667 0 -34.667 4.33301 -60 13c-21.333 8.66699 -40 12.667 -56 12c-6 -22 -13 -41.333 -21 -58
c-18.667 -40.667 -40.667 -66 -66 -76c-4 -5.33301 -12.333 -11.666 -25 -18.999c16.667 -80 39 -137.667 67 -173c46 -57.333 79.333 -95.666 100 -114.999c42.667 -39.333 82.667 -59 120 -59s77 19.667 119 59c20.667 19.333 54 58 100 116
c26.667 32.667 42.334 74.667 47.001 126c1.33301 10.667 2 60 2 148zM843.996 536.001c-5.33301 -3.33301 -12.3301 -2.99902 -20.9971 1.00098c-14.667 8.66699 -28.667 13 -42 13c-14.667 0 -32 -3.66699 -52 -11c-24.667 -9.33301 -44.334 -14 -59.001 -14
c-8 0 -13.667 1.66699 -17 5c17.333 24 50.666 36 99.999 36c12 0 23.167 -0.833008 33.5 -2.5s19.166 -3.83398 26.499 -6.50098c18 -6 28.333 -13 31 -21zM821.999 446.002c-8 -8 -16.3311 -12.001 -24.998 -12.001c-8 0 -15.5 3.33301 -22.5 10s-15.833 11.667 -26.5 15
c2.66699 -5.33301 4 -11 4 -17c0 -9.33301 -3.33301 -17.333 -10 -24s-14.667 -10 -24 -10s-17.333 3.33301 -24 10s-10 14.667 -10 24c0 8 2.66699 15 8 21c-15.333 -6 -23 -14 -23 -24c0 -2.66699 0.666992 -5.66699 2 -9l-17 5c3.33301 8 7.66602 14.667 12.999 20
c12 14 27.333 21.333 46 22v-1c1.33301 0.666992 3 1 5 1c23.333 0.666992 42.333 -3 57 -11c4 -2.66699 8.33301 -4 13 -4c9.33301 0 17.333 4.33301 24 13c1.33301 -12 -4.33398 -19.333 -17.001 -22c8.66699 -7.33301 17.667 -9.66602 27 -6.99902zM565.001 434.001
l-17.0029 -5.00098c0.666992 2.66699 1 5.33398 1 8.00098c0 14.667 -10.667 23.334 -32 26.001c4.66699 -6 7 -12.667 7 -20c0 -9.33301 -3.16699 -17.166 -9.5 -23.499s-14.166 -9.5 -23.499 -9.5s-17.166 3.16699 -23.499 9.5s-9.5 14.166 -9.5 23.499
c0 6 1.33301 11.333 4 16c-7.33301 -2.66699 -13 -6.33398 -17 -11.001c-9.33301 -12 -19.333 -18 -30 -18c-6.66699 0 -13 2.33301 -19 7c5.33301 0 12.333 4.33301 21 13c-10.667 2 -16 7 -16 15c0 3.33301 1 6.66602 3 9.99902c12 -9.33301 20.667 -14 26 -14
c0.666992 0 6.5 3 17.5 9s26.167 8.66699 45.5 8c12.667 -1.33301 23.334 -3.66602 32.001 -6.99902c22.667 -8 36 -20.333 40 -37zM691.998 215h-175.999c20 38.667 49.333 58 88 58c39.333 0 68.666 -19.333 87.999 -58zM690.999 205
c-6 -20.667 -16.332 -38.001 -30.999 -52.001c-16.667 -15.333 -35 -23 -55 -23c-20.667 0 -38.834 7.33301 -54.501 22s-26.5 32.334 -32.5 53.001h10c19.333 -15.333 45 -23 77 -23s56 7.66699 72 23h14zM721 441.999c0 3.33301 -1.66699 5 -5 5s-5 -1.66699 -5 -5
s1.66699 -5 5 -5s5 1.66699 5 5zM718 427.999c0 6 -3 9 -9 9c-5.33301 0 -8 -3 -8 -9s2.66699 -9 8 -9c6 0 9 3 9 9zM495 441.999c0 3.33301 -2 5 -6 5c-3.33301 0 -5 -1.66699 -5 -5s1.66699 -5 5 -5c4 0 6 1.66699 6 5zM491 427.999c0 6 -3 9 -9 9c-5.33301 0 -8 -3 -8 -9
s2.66699 -9 8 -9c6 0 9 3 9 9z" />
    </font>
</defs>
</svg>
